<?xml version="1.0" standalone="no"?>
<!DOCTYPE svg PUBLIC "-//W3C//DTD SVG 20010904//EN"
 "http://www.w3.org/TR/2001/REC-SVG-20010904/DTD/svg10.dtd">
<svg version="1.0" xmlns="http://www.w3.org/2000/svg"
 width="690.000000pt" height="690.000000pt" viewBox="0 0 690.000000 690.000000"
 preserveAspectRatio="xMidYMid meet">

<g transform="translate(0.000000,690.000000) scale(0.100000,-0.100000)"
fill="#000000" stroke="none">
<path d="M3785 6498 c-4 -18 -11 -39 -16 -48 -29 -56 -41 -111 -40 -182 1 -48
-3 -78 -9 -78 -5 0 -10 19 -10 43 l-1 42 -15 -28 c-8 -15 -40 -87 -70 -160
-49 -115 -209 -486 -234 -542 -38 -85 -60 -137 -60 -143 0 -4 -14 -34 -30 -67
-16 -33 -30 -65 -30 -72 0 -6 -9 -28 -20 -50 -24 -48 -70 -152 -70 -159 0 -3
-12 -31 -26 -62 -14 -31 -33 -73 -41 -92 -8 -19 -26 -58 -39 -87 -13 -28 -24
-54 -24 -57 0 -2 -13 -33 -29 -68 -15 -35 -31 -72 -35 -82 -6 -17 -11 -15 -44
20 -112 119 -304 324 -333 356 -228 252 -336 367 -347 372 -10 4 -11 -103 -6
-559 4 -315 3 -565 -1 -565 -8 0 -85 28 -240 87 -22 8 -47 19 -55 23 -9 4 -31
11 -50 15 -19 4 -39 11 -45 15 -5 4 -46 20 -90 35 -44 15 -93 32 -110 39 -16
7 -46 19 -65 26 -19 7 -49 19 -67 26 -17 8 -36 14 -42 14 -6 0 -19 4 -29 9
-22 13 -155 61 -166 61 -4 0 -22 6 -39 14 -18 8 -84 33 -147 56 -63 23 -124
46 -135 50 -11 5 -54 20 -95 35 -41 15 -89 33 -107 41 -17 8 -37 14 -45 14 -8
0 -18 4 -24 9 -13 12 -64 23 -64 13 0 -5 12 -19 28 -32 35 -30 711 -674 972
-927 58 -56 117 -111 133 -123 15 -12 27 -27 27 -33 0 -14 -36 -35 -365 -207
-66 -35 -131 -71 -145 -79 -14 -9 -57 -32 -97 -51 -40 -19 -71 -39 -69 -45 1
-5 56 -28 122 -51 65 -22 126 -44 134 -47 8 -3 92 -31 185 -62 94 -31 179 -60
190 -65 11 -5 46 -17 78 -28 59 -18 71 -30 46 -44 -8 -4 -131 -78 -274 -165
-282 -169 -329 -198 -381 -228 -19 -11 -83 -49 -142 -85 -59 -36 -111 -67
-117 -69 -5 -2 -44 -25 -85 -51 -65 -40 -188 -106 -347 -184 -52 -26 -67 -51
-26 -42 16 3 192 10 393 15 530 14 1043 31 1212 39 125 6 149 5 153 -8 7 -16
24 -531 29 -850 3 -209 12 -320 25 -320 3 1 20 18 36 39 47 60 189 235 195
241 3 3 21 25 40 50 19 25 43 54 52 65 15 18 216 265 292 359 95 118 129 156
138 156 8 0 204 -169 390 -337 38 -35 75 -63 82 -63 6 0 18 17 25 38 7 20 26
65 42 100 16 35 29 65 29 68 0 2 8 23 19 47 10 23 26 62 36 87 25 61 31 66 52
48 26 -22 471 -288 483 -288 6 0 10 -4 10 -8 0 -5 10 -14 23 -20 28 -14 88
-49 224 -132 152 -92 143 -91 143 -17 0 87 -19 404 -26 451 -6 37 -5 38 17 33
13 -3 96 -35 184 -71 88 -37 201 -82 250 -102 50 -20 104 -42 122 -50 17 -8
36 -14 42 -14 6 0 26 -9 46 -20 20 -11 40 -20 45 -20 5 0 33 -11 62 -24 29
-13 89 -38 133 -56 115 -45 115 -45 217 -89 26 -12 53 -21 60 -21 8 0 18 -4
24 -8 5 -5 36 -19 69 -32 33 -13 79 -31 102 -42 23 -10 48 -18 55 -18 8 0 18
-4 24 -8 5 -5 41 -21 79 -36 39 -15 82 -34 97 -42 14 -8 31 -14 38 -14 6 0 30
-9 52 -20 51 -24 59 -19 27 17 -57 64 -151 164 -239 258 -52 55 -149 159 -215
230 -113 123 -217 233 -295 315 -19 20 -57 61 -84 91 -27 30 -85 92 -130 139
-136 143 -251 271 -251 279 0 5 160 115 355 246 195 130 357 241 358 246 2 5
8 9 13 9 5 0 40 23 79 50 39 28 74 50 79 50 5 0 13 6 19 13 9 10 -1 16 -46 25
-31 6 -75 11 -97 11 -22 0 -71 5 -110 11 -38 7 -95 16 -125 21 -30 5 -102 16
-160 24 -58 9 -127 19 -155 24 -27 4 -90 14 -140 21 -49 7 -113 17 -141 24
l-52 11 494 495 494 495 -55 3 c-33 2 -68 -3 -87 -12 -18 -8 -49 -17 -68 -19
-19 -3 -78 -13 -130 -22 -52 -9 -111 -18 -130 -21 -35 -5 -163 -26 -270 -44
-85 -15 -295 -50 -395 -66 -49 -8 -115 -19 -145 -24 -87 -16 -183 -29 -206
-30 -25 0 -26 -13 21 165 15 55 33 125 40 155 8 30 26 98 40 150 15 52 30 111
35 130 5 19 15 60 23 90 9 30 25 96 37 145 13 50 26 99 30 110 8 18 31 108 64
243 8 29 10 54 6 57 -4 3 -35 -21 -68 -53 -72 -68 -71 -67 -192 -159 -52 -39
-120 -90 -150 -114 -334 -257 -429 -329 -433 -329 -6 0 -33 241 -43 385 -10
145 -38 469 -49 575 -6 62 -22 261 -35 455 -13 188 -32 355 -41 355 -4 0 -11
-14 -14 -32z m662 -1940 c-3 -8 -6 -5 -6 6 -1 11 2 17 5 13 3 -3 4 -12 1 -19z
m-100 -290 c-3 -8 -6 -5 -6 6 -1 11 2 17 5 13 3 -3 4 -12 1 -19z m-1445 -515
c142 -56 239 -187 287 -389 85 -358 50 -544 -118 -631 -56 -29 -72 -33 -145
-33 -69 0 -91 4 -135 26 -135 68 -246 314 -280 625 -25 223 32 365 166 415 49
19 162 12 225 -13z m633 -205 c122 -197 154 -240 155 -206 1 7 9 31 20 53 11
22 19 43 20 48 0 9 97 242 117 281 20 38 23 34 126 -149 47 -82 144 -251 216
-374 72 -123 131 -227 131 -230 0 -10 -226 -64 -238 -57 -10 6 -74 110 -141
229 -18 31 -36 57 -41 57 -5 0 -39 -76 -76 -170 -37 -93 -70 -170 -73 -170 -5
0 -159 203 -193 254 -13 19 -17 1 -37 -133 -10 -73 -21 -134 -24 -137 -2 -3
-59 -8 -126 -11 -114 -6 -121 -5 -121 13 0 20 53 449 70 569 29 200 53 351 57
358 9 14 22 -5 158 -225z m-1320 207 c86 -23 217 -85 211 -102 -3 -7 -17 -52
-32 -100 -14 -49 -27 -89 -29 -91 -1 -1 -35 13 -76 33 -77 37 -113 43 -126 23
-35 -57 47 -434 123 -565 40 -69 97 -70 164 -3 l39 39 15 -42 c8 -23 29 -84
46 -136 l31 -95 -28 -23 c-60 -49 -114 -68 -193 -68 -79 0 -116 14 -174 62
-109 91 -197 281 -263 563 -20 88 -26 143 -27 235 -1 115 0 122 28 173 56 100
153 132 291 97z m2174 -19 c68 -3 125 -7 126 -8 4 -4 93 -613 97 -658 l3 -35
-90 -12 c-49 -6 -106 -13 -124 -15 l-35 -3 -77 345 c-43 190 -78 357 -78 372
-1 24 2 27 27 23 15 -2 83 -7 151 -9z m716 -16 c44 -12 83 -25 88 -29 6 -6
-67 -121 -76 -121 -1 0 -31 9 -67 20 -85 26 -116 26 -131 -2 -29 -54 20 -254
76 -314 41 -43 73 -44 149 -5 57 29 57 29 66 7 4 -11 18 -43 29 -69 12 -27 21
-52 21 -56 0 -13 -110 -59 -170 -72 -112 -24 -227 10 -302 88 -92 96 -157 314
-132 441 10 50 62 101 124 123 70 25 209 20 325 -11z m-175 -1130 c0 -5 -2
-10 -4 -10 -3 0 -8 5 -11 10 -3 6 -1 10 4 10 6 0 11 -4 11 -10z m-1430 -845
c-6 -19 -15 -35 -19 -35 -18 0 -18 14 2 52 24 45 34 35 17 -17z m2494 -215
c44 -44 78 -82 75 -84 -3 -3 -43 33 -89 79 -47 47 -80 85 -75 85 6 0 46 -36
89 -80z"/>
<path d="M2803 3562 c-81 -52 1 -541 107 -637 l22 -20 18 23 c30 37 33 97 11
246 -32 210 -65 318 -114 374 -22 24 -26 25 -44 14z"/>
</g>
</svg>
