<svg xmlns="http://www.w3.org/2000/svg" width="5689.333" height="5689.333" version="1.0" viewBox="0 0 4267 4267"><path d="M3604 77.7c0 .5.4 4.6 1 9.3.5 4.7 1.8 17.3 2.9 28 1.2 10.7 2.3 21.3 2.6 23.5.7 5.5 8.3 74.9 9.5 86.2.5 5 1.2 11.3 1.6 14l.6 4.9-58.7 59.7c-32.3 32.9-58.5 60-58.3 60.2s11.4 2.7 24.8 5.5c13.5 2.8 31.9 6.6 40.9 8.5s16.6 3.6 16.8 3.9c.3.3-43.5 62-97.3 137.3-53.8 75.2-133 186.1-176 246.4l-78.3 109.6h-5.6c-10 0-20.2 7-25.1 17.2-2.4 4.9-2.4 13.6 0 18.8l1.9 4.2-12.3 17.3c-6.8 9.5-12.5 17.5-12.7 17.7-.1.2-1.1-.3-2.1-1.2s-4-2.6-6.7-3.9c-5.8-2.6-17.6-3-23.9-.9-7.1 2.5-14.1 10.4-16 18.4-1.4 6-.8 15.3 1.2 19.3 2.2 4.3 8.3 10.4 12.4 12.5l2.6 1.4-8.6 11.9-8.5 11.9-8.6-.7c-7.6-.7-8.9-1-11.6-3.6-7.5-7.2-19.4-9.6-30.4-6l-7 2.2-16.2-4.1c-8.9-2.2-16.4-4.2-16.6-4.4-.1-.2 2.4-5.1 5.6-11 6.2-11.1 7.8-14.7 6.4-14.7-.4 0-.8-3.5-.9-7.8-.1-8.7-2.1-14.2-8-21-8.2-9.6-23-12.6-34.6-6.9-14.9 7.3-22.2 25.1-16.3 39.4.8 1.8 1.2 3.3.9 3.3-2.3 0-26.1-13.7-40.3-23.2-28.7-19.3-59.5-50-82.4-82.1-9.1-12.6-20.7-31.5-20.7-33.4 0-1 1.1-5.2 2.4-9.3l2.4-7.5.1 5.5c.2 11.5 5.2 20.7 13.6 24.9 4.4 2.3 6.3 2.6 15 2.6 8.9 0 10.6-.3 15.2-2.8 8.4-4.3 13-12.6 13.7-24.3.8-13.9-3.6-23.4-13.1-28.1-5.2-2.5-6.8-2.8-15.8-2.8-11.1 0-17.3 2-22 7.1-1.4 1.5-2.5 2.5-2.5 2.3s1.6-6.5 3.5-13.9 3.2-13.7 2.9-13.9c-.3-.3-5.6-2.7-11.7-5.3-9-3.7-11.1-5-10.9-6.5.2-1 .4-5.4.5-9.8.2-7-.2-8.7-2.7-13.8-4.9-10.2-14.9-15.3-27.9-14.4-4 .3-8.2.8-9.4 1.2-2 .6-2.4-.2-6.2-12.3-12.4-39.4-22.6-81.5-32.1-132.5l-3.1-16.8 2.7-3.2c8.7-10.3 7.1-23.4-4.1-33.5-4.6-4.2-5.3-5.3-5.8-9.7-.3-2.8-1.1-8.6-1.7-13-1.9-14.6-4.8-38.8-6.5-54-.8-8.3-1.7-16.7-2-18.8-.4-3.5-.3-3.7 2.3-3.7 7.4-.1 16.4-7.8 18-15.5 2.3-11.3-7.7-24-19-24-2.6 0-4.8-.2-4.9-.5 0-.3-.2-1.2-.3-2-.2-.8-.6-6.8-1-13.4-.4-6.5-.9-12.6-1.1-13.5-.1-.9-.8-11.7-1.5-24.1s-1.5-24.4-1.9-26.8l-.6-4.3-38.2 47.8c-208.2 260.8-351.4 411.3-487.8 512.8-14.8 11-43.8 31.5-44.7 31.5-.2 0-.5-3.2-.5-7.1-.5-22.4-13.8-35.2-36.3-35.2-13.9 0-24.2 4.8-30.1 14.1-7.3 11.6-8.2 28.8-2 40.9 2.7 5.5 11.1 12.8 17.2 15.1l5.1 1.9-11.7 6.6c-6.5 3.7-12.3 6.7-12.9 6.7s-2.2-1.7-3.6-3.7c-7.4-10.8-26.4-18.6-37.7-15.4l-3.1.9-4.7-13.1c-2.6-7.3-5.1-14-5.6-14.9-1.2-2.3-6.1-4.8-9.4-4.8-1.4 0-2.5-.1-2.5-.3-.1-.1-.3-2-.6-4.2-1.7-11.8-8.4-21.4-18.3-26.2-5.2-2.6-6.5-2.8-17.6-2.7-10 0-12.8.3-16.7 2.1-13.6 6.2-20.9 20.5-19.4 37.7 1.7 19.8 15.3 31.6 36.1 31.6 8.5 0 15.3-1.9 21.8-5.9l4.7-3.1.1 3.3c.1 3.2.4 7.7 1.4 17.4.3 2.8.8 9.8 1.1 15.5s1 12.5 1.6 15.1c.6 2.8.7 5.2.2 5.7-2 1.8-28.2 11.2-34.9 12.5-4 .7-10.4 2.9-14.1 4.8-7.2 3.6-22.6 8.5-42.9 13.6-15.1 3.8-34.9 8.1-37.2 8.1-1.1 0-3-2.1-4.8-5.1-7.9-13.4-25-23.1-38-21.4-15.5 1.9-33.2 18.1-36.3 33.2-.9 4.4 2.1 3.9-31.1 4.7-25.4.6-28.1.3-28.1-3.5 0-1.2-1.3-4.9-3-8.4-4-8.5-12.5-16.9-20.9-20.9-5.8-2.7-7.6-3.1-15.1-3.1-7.3 0-9.3.5-14.5 3-7.7 3.7-17.3 13.2-20.9 20.7-1.9 3.9-3.4 5.8-4.7 5.8-3.6 0-28.7-4-46.6-7.4l-18.3-3.4-5-5.2c-2.8-2.9-7.5-6.3-10.7-7.8-5.1-2.3-7.1-2.7-15.8-2.7-7.3 0-11.3.5-14.7 1.8-4.5 1.8-4.7 1.8-13.3-.7-6.7-1.8-9.4-3.1-11.1-5.3-3.6-4.4-3.8-5.9-1-9.6 4.1-5.4 5.8-10.6 5.8-17.7-.2-17.2-10.8-31.4-26.7-35.5-7.7-2-11.8-1.9-18.5.5-5.1 1.8-5.6 1.8-6.8.3-.6-.9-5.4-6.6-10.5-12.6-5.5-6.6-9-11.6-8.8-12.6.2-.9.4-5.4.5-10.1.1-10.2-1.8-14.5-9.8-22.5-8.5-8.5-19.5-12.4-28.9-10.3-3.9.8-3.9.8-14-8.5-5.6-5.1-12.4-11.2-15.2-13.6l-5-4.3-.1-8.6c-.1-14.6-3.9-22.3-13.3-26.9-5-2.5-6.7-2.8-15.6-2.8-8.1 0-10.9.4-14.6 2.1-6 2.8-11.4 8.5-13.3 14.2-1.9 5.4-2.1 17.8-.4 23.6 1.6 5.2 10.9 14.8 16.1 16.5l3.8 1.3-6.5 5-6.5 5 2.6 5.2c7 13.9 29.2 49.3 43.4 69.1l4.3 6-5.7-5.3c-8.1-7.5-15-10.5-24.3-10.4-7.1.1-8-.1-24.1-7.4-9.3-4.2-17.2-8-17.6-8.4s.2-2.5 1.5-4.6c2-3.4 2.3-5.2 2.3-13.9 0-8.4-.4-10.9-2.4-15.3-4.5-10-14.6-15.5-28.6-15.6-11.8-.1-21.2 5.7-26.1 16.2-1.4 3.1-2.8 5.9-3 6.1-.3.3-35.2-17.5-56.9-29.2-7.1-3.8-16.8-9-21.5-11.5-26.9-14.4-81.2-45.7-136.7-78.8l-8.3-4.9V763c-.1-12.8-8.6-21.1-21.5-21.1-16.1 0-24.7 12.5-20.4 29.8 2.1 8.1 9.8 13.3 19.8 13.3 3.6 0 2.2-3 16.6 34.5 14.3 37.2 39.5 107.3 39.5 110 0 .4-6.5-5.6-14.5-13.2-12.2-11.6-14.4-14.3-14.5-16.8-.1-4.6-3.4-11-8.3-15.9-5.4-5.4-9.5-7.6-16.5-9.1-5.1-1-6.3-2-27.3-21.9-17.5-16.8-21.9-21.4-21.9-23.5 0-10-7.9-18.1-17.6-18.1-3.9 0-4.2-.3-35.6-30.3-10.4-9.9-18.8-18.7-18.8-19.5 0-5.2-10.2-15.2-15.5-15.2-2.1 0-5.4-3.1-40.5-37-14-13.6-28.9-27.8-33-31.7-7.5-7-234.6-223.7-242.9-231.9l-4.5-4.3 21.5-10.4c11.7-5.7 32.1-15.4 45.2-21.7 13.1-6.2 23.6-11.8 23.4-12.3-.1-.5-5.2-3.9-11.2-7.6-6.1-3.7-22.2-13.6-36-22-13.7-8.5-27.7-17-31-19.1s-19-11.8-35-21.5c-15.9-9.8-29.1-17.9-29.2-18-.2-.1-3.1-21-8.4-61-1.1-8.3-2.2-16.1-2.4-17.5-.3-2.3-2.4-17.2-9-66.4-1.4-10.3-2.5-19.4-2.5-20.2 0-2.4-1.4-1.6-9.1 5-69.9 60.1-120.3 102.3-121.7 102-6.7-1.6-161.9-29.4-162.8-29.2s-.5 2 1.1 5.8c1.2 3 8.7 21 16.5 40s21.1 51.3 29.6 71.7c8.5 20.5 15.4 37.5 15.4 37.8s-11.1 21.1-24.6 46.3c-13.6 25.1-29.3 54.2-34.9 64.7-5.6 10.4-12.3 22.9-14.9 27.6-2.5 4.7-4.6 8.9-4.6 9.3 0 .7 6.6.5 22.5-.9 7-.6 16.6-1.3 26-2 4.4-.3 10.5-.8 13.5-1 3-.3 8.4-.7 12-1 15.9-1.2 33.9-2.6 38.5-3 7-.6 17.2-1.4 37.5-3l17.5-1.3 8.5 9c30.5 32.2 107.6 112.6 108 112.7.3.1 5-18.6 10.4-41.4 5.5-22.8 10.3-41.5 10.7-41.5s7.6 5.3 16.1 11.8c8.4 6.5 38 29.1 65.8 50.3C742.9 741.3 754.1 750 751.8 750c-2.3.1-7 5.3-10.2 11.4-2.3 4.5 1 10.8 7.6 14.2 4.2 2.2 6.5 1.7 10.8-2.2 4.7-4.3 6.9-9.9 5-13.4-1.6-3.1-2.5-3.6 26.5 18.5 33 25.2 89.7 68.5 127 97 16.5 12.6 45.1 34.4 63.5 48.5s55.4 42.3 82.1 62.8l48.7 37.1 5.5 22.8c9 36.7 12.6 54.9 17.1 84.8 3.2 21.5 3.2 23.7 0 30.2-2.5 4.9-2.9 7-2.9 13.8 0 8.9 1.6 14.1 6.7 21.1l3.1 4.4-1.1 20.6c-.6 11.4-1.3 20.9-1.6 21.1-.2.2-2.2-.5-4.4-1.6-3-1.5-4.2-2.9-4.7-5.1-1.9-8.6-13.2-19.9-23.4-23.5-5.5-1.9-14.5-1.9-20.2 0l-4.4 1.5-15.8-8.1-15.7-8 2.5-3.3c5.4-7.1 7.1-19 4-29.3-2-6.8-8.8-14.3-15.7-17.3-10.8-4.8-27.2-2.1-35.2 5.6-4 3.9-7.6 10.2-7.6 13.3 0 4.6-.2 4.5-50.5-21.4-8.8-4.5-27.2-14-41-21-54.2-27.6-68.1-35-71.8-37.6-2.1-1.5-6.2-3.6-9-4.5-2.9-.9-8.3-3.4-12.2-5.4-3.8-2-15.7-8.1-26.2-13.5l-19.2-9.7 1.9-2.6c4.2-5.3 5-16.5 1.5-23.2-3.3-6.4-11.4-11-19.5-11-9.4 0-16.1 4.5-18.9 12.6l-1.7 5.1-6.4-3.2c-6-2.8-32.8-16.5-100.5-51.2-14.3-7.3-28.6-14.6-31.7-16.1-3.2-1.5-5.6-3-5.5-3.4.1-.3 13-12.2 28.6-26.4l28.5-25.8-9.2-2.5-9.2-2.4V900c0-3.8-1.3-5.5-7.8-9.9l-3.3-2.3-4 2.8c-2.2 1.5-4.8 3.7-5.8 4.9l-1.6 2.2-41.8-11.1c-22.9-6.2-42.1-11.6-42.6-12.1-.5-.6-4.1-8.2-8.1-17-23.1-51.4-44.4-98.1-45-98.8-.4-.5-16.4 23.5-35.6 53.2l-34.9 54-5.5.6c-3 .3-6.8.8-8.5 1-1.6.2-13.8 1.6-27 3-42 4.5-87 9.6-87.2 9.9-.2.1 17.8 22.5 39.8 49.7 22.1 27.1 40.3 49.9 40.5 50.4.4 1-4.6 26.2-17.7 89-6.6 31.8-7.7 37.5-7.1 37.5.3 0 27.4-10.4 60.3-23l59.8-23.1 36.3 20.7c20 11.3 40 22.7 44.5 25.3 4.5 2.5 8.3 5.2 8.3 5.8 0 .7 1.3 2.7 2.8 4.4 2.4 2.7 4.1 3.4 9.8 4.4 3.8.7 7.7 1.6 8.7 2 1.4.6 1.7.2 1.7-1.9 0-1.4.4-2.6 1-2.6 1.4 0 3.8-5.1 4.2-9 .6-5.1-1-11.2-3.7-14-2.8-2.9-3.1-4.6-4-23.9-.6-11.1-.5-13.3.6-12.9 27.5 10.4 85.9 32.5 95.9 36.3l13.5 5.1.2 6.2c.3 9.3 4.2 15.7 12 19.6 4.5 2.2 13.4 2.1 18.2-.4 3.6-1.8 8.4-6.5 9.3-9.1.4-1.1 10.4 2.6 105.3 38.6 24.2 9.2 46.3 17.6 49.1 18.6 5 1.9 5.2 2.1 5.8 6.7.3 2.6 2 7.1 3.6 9.9 8 13.9 28.4 17.5 41.2 7.3l3.9-3.2 26.2 9.8 26.1 9.9-8 .6c-12.2 1-19.2 4.8-23.4 12.9-5.1 10.1-4.5 26 1.3 34.9 5.4 8.2 13.8 12.1 25.7 12.1 14 0 24.1-6 27.7-16.3 3.5-10.3 1.6-29.3-3.5-35-1.6-1.9-1.6-1.9.8-1.2 3.6 1.1 78.3 29.4 78.5 29.7 0 .2 1.6 3.3 3.3 6.9 3.8 7.9 9.1 13 17.6 17 10.6 4.9 20.1 4.4 28.6-1.5l3.5-2.4 8 3c4.4 1.6 8.4 3.3 8.9 3.8.9.9-.6 7.6-5.1 21.5-4.4 13.8-13.2 33.1-19.6 43.1l-2.2 3.5-10 .3c-7.5.2-11.2.8-14.7 2.4-13.4 6-20.3 20.1-19.2 38.8l.4 6.1-6.3 4.6c-3.4 2.5-10.7 7.3-16.2 10.6-7.9 4.7-11.4 6.2-16.9 7.1-8.7 1.4-14.4 4.1-20.6 9.7-5.4 4.8-10.9 7.3-32.2 14.2-10.6 3.4-43.4 12.1-45.8 12.1-.4 0-1.1-2.4-1.4-5.3-1.5-11-8.4-20.5-18.5-25.4-4.9-2.4-6.8-2.8-14.6-2.8-10.5 0-14.8 1.8-22 9-8.9 8.8-12.1 20.8-8.4 31.9.5 1.6.8 3 .7 3.2-.3.1-11.1 1.3-38.8 4-8.5.8-46.4 3-46.9 2.7-.2-.1.7-2 2.1-4 3.7-5.7 5.1-10.9 4.5-16.8-1.7-16.8-14.2-27.5-30.6-26.3-7.8.6-13.1 3.1-18.2 8.5-8.5 9-9.9 25.1-2.9 35.1 1.7 2.3 3 4.5 3 4.7 0 .6-84.1.4-94.8-.3l-7.2-.4 2.6-3.1c11.9-14.1 6.3-34.6-10.9-40.3-15.5-5.1-32.6 8.9-31.1 25.4.5 4.8 2.3 8.9 6.2 14.1l2.5 3.4-17.4-.7c-9.6-.4-19.2-.9-21.4-1.1s-11-.7-19.5-1c-8.5-.4-16.8-.8-18.5-1-1.6-.2-9.1-.7-16.5-1-7.4-.4-13.7-.8-13.8-1-.2-.2.6-1.7 1.9-3.4 1.6-2.1 2.4-4.9 2.7-8.8.3-5.1 0-6.4-2.7-10.5-5.7-8.9-15.9-13-23.2-9.3-7.5 3.8-13.9 12.3-13.9 18.5 0 1.7.7 4.7 1.6 6.8 1.6 3.8 1.7 4.8.5 4.6-.3-.1-6-.5-12.6-.9-6.6-.3-12.7-.8-13.5-1s-6.4-.6-12.5-1c-6-.3-12.1-.8-13.5-1s-7-.7-12.5-1c-5.5-.4-11.3-.8-13-1-1.6-.2-6.6-.7-11-1s-10.3-.8-13.1-1.1c-5-.6-5.1-.7-5.2-4-.2-4.6-2.9-8.3-7.6-10.4-7.6-3.5-16.6 1.2-17.8 9.1-.3 2.1-.7 2.4-4.3 2.1-5.3-.4-35.6-3.1-42-3.8-13.7-1.4-25-2.3-25.3-2-.1.2 4.1 3.9 9.5 8.2 76.4 61.1 143.6 123.6 190.9 177.4 10.8 12.3 33.5 40.2 33.1 40.6-.1.2-13.7 6.1-30.2 13.2-26.2 11.3-72.4 31.8-92.7 41.1l-6.8 3.1 9.4 14.3c5.1 7.8 12.7 19.4 16.8 25.7l7.5 11.4-1.8 3.1c-4.1 6.9-3.3 20.1 1.5 25.7 3.9 4.4 8.4 6.1 16.3 6.2l7.2.1 2 4.5c4.8 11.4 6 20.8 7.1 59 .6 17.3 1.3 33.7 1.7 36.5l.6 5-3.6-3.2c-2-1.8-5.3-3.7-7.4-4.2-7.8-2.2-17.8-.6-22.5 3.6-5.2 4.5-7.2 15.6-4.7 24.8 4.2 15.1 30.3 17 37.9 2.7 1.7-3.4 1.9-3.5 2-1.2 0 2.2 6.5 80.4 11.6 139.3 1.4 16.6 1.4 19 .1 20-.8.7-5.9 4.8-11.3 9.3-30.9 25.2-76.1 56.3-122.5 84.2-22 13.2-21.9 13.1-21.9 10.2 0-3.7-3.1-9-6.3-10.7-2.1-1-4.8-1.4-8.9-1.1-5 .4-6.4.9-9 3.5-5.4 5.4-5 16.7.8 21.2l2.4 1.9-9.7 5.4c-33.4 18.7-64.1 34.7-112.8 58.8-38.5 19.1-93.2 45.1-106.4 50.7-1.8.8-3 1.8-2.5 2.2s7.9 1.8 16.4 3c81.1 11.6 178.6 30.7 249 48.8 16.2 4.1 30.5 7.8 31.8 8l2.3.6-2.5 2.6c-3.3 3.5-4.6 7.2-4.6 13.3 0 5.8 2.8 12.6 6.1 14.6 2.9 1.8 10.9 1.7 16.9-.3l5-1.7v-10.9c0-6 .3-10.9.8-10.9 2.7 0 50.5 16 72.7 24.3 15.6 5.8 44.5 17.8 46.2 19.2.3.2 7.3 77.2 7.3 80.2 0 2-.5 2.3-4.2 2.3-5.1.1-11.1 2.1-14 4.7-5.1 4.5-7.2 14.9-4.7 23.8 1.4 5.1 7.3 11 12.4 12.4 2.2.6 6.3 1.1 9.2 1.1 5.1 0 5.2.1 5.7 3.2.3 1.8 2.4 23.8 4.6 48.8s4.2 47.3 4.5 49.5l.6 4-3.3-3.2c-9-8.7-19-8.3-27.7 1.2-7.2 7.8-7.8 15.8-1.8 23.6 8.3 10.9 22.4 11.7 30.8 1.7l2.6-3.1.7 15.9c1.1 26.1 4.3 44 8.4 47.7.9.9 6.2 2.3 11.7 3.3 9.5 1.6 10.2 1.9 13.4 5.6 4.8 5.6 9.7 7.8 17.4 7.8 4.9 0 7.5-.6 11.2-2.5l4.8-2.6 10.1 1.5c27.3 4 56.6 4.5 80.6 1.2 5.2-.7 9.7-1.1 10-.9.9.8-5.3 22.9-12.5 44.8-18.4 55.6-45.4 112.2-86.3 180.4-11.9 20-10.5 18.6-18.9 18.6-6.6 0-7.5.3-10 2.7-2.4 2.4-2.8 3.8-3.1 9.9-.4 6.1-.1 7.5 1.8 10.1 1.2 1.6 1.9 3.6 1.6 4.3-.8 2.2-27.8 42.4-44 65.5-23.7 34-52.2 72.7-80 108.7-4.7 6.2-8.3 11.3-8 11.3.4 0 17.2-6.5 37.3-14.4 32.1-12.6 56.8-22.1 91.1-35 5.9-2.2 11.3-3.6 14.2-3.6 3.7 0 5-.5 6.6-2.4 1.4-1.8 7.7-4.6 24.8-10.6 53.3-19.1 104.6-36 142.2-47l14.3-4.2 3.3 3c5.1 4.5 13.8 5.8 23.6 3.7 5.1-1.1 9.8-6 11.6-12.1.9-3.2 2.2-5.5 3.2-5.8 7.2-2.1 35.5-8.5 53.7-12 31.4-6.3 29-5.9 27.4-3.9-20.2 25-176.2 208.7-179.1 210.7-2.2 1.6-4.8 4.6-5.8 6.8-.9 2.1-41.3 50.8-89.6 108.1S458.9 3560.9 414.1 3614c-44.7 53.1-81.9 97.1-82.6 97.8-1.5 1.7.7 5.4-27.6-45.5-12.3-22.2-22.7-40.3-23.1-40.3-.3 0-6.1 10.5-12.9 23.2-6.7 12.8-13.2 25.1-14.4 27.3s-6.1 11.2-10.7 20c-9.1 17.1-17.4 32.7-24.8 46.5-2.5 4.7-7.1 13.5-10.4 19.6l-5.8 11.1-81.9 16.3c-45.1 8.9-81.9 16.6-81.9 16.9 0 .6 59.2 62.2 109 113.6l6.8 7-1.4 12c-.8 6.6-2.5 21.4-3.9 33-3.6 29.4-6.4 52.9-9 75-.8 7.1-2.4 20.4-3.5 29.5-1 9-1.8 16.6-1.6 16.7.3.4 17.3-7.8 92.6-44.7 29.4-14.4 54.7-26.6 56.1-27.1 2.2-.9 12.3 3.5 78.4 34 41.8 19.3 76 34.9 76.1 34.8s-.2-2.9-.7-6.2-4.5-31.9-8.9-63.5-9.2-65.2-10.5-74.7c-1.4-9.4-2.5-18.3-2.5-19.7 0-2.1 11.6-15.3 56.5-63.8 31-33.7 56.3-61.3 56.1-61.5-.4-.4-22.3-4.5-56.1-10.3-13.2-2.3-24.8-4.5-25.8-4.8-1.5-.6 2.4-7 25.1-40.7 14.7-22 51-76.2 80.7-120.5 29.6-44.3 67.9-101.4 85-127 49.3-73.5 95.7-142.8 157-234.5 31.3-46.8 64.6-96.5 74.1-110.5l17.1-25.5 4.3.3c6.8.6 12.6-1.6 18.5-7 7.3-6.6 9.9-12.2 9.2-19.7-.2-3.2-1.4-7.6-2.6-10l-2.2-4.2 2.1-3.3c2.6-4.3 4-4.5 27.5-4.1 23.1.5 45 3.3 58.2 7.6l3.3 1.1-2.9 4.1c-6.5 9.6-14.2 22.8-13.9 23.9.2.6 9.8 9.8 21.3 20.4l21 19.4 4.4-4.7c2.4-2.7 8.7-10.1 13.9-16.6l9.6-11.9 1.8 2.4c6.6 8.4 16.4 28.3 14.9 30.3-1.7 2-4.1 12-4.1 17 0 6.4 3.6 14 9 18.8 2.1 2 4.1 4.4 4.5 5.6.8 2.6.8 36.5 0 45.6-2.2 24.8-6.6 51.2-9.5 57.6-1.2 2.7-2 6.6-2 10 0 3.2-1.9 13.5-4.5 24-18.2 73.6-54.3 172.7-104.9 287.8-6.4 14.5-11.9 26.8-12.3 27.4-.8 1.2 1.5 0 4-2.2 2.3-1.9 2.7-2.9-18.8 42.9-8.6 18.4-16.7 35.6-17.9 38.3l-2.2 4.7-26.9-27.5c-14.7-15.2-27.1-27.2-27.5-26.8-.3.4-3 10.9-5.8 23.3-10.1 44.2-23.4 101.5-23.5 101.6s-26 12.9-57.5 28.5c-31.5 15.5-57.1 28.6-57 29 .2.5 24.8 15.5 54.8 33.4 30 18 54.6 32.7 54.7 32.8 0 .1 2.6 17.5 5.7 38.7s6.3 42.5 7.1 47.5c.7 4.9 2.4 16.3 3.6 25.3 1.3 8.9 2.6 16.1 3 16 .4-.2 22.2-19 48.4-41.8s48.5-41.6 49.5-41.8 16.4 2.2 34.2 5.3c17.7 3.1 45.5 7.9 61.6 10.6 16.1 2.8 29.6 4.8 29.9 4.5.5-.5-13.2-33.3-44.8-107.1l-4.7-11 8.6-16.5c4.6-9.1 10.2-19.7 12.2-23.5 2-3.9 7-13.3 11-21s11.2-21.4 16-30.5 9.5-18 10.5-19.9l1.7-3.4-9.9.8c-5.4.3-11.1.8-12.8 1-9.7 1.3-41.7 3.6-42.2 3.1-.3-.3 18.3-56.4 41.5-124.5l42.1-124 4.3-3.9c17.3-15.8 77.1-66.6 109.3-92.8 22.7-18.4 63.9-50.7 65.5-51.2.5-.2.4 1.4-.2 3.5-2.3 8.3 1.7 21.2 8.4 26.8 14.1 11.9 35.1 7.6 43.2-8.7 2.9-5.8 3.4-13.3 1.5-19.8-2.9-9.5-14.1-18.7-23.4-19.3-2.2-.2-3.8-.7-3.6-1.2.5-1.2 11.9-9.6 28.5-21l12.5-8.6 1.6 3.1c2.5 4.8 8.4 10.9 12.9 13.3 3.4 1.8 5.7 2.2 14.1 2.2 9.2 0 10.4-.2 15.3-3 9.6-5.3 14.4-15.5 13.5-29-.4-6.2-1.9-10.9-6.1-18.7-.1-.3 6.5-4.5 14.9-9.3l15.2-8.6 5.3 2.1c7.8 3.2 15.2 2.9 23-1 7.4-3.6 15.4-11.8 19.2-19.9 2.6-5.2 3.1-5.7 9.7-8.3 13.5-5.5 35.3-12.7 49.4-16.2 17.7-4.5 17.6-4.4 15.7-.8-2 3.9-3.4 12.4-2.9 17.5 2.2 21.1 22 36.1 41.1 31.1 11.3-3 23.2-14.3 26.2-24.8 2-7.1.9-16.3-2.6-23.5l-3.1-6.2 4.6.7c23.4 3.2 46 11.6 64.9 24.2 4.3 2.8 5.9 4.7 8.3 9.8 4.9 10.4 14.7 18.7 24.7 20.9 2.4.5 4.7 2.5 8.9 7.6 23.8 28.9 44.7 67.6 63 116.8 2.9 7.9 5.3 14.5 5.3 14.7s-1.1.4-2.4.4c-5.6 0-13 3.5-18.6 8.7-9.3 8.6-12.8 19.7-9.5 30.9 5.6 19.3 25.9 29.2 42.5 20.7l5.7-3 3.6 13.6c7.7 29.1 18.2 77.6 24.2 111.1 2 11.3 4.3 24 5.1 28.4l1.4 7.8-3 3.4c-4.5 5.2-7.2 11.2-7.3 16.4-.1 7.5 6 16.8 15 23 2 1.3 2.5 3.8 5.3 24 4.8 35 5.9 43.1 6.5 48.5.3 2.7 1 8.6 1.5 12.9.6 4.4.8 8.1.6 8.3-.2.3-2.3.7-4.7.9-12.9 1.5-21.5 13.8-17.9 25.6.6 2.3 3.1 6.1 5.4 8.5 4.9 5.2 11.3 7.4 18 6.2 2.3-.4 4.2-.6 4.3-.5s1.7 15.1 3.5 33.4c1.8 18.2 3.5 33.2 3.8 33.2s3.9-10.5 7.9-23.3c6.6-20.8 23.6-70.6 33.7-98.9l3.9-10.7 7.1.1c5 0 8.5-.6 11.6-2 15.2-6.7 16-32.3 1.3-40l-3.3-1.7 5.5-13.5c17.8-43.8 32.1-75.6 51.4-114.7 13.8-27.8 14.1-28.3 18.2-30.1 9-4 14.7-14.1 14.7-26.2 0-4.7.6-6.9 3.6-12.1 5.9-10.7 3.4-9.7 29.9-12.9 13.1-1.7 24.2-3 24.7-3s.6-3.3.2-7.6l-.7-7.5 4.6-4.7c2.5-2.6 5.8-7.3 7.2-10.4 5.1-11.1 2.8-21.7-7-32.6l-4.5-4.9 7.4-9.6c4-5.3 8.6-11 10-12.8l2.6-3.1 2.2 2.8c4.1 5.3 8.2 8.7 13.8 11.3 4.6 2.1 6.9 2.6 14 2.6s9.4-.4 14.1-2.6c10.2-4.8 17.6-14.7 19.8-26.4 2.2-11.8-3.8-24.8-15.3-33l-4.7-3.3 11.2-10.1c6.2-5.6 11.6-10.1 12-10.1s1 .8 1.4 1.9c.9 3 11.1 12 16.2 14.4 3.8 1.7 6.6 2.2 13.3 2.2 11.7-.1 17.9-2.4 25.1-9.5 7.6-7.4 10.2-14.1 10.3-26.5.1-9.3-1.1-13.4-6.3-21l-2-3.1 11.5-5.8 11.6-5.8 4.6 1.9c3.5 1.3 7.3 1.8 15.2 1.8 9.5 0 11-.3 16-2.8 6.9-3.6 11.4-7.8 15.2-14.4 2.8-5 3.1-5.2 9.6-6.7 6.8-1.5 16.2-2.9 28.7-4.5 3.9-.4 12.8-.8 19.9-.7l12.8.1 1.8 5.8c3.5 11.4 10.2 17.9 21.4 21.2 6.7 2 17.4 2.3 23.2.7 5.9-1.7 13.3-6.9 16.8-12 1.7-2.4 3.6-5.1 4.2-6 1-1.4 2-1.3 10 .8 37 9.7 80.7 29.1 122.1 54.3 7.4 4.4 8.5 5.5 10.7 10.3 1.4 3.1 4.8 7.7 7.8 10.6 6.9 6.7 14.2 10 22.6 10.3 6.2.2 6.7.5 15 6.6 4.8 3.5 12.3 9.2 16.7 12.7l8 6.3-.3 6c-.6 10.2 2.8 20.7 8.5 26.1 5.3 5 11.8 7.1 21.8 7 4.9 0 10.4-.2 12.1-.4 2.7-.3 4.7 1.2 17.3 12.6 10.3 9.5 14 13.4 13.5 14.5-1.6 3.5-2.7 12.9-2 17.2 1.1 7.3 6.2 14.7 12.5 18.2 4.3 2.5 6.9 3.1 13.1 3.5 4.8.3 9.2 0 11.6-.8l3.9-1.3 15.7 16.4c10.8 11.2 15.6 16.9 15.2 17.9-3.9 9.3-2.2 17.7 5.3 26 11.5 12.8 25.2 13.2 37.4 1.1 8.2-8.3 9.8-17.1 5.3-28.1-3.5-8.2-13.5-14.8-23.3-15.1-2.8-.1-5.1-.7-5.2-1.3 0-.6-.2-1.8-.3-2.6-.2-.8-.6-6.2-1-12s-.9-13.2-1.1-16.5c-1-13.6-1.5-20.8-2.1-35.5l-.7-15.5h8.9c11.5 0 16.9-2 22.7-8.5 12.5-13.9 8.9-36.3-7.3-45.4-4.6-2.6-6.4-3-12.5-3-3.8 0-8.3.4-9.9.8l-2.9.7.7-20.8c.4-11.4.9-22.2 1.1-23.8.2-1.7.6-7.5 1-13 .3-5.5.8-12.1 1.1-14.6l.6-4.7 6.2.1c11.6.1 23.8-7.9 29.9-19.8 2.8-5.2 3.2-7 3.2-14 0-6.8-.4-8.9-2.8-13.7-4.6-9.3-13.2-16.1-24.5-19.4-1.6-.5-1.3-2.2 2.9-17.9 11.9-44 29.6-82.2 51.7-111.2 5.7-7.5 6.1-7.8 10.4-8 16.1-.9 32.2-16.2 34.4-32.6.6-4.4 1.2-5.2 5.8-8.6 10.7-7.9 43.9-26.2 45.1-24.9.2.2.6 7.3 1 15.8s.8 17.1 1 19 .6 11.2 1 20.7l.7 17.2-6.8-3.7c-6.3-3.4-7.6-3.7-14.9-3.7-6.8 0-8.9.4-13.9 2.9-26.5 13-26.3 48.3.2 61.3 4.8 2.4 7 2.8 13.7 2.8 8.7 0 14.9-2.1 20.7-7 1.7-1.4 3.2-2.5 3.3-2.3.3.3 1.1 13.1 2 33.3.3 5.5.8 14.5 1 20 .3 5.5.8 13.8 1 18.5 1.5 28.7 1.5 31.6.2 28.2-3.5-9.3-12.5-15-25-15.9-13.2-1-24.3 3.5-29.1 11.7-2.7 4.6-4.5 13.2-4.1 19.8.9 16.9 9.4 25.6 26.3 26.9 18.1 1.4 30.4-6.4 33.1-20.9.6-3.5.9-1.7 1.5 9.2.3 7.4.9 17.3 1.1 22 1 17.4 1.5 27.8 2 39.5.3 6.6.7 15.8 1 20.5.6 11 1.3 25.6 2 40 .3 6.3.8 15.3 1 20 .3 4.7.7 13.4 1 19.5.3 6 .7 15 1 20 .3 4.9.7 13.9 1 20 .3 6 .7 14.8 1 19.5s.7 14.1 1 21 .8 15 1 18 .7 12.7 1 21.5c.4 8.8.8 18.2 1 21 .2 2.7.7 11.5 1 19.5s.8 16.7 1 19.5c.2 2.7.7 12.4 1 21.5.4 9.1.8 17.5 1 18.8.8 4.9.7 20.7-.1 20.5-.5 0-7.5-2.2-15.5-4.7l-14.5-4.6-3.5-5.2c-7.7-11.7-16.5-14.8-24.9-8.7l-4.4 3.2-4.8-1.6c-4.1-1.3-4.8-1.3-4.8-.1 0 1.7 2.2 10.7 5.6 22.4 1.3 4.7 8 29.4 14.9 54.9l12.4 46.5-3.7 5c-2 2.8-6.3 7.9-9.6 11.3-6.3 6.6-8.5 9.8-8.6 12.4 0 1.3-11.6 17.9-41.4 59.2l-6.4 8.8-2.9-2.5c-4.7-3.9-8.1-4.9-10.8-3.2-3.9 2.6-3.9 9.6.1 12.2 2.2 1.5 2.7 1.5 6.4-.5 3.9-2 4-2 3-.2-.5 1.1-1 2.2-1 2.4s3.9.5 8.8.6c4.8.1 10.7.4 13.2.6s9.7.7 16 1c15.4.7 29.9 1.5 39 2 4.1.2 14.5.7 23 1.1s16.2.8 17 1c.8.1 3.8.3 6.5.3l5 .1 38 52c20.9 28.6 38.2 51.9 38.5 52 .3 0 3.2-7.1 6.5-15.8 3.3-8.6 13.7-35.7 23-60.1l17.1-44.5 60.8-20c33.4-11.1 60.9-20.4 60.9-20.7.1-.4-22.2-18.8-49.5-40.9l-49.8-40.3v-4c0-2.3.7-4.8 1.6-5.8 2.1-2.3 2.1-6.4.1-8.7-1.2-1.3-1.6-4.6-1.7-15.2-.1-7.4-.4-32-.7-54.6l-.5-41.1-5.7 3.7c-18 11.9-49.4 32.1-49.5 31.8-.1-.2-.8-3.7-1.4-7.8-2-12.4-11.2-69.5-13.6-84.3l-2.3-13.7h2.5c14 0 24-14.9 18.7-27.8-3.8-8.9-12.4-13.9-22.4-13-4.7.5-5 .4-5.5-2.1-.8-3.7-8.1-48.1-10.6-64.1-1.2-7.4-4.1-25.9-6.6-41-10.1-62.3-10.4-64.1-22.9-141.5-2.5-15.4-5.2-32-6-36.9-.9-4.9-1.4-9-1.3-9 11.6-6.3 17.8-16.4 17.8-28.9 0-14.7-10.4-27.7-24.1-30.2-3.5-.7-3.5-.7-4.7-7.8-.6-4-3.2-19.6-5.7-34.8s-4.5-28.4-4.5-29.2c0-1.2 1.4-1.5 6.8-1.4 8.5.2 15.7-2.3 22.3-7.5 2.8-2.2 5.2-3.8 5.4-3.6.2.1 4.1 6.3 8.7 13.6l8.4 13.3-2.5 5.2c-2.1 4.2-2.6 6.6-2.6 13.2 0 10 2.6 16.2 9.3 22.8 7.1 6.9 12.3 9.2 20.9 9.2h7.1l18.8 29.5c10.4 16.2 29 45.5 41.5 65 66.2 103.9 82.9 130.2 82.9 130.6 0 .3-1-.1-2.2-.8-1.3-.7-5.9-1.2-10.3-1.2-14.9-.1-20.4 5.4-20.5 20.5 0 9.9 2.6 15.3 9.1 18.6 11.3 5.8 25.2 2.1 30.7-8.2.8-1.7 1.8-5.6 2.1-8.8l.6-5.7 18.7 29.2 18.6 29.3-2.8 3c-3.4 3.7-6 8.7-6 11.6 0 3.5 4.8 10.7 9.2 13.9 5.3 3.8 9.5 4.6 14.3 2.6 2.1-.9 4.2-1.3 4.5-.9.4.5 8.1 12.5 17.2 26.8s30.1 47.4 46.8 73.5 39.8 62.3 51.3 80.5c59.4 93.1 98.4 154.4 111.9 175.5 8.2 12.9 20.8 32.7 27.9 43.9 7.2 11.2 12.9 20.4 12.7 20.6-.2.1-5.9 1.4-12.8 2.8s-28.7 6-48.4 10.2c-19.8 4.1-36.1 7.7-36.4 8-.2.2 26.1 27.2 58.5 60l58.9 59.6-1.2 11.7c-2.8 26.9-7.4 70-7.9 73.6-.5 3.7-3.5 32.2-5.5 52.6-1.4 13.5-2 18.8-2.6 24.3l-.6 4.9 75.1-37.7 75.1-37.7 10.3 4.5c5.6 2.5 39.9 17.8 76.2 34.1 43 19.2 66.1 29.1 66.3 28.2.1-.7-2-16.3-4.8-34.7-8.6-57.2-15.9-104.9-17.9-117.4-1.6-9.8-1.7-12.3-.7-13.5 2.6-3.1 105-116.6 108.3-120.1l3.4-3.6-34.3-5.6c-18.9-3.1-53.9-8.8-77.8-12.7s-46-7.6-49-8.3l-5.5-1.2-5.1-9c-2.8-5-12.8-22.5-22.4-39-16.6-28.9-50.7-88.1-53.9-93.7-.9-1.6-1.8-2.8-2.1-2.8-.5 0-17 31.7-33 63.2l-6.4 12.7-2.7-3.2c-1.4-1.8-11.3-14-21.9-27.2-10.7-13.2-26.6-33-35.5-44-8.8-11-24.4-30.4-34.6-43-10.2-12.7-31.8-39.4-48-59.5s-36.5-45.3-45.1-56c-16.7-20.8-22.8-28.3-100.3-124.5-27.5-34.1-58.4-72.5-68.8-85.4l-18.8-23.4 5.2-2.6c7.3-3.6 9.9-8.6 9.9-19 0-14.7-6.2-21.1-20.5-21.1-8.4 0-14.8 2.7-18.1 7.7l-2.1 3.2-15.4-19c-8.5-10.5-15.5-19.5-15.7-20-.2-.4.8-2.3 2.2-4.2 8.1-10.6 7.6-21.8-1.5-32.2-8.7-9.8-20.7-11.9-30.2-5.3-1.6 1.1-3 1.9-3.1 1.7-.2-.2-6.7-8.2-14.4-17.8l-14-17.3 1.5-3.7c2.5-5.8 1.3-16.6-2.4-23.2-5.4-9.7-17-15.9-27.2-14.5l-4.7.6-15-18.7c-14.6-18.1-15.1-19-15.7-24.4-.9-7.8-3.1-13.5-7.1-18.3-3.7-4.6-11.2-9.1-16.7-10.1-3.3-.6-5.5-3-23.1-24.8-10.6-13.3-21.5-27.5-24.2-31.5-2.6-4-5.6-7.7-6.6-8.2-1.1-.6-5.5-5.5-9.9-10.9l-8-9.9 2.7-.7c5-1.2 25.7-4.5 28.7-4.5 2.3 0 3.9 1.1 7.1 4.8 14.9 17.3 42.6 15.8 54.6-2.9l3.3-5 12.5.6c21.9 1 34.9 2.2 61 5.5 5.7.7 9.3 1.7 11 3.1 1.4 1.1 5.2 3.3 8.5 4.9 7 3.5 15.6 4 23.9 1.4 5-1.5 5.4-1.5 23.6 2.6 10.2 2.2 23.5 5.3 29.5 6.8l11 2.7-7.5.5c-13.3 1.1-21.4 6.7-24.5 17.2-4.5 15.3 1.8 30.8 14.5 35.3 5.3 1.9 14.8 2.2 20.6.6 13.2-3.6 20.2-17.3 17-33.2-2-9.3-8.8-17.1-16.3-18.5-1.9-.4-3.2-.9-2.9-1.2.3-.2 9.3 1.9 20.1 4.9l19.6 5.3 194 185.4c106.7 102.1 193.6 185.8 193.2 186.2s-8.4 4.4-17.8 8.8c-31.2 14.7-50.5 24.1-50.5 24.6s8.9 6.1 53 33.1c29.4 18 56 34.4 56.7 34.9 0 0 2.4 17.6 5.2 38.9 7.2 54 11.9 87.8 12.4 88.3.2.2 22.3-18.4 49.2-41.3l48.9-41.7 11.5 2c6.4 1.2 34.6 6.3 62.8 11.4 28.2 5.2 51.5 9.1 51.9 8.7.4-.3-8.1-21.9-18.9-47.9s-21.7-52.6-24.3-59.1l-4.8-11.8 1.9-3.7c1.1-2 4.2-7.7 6.9-12.7 2.6-4.9 14.3-26.6 25.8-48 11.6-21.5 22.4-41.4 24-44.4l3.1-5.3-5.9.6c-3.3.3-9.3.8-13.4 1.1s-9.5.8-12 1-8.3.7-13 1-13.9 1-20.5 1.5c-6.6.6-14.9 1.2-18.5 1.5-3.6.2-12.3.9-19.5 1.5-7.1.6-16.2 1.2-20.1 1.3l-7 .2-44.3-46.3c-24.4-25.4-44.5-46.1-44.7-45.9-.3.3-4.9 18.8-13.4 54.4-2 8.3-2.4 9.1-3.9 8-.9-.6-9.9-7.5-20-15.2-27.5-21.1-69.9-53.5-115.1-88-38.4-29.3-93.9-71.7-120.7-92.2-8.5-6.5-12.3-10-12.3-11.4 0-7-9.6-14.9-18-14.9-3.7 0-5.5-1-16.1-9.1-11.6-9-13.7-11-8.8-9 1.3.6 13.7 5.5 27.4 11 40.4 16 76.9 31.5 116.5 49.6 6.9 3.1 13.5 6.1 14.8 6.6 1.6.6-.2-2.4-6.4-10.4-16.2-20.9-50.4-66.9-50.4-67.8 0-.5 1-1.5 2.3-2.4 1.3-.8 3.3-3.2 4.5-5.3 6.1-11 2.4-24.1-8.5-29.6-4.5-2.2-13.7-2-19.2.4-2.4 1.1-4.5 1.9-4.6 1.8-1.7-2.1-21.6-31.5-25.7-37.8-4.9-7.8-5.4-8.9-5-13.2.9-10.6-6.8-22.5-16.1-25l-4.4-1.1-14-23.6c-17.9-30-25.8-44.4-39.2-71.1-10-20.1-26.1-55.5-26.1-57.6 0-.5 3.6-1 8-1.1 17.6-.4 26.9-9.1 27.8-25.8.7-13.8-3.4-22.8-12.9-28-4.9-2.7-6.2-3-14.9-3s-10 .3-14.9 3c-3 1.6-6.3 4.2-7.4 5.7l-2.1 2.8-1.8-5.7c-.9-3.2-2.5-9-3.4-13l-1.7-7.2 6.9-15.2c5.2-11.6 6.5-15.4 5.5-15.7-.8-.3-5.5-2.6-10.5-5.1l-9.1-4.6-.6-6.5c-1.2-12.1-.9-39.5.5-51 4.4-35.2 16-66.4 34.5-92.7 4-5.6 5.7-7.3 8.3-7.8 13.3-2.9 27.1-17.5 28.6-30.2.4-3.4 1.1-4.8 3.1-6.1 11.1-6.8 16.3-10.8 17.8-13.4 1-1.7 6.3-6.1 11.7-9.9l9.9-6.9 5.6 5.2c25.8 24 27.7 26.1 28.4 31 1.9 13.7 11.7 23.5 25.4 25.4 5 .6 5.7 1.1 14.6 10.3 10.7 11.1 27.3 31.6 32.2 39.9 1.8 3.1 4.8 7.1 6.7 8.9 4.2 4.1 15.7 9.3 20.4 9.3 8.6 0 20.9-4.5 49.1-17.8 11.9-5.7 25.2-11 36.3-14.7 34.2-11.1 37.5-13.2 62.1-38.2 33.6-34.3 55.5-61.6 73.5-91.5 15.4-25.6 28.6-58.2 33.4-82.4l2.2-11.1 6.2-1.1c63-11 165.2-26.5 209.1-31.7 7.8-1 16.7-2.4 17.1-2.8.2-.2-3.3-1.8-7.9-3.7-10.1-4.1-45.1-19.4-65.2-28.5-8.2-3.7-27.8-13-43.4-20.7l-28.3-13.9 3.3-1.7c9.5-4.8 10.5-18.7 1.7-24.2-4.8-3.1-12.8-2.4-16.8 1.5-3.5 3.4-5.4 8.6-4.6 12.6l.6 2.9-3.3-1.6c-13.2-6.8-47.7-27.5-64.9-39-72.6-48.6-111.9-96.3-118.3-143.6-.6-4.7-.6-4.7 3.2-6.3 8.4-3.5 12.3-10.1 12.3-21 0-8.6-2.2-13.9-7.5-18.3l-3.9-3.1 2.9-7.3c19.4-50.1 71.1-102.8 157.5-160.8 17.6-11.8 21.4-14 22.2-12.7 5.8 10.5 15.6 12.2 22.8 4.1 3.9-4.5 4.1-10.4.6-15.7l-2.5-3.6 15.7-9.4c39.7-23.9 83.3-48.1 132.7-73.7 8.8-4.6 16.2-8.4 16.4-8.6.7-.6-2.1-1.2-22.4-4.4-40.1-6.4-135.6-24.7-138.7-26.6-.5-.3-.6-1.4-.3-2.4.8-2.6-1.9-8.6-4.8-10.5-1.4-.9-4.5-1.6-6.8-1.7-3.7 0-4.8.5-7.5 3.4-1.7 1.9-3.3 4.1-3.6 4.8-.9 2.7-72.9-16.7-120.3-32.5-17-5.7-32.6-11-34.6-11.9-3.2-1.3-4.7-3.4-12.8-18.2-36.8-66.8-76.5-110.8-131.6-145.9-6.6-4.2-13-8.9-14.3-10.6-3.1-3.8-10.3-8-15.6-9-3.1-.6-51.7-23.3-54.5-25.5-.2-.2 1.3-2.2 3.2-4.5 9-10.4 7.8-22.3-3.3-32.2-7.2-6.5-11.3-8.2-18.7-8l-6.1.2-.5-5.7c-.8-9.7.1-62.3 1.2-70.2 2.3-15.5 1.5-14 7.4-14 7.7 0 14.9-3.8 18.5-9.8 3.6-6.3 3.9-17.4.4-23.9-2.3-4.5-7.7-8.7-12.4-9.8-1.6-.4-2.8-1-2.8-1.4 0-4.4 15-51.9 24-76.1 9.8-26.1 27-66.2 29.4-68.6 1-1.1 318.9-107.4 321-107.4.5 0 .6 7.3.2 17.2-.3 9.5-.9 24.5-1.2 33.3s-.7 18.4-.9 21.2c-.2 2.9-.2 5.3-.1 5.3.3 0 13.5-7.8 76.1-44.8 15.4-9.1 29.8-17.5 32-18.7l4-2.2 59.8 22c32.8 12.1 60 21.7 60.3 21.4s-1.7-10.6-4.5-22.9c-20.5-90.5-23-102.3-21.7-103.8 6.2-7.3 77.4-98.7 77.5-99.5.1-.9-9.5-2-42.9-4.9-4.1-.4-9.1-.9-11-1.1s-6.4-.7-10-1-8.5-.8-11-1c-9.4-1-36.8-3.6-44.4-4.2s-7.9-.7-10.6-4.4c-1.5-2.1-17.8-26.3-36.1-53.8-18.4-27.4-33.7-49.6-34-49.3-.3.4-5.4 11.9-11.3 25.7-6 13.7-16.7 38.5-23.8 55-7.1 16.4-13.6 31.6-14.4 33.6l-1.5 3.6-60.7 17.3c-33.4 9.4-61.3 17.6-62.1 18-.9.5 5.8 7 22.8 22 13.2 11.7 24.1 21.6 24.1 21.9s-11.1 5.7-24.7 12c-13.7 6.3-34.9 16.1-47.3 21.9-12.4 5.7-23.8 11-25.5 11.8-1.6.7-23.4 10.8-48.4 22.3-43.5 20.1-45.5 20.9-48.1 19.6-4.3-2.2-8.3-.7-9.4 3.7-.9 3.4-1.6 4-11.9 8.8-6 2.8-11.1 4.9-11.2 4.8-.4-.4 20.6-36.7 36.1-62.5 7.4-12.2 13.4-22.4 13.4-22.8 0-.3-.4-.3-1 0-3.8 2.4-109.6 37.5-156.5 52-31 9.6-112.5 32.5-115.5 32.5-.4 0-.4-3.9-.2-8.8.3-7.7.1-9.2-2-13.1-3.1-5.8-8.1-8.4-17-8.9-7.3-.5-12.2.8-16.4 4-8.5 6.8-8.5 25.9.1 32.6 3.2 2.6 3.8 2.3-11.5 5.7-47.1 10.5-75.5 15.7-126.5 23-1.6.2-9.9 1.1-18.3 2.1-13.9 1.5-15.5 1.5-17 0-7.2-6.4-21.9-7.9-31.5-3.2-3.1 1.5-6.5 3.8-7.6 5.2-1.8 2.3-2.6 2.5-8.2 2.2l-6.3-.3 179.4-200c98.7-110 210.7-234.9 248.8-277.5 38.2-42.6 71.1-79.2 73.2-81.4l3.7-3.8 3.1 5.3c1.6 3 10.5 20 19.7 37.9 25.4 49.3 23.7 46.2 25 44.2.7-.9 18-31.2 38.5-67.2 20.6-36 38.9-68.1 40.7-71.2 4-6.8-5-4.6 71.3-17.3 31.6-5.3 66.1-11.1 76.7-12.8 10.5-1.8 19.4-3.5 19.8-3.8.3-.4-24.7-28.4-55.6-62.4l-56.2-61.7 2.6-17.6c7.1-47.9 16-107.4 18.2-121.7 3.3-21.6 3.9-26.5 3.2-26.5-.6 0-13.2 5.6-48.2 21.5-14.7 6.6-23.6 10.6-55.5 25-10.7 4.9-25.8 11.7-33.4 15.2-7.7 3.4-14.6 6.3-15.3 6.3s-34.6-16.7-75.3-37c-40.7-20.4-74.2-37-74.5-37s-.5.3-.5.7m89 110.3 50.1 25 29.2-13.1c62.5-28.3 73-32.9 73.4-32.6.3.4-1.5 13.4-9.2 64.7-2.5 16.8-5.1 34.1-5.7 38.6l-1.1 8.1 37.6 41.4c20.7 22.7 37.3 41.6 36.9 42-.4.3-24.5 4.6-53.7 9.4-29.1 4.8-53.9 9.1-55 9.6-1.3.4-11.7 17.7-28.9 47.8-14.8 25.9-27.4 47.8-28 48.6-.9 1.1-6.5-9.1-26.6-48.1-16.7-32.4-26.2-49.9-27.5-50.5-1.1-.4-25.2-5.6-53.5-11.4s-52.5-10.9-53.7-11.3c-2-.6 2.1-5.1 37.3-40.9l39.5-40.2-5.6-51.3c-3.1-28.2-5.9-53.4-6.2-56.1-.3-2.6-.2-4.7.1-4.7s23.1 11.3 50.6 25M484 233.7c.1 5.4 14.9 109.6 15.7 110.4.5.5 22.1 13.9 47.9 29.8 25.8 15.8 46.7 29.2 46.6 29.7-.2.5-22.7 11.6-50 24.7-27.4 13.1-50 24.1-50.4 24.5s-6.6 25.2-13.8 55.1c-7.2 30-13.2 54.6-13.4 54.8-.1.2-17.9-18.1-39.5-40.7l-39.3-41-6.1.6c-11.4 1-106.2 8.2-106.4 8-.1-.1 11.8-22.6 26.6-50l26.9-49.9-4.3-10.1c-19.3-46.3-38.7-93.8-38.3-94.1.2-.3 25.3 4 55.7 9.6l55.2 10 8.2-7c4.5-3.8 23.7-20.2 42.7-36.5 19-16.2 34.8-29.5 35.3-29.5.4-.1.7.7.7 1.6m3567.5 553.1 24 35.7 42 3.9c23.1 2.1 42.4 4.2 42.8 4.6.5.4-11.1 16-25.7 34.6-16.2 20.7-26.4 34.4-26.1 35.4 1.1 3.6 18.5 82.3 18.3 82.6-.2.1-15.6-5.3-34.3-12.2s-37-13.5-40.6-14.8l-6.5-2.4-37 21.9-36.9 21.8-.3-6.4c-.2-3.5.4-22.9 1.2-43.2 1.5-35.8 1.5-36.8-.3-38.3-5.1-4.1-63.1-55.5-63.1-56 0-.3 18.3-5.7 40.6-12s41.2-11.9 41.9-12.5c.7-.5 8.9-18.4 18.1-39.8 9.1-21.3 16.9-38.7 17.3-38.7.3 0 11.4 16.1 24.6 35.8M494 866.2c9.5 21.1 17.7 38.8 18.4 39.4.6.6 19.6 5.9 42.1 11.9 22.6 5.9 41.1 10.9 41.2 10.9.2.2-47.8 43.9-59.9 54.7l-4.1 3.7 2.3 42.6c1.2 23.5 2 42.9 1.8 43.2-.4.4-26.4-14.2-64.8-36.3-6.1-3.5-10.1-5.2-11.5-4.9-1.1.3-19.3 7.2-40.5 15.5-21.2 8.2-38.6 14.8-38.7 14.7s3.8-19.2 8.6-42.4l8.7-42.3-27.3-33.7-27.3-33.7 41.9-4.6c23.1-2.6 42.6-4.9 43.4-5.2.7-.3 11.7-16.5 24.3-36.1 12.6-19.5 23.2-35.6 23.5-35.6s8.4 17.2 17.9 38.2m3125.7 587.3c11.8 2.8 36 16.2 55 30.3 41.5 31.1 73.5 71.4 101.8 128.2 11.1 22.4 13.5 28.7 13.5 35.2-.1 12.3-5.7 21.4-26.5 42.8-20.4 21-76.3 88.3-132.4 159.5-39.1 49.5-85.1 109.7-85.1 111.3 0 .5 5.5 4.2 12.3 8.3 57.4 34.2 128.2 92.4 209.2 171.9 13.2 13 30.3 28.9 38 35.5 18.4 15.6 37.3 34.5 42 41.9 5.7 8.9 6.6 13 6.1 27-1.4 38.3-18.2 76.9-51.4 118.1-5.3 6.6-17.5 19.9-27 29.7-15.6 15.9-18.3 18.2-27 23.1-24.1 13.5-45.7 19.4-55.5 15.4-1.8-.8-11.5-9.8-21.7-20.2-66-66.9-146.5-136.5-250.9-216.9-1.1-.9-1.2.2-.7 6.4.3 4.1 1 15.1 1.6 24.5.6 9.3 1.2 19.5 1.5 22.5.5 5.4 2 28.9 3 46.5.3 4.9.8 11.5 1 14.5.7 8.3 3.7 55.8 3.8 61.2.1 4.1-.3 5.2-3.3 8.3-7.1 7.3-32 17.8-66.2 27.9-43.6 12.9-81.3 18.8-115.8 18.1-27.1-.5-45.6-4.4-62.4-13.3-9.4-4.9-20-15.5-24.8-24.7-6.3-12.2-7.1-16.2-9.3-50.5-.3-4.7-.8-11.4-1-15-1.2-17.3-1.5-21.1-2-29.5-.3-5-.8-11.5-1-14.5-.6-8.4-1.4-18.7-2-27.3-2.1-31.8-6.9-92.7-10-129.2-3.3-38.2-10.6-115.4-13-137.5-.3-2.5-1.8-17.3-3.5-33-3.9-36.6-6-56.1-7.5-68.5-.3-2.2-1.9-15.5-3.6-29.5-10.4-87.6-25.5-197.7-30.5-223-2.1-10.3-2.7-16.7-2.8-27-.1-13.4-.1-13.6 3.2-20.2 5.7-11.5 15.4-18.2 41.6-28.3 40-15.4 84.2-24.5 168.1-34.5 9.4-1.1 24.7-3 34-4.2 23.3-3 24.6-3 26.3.5 6.1 12.6 18 81.4 32.7 189.2 1.9 14.3 3.9 28.2 4.3 31l.7 5 7-11c50.5-79.5 107.5-155.5 173-230.5 9.3-10.7 20-23.1 23.7-27.5 9.4-11.3 14.9-16.4 19.4-18 5-1.8 6.5-1.8 14.1 0m-688.6 54.1c31.5 2.8 66.9 12.4 85.3 23.2 8.3 4.9 15 11.9 16.5 17.4 1 3.4 1 5.9.1 10.9-3.9 22.2-22.7 126.5-26.5 147.4-2 10.4-4.2 22.6-5 27s-2.6 13.8-3.9 21c-1.4 7.1-4.8 25.4-7.6 40.5-27.2 146.3-58.6 299.1-80.5 391.5-16.8 71.2-36 137.4-45.5 157.1-6.4 13.3-16.6 21.1-35.8 27.3-10.1 3.3-65.8 14.8-88.2 18.2-19.7 3-53.6 3.3-65.3.6-10.9-2.6-20.1-7.5-27.8-14.9-12.6-12.1-19.5-22.9-62.6-97.8-13.7-23.8-34.9-61.3-58.8-104-5.4-9.6-13.9-24.9-19-34-16.6-29.5-30.4-54.2-37.3-66.7-3.6-6.7-6.7-12.1-6.8-12-.3.3-3.2 30.6-5.9 61.2-1.4 15.9-2.7 30.6-3 32.5-.2 1.9-.7 6.9-1 11-1.7 20.4-10 99.8-12 114.5-.2 1.6-1.4 10.4-2.6 19.5-6.6 50.7-15.8 104.9-19.6 115-2.9 7.9-8.6 15.1-14.4 18-7.3 3.8-16.2 4.6-28.5 2.6-34.6-5.5-79.4-13.1-103.4-17.5-15.1-2.8-31.3-5.8-36-6.7-33.7-6.2-59.7-17.1-68.1-28.6-6.1-8.5-7.3-13.7-7.3-30.8 0-11.4.6-18.5 2.2-27 4.3-23.4 5.2-28.7 6.2-39.5.6-6.1 1.3-12.8 1.5-15 .5-5.2 1.2-11.5 3-30.5 2.8-30.2 3.5-37.7 5-52.5 2.2-22.3 4.4-45.3 5-51 1-9.1 1.4-13.6 6-60 2.5-25.3 4.8-47.8 5-50 .3-2.2.9-8.5 1.5-14 1.3-13.4 4.9-48 5.5-53 .3-2.2 2.1-18.4 4-36s3.7-33.1 4-34.5c.2-1.4.7-5.2 1-8.5s1-9.6 1.6-14c.5-4.4 1.2-9.7 1.4-11.8.3-2 .7-5.4 1-7.5 5-40.4 13.7-103 19.1-137.4 5-32.2 10.7-55.7 15.5-64.9 13.6-25.5 55.5-48.7 114.5-63.3 7.7-1.9 15.5-3.7 17.4-4.1s13.6-3.1 26-6.1c24.6-5.8 34.4-7.4 43.4-6.7 6.5.4 13.2 2.9 15.7 5.9.9 1 11.3 17.6 23.1 36.9 36.2 59.2 70.6 115.2 80.6 131.5 5.2 8.5 15.8 25.7 23.4 38.2 7.6 12.6 20.2 33.3 27.9 46 7.8 12.8 22.5 37 32.7 53.8 39.3 64.9 36.5 60.6 37.4 57.9.9-3.1 13.4-76.2 21.7-127.4 5.2-32.5 16.4-106.5 19.1-127 .5-3.9 2.3-17.1 4-29.5s5.1-39.2 7.5-59.5c5.9-48.4 8.2-57.2 17.8-66.8 7.8-7.9 24.1-12.9 45.7-14.1 5.8-.4 14.6-.9 19.5-1.2 38-2.4 82.6-2.8 104.6-.8m-1104.6 67c68 6.8 118.1 29.2 161.1 71.9 51.7 51.3 87 124 101.8 209.7 6.3 35.9 9.1 76.2 8.1 114-.3 13.5-.8 25.7-1 27s-.6 6.3-1 11.3c-.3 4.9-1.5 15.3-2.6 23-14.7 104.6-63.1 208.5-135.7 291.5-11.1 12.6-37.1 38.8-50.2 50.4-65.5 58.1-140.7 97.6-217.9 114.2-18.6 4-45.6 8-60.6 8.9-5.5.4-10.6.8-11.4 1.1-2.9.9-54.2.5-64.6-.6-89.4-8.9-171.9-59.5-235-144.1-26.9-35.9-45.8-75.6-57-119.9-23.4-91.6-12.9-191.9 31.2-299 8.5-20.6 30.1-64 40.9-82 66.4-111.1 157.7-193.6 265.1-239.6 50.6-21.6 108.8-35.4 160.7-38.1 6.6-.3 12.3-.8 12.6-1 .6-.6 47.9.5 55.5 1.3M834 1631.5c4.7.3 10.1.8 12 1s6 .7 9 1c8.5 1 32.6 5.4 41.5 7.6 23.9 6.1 53 17.5 70 27.4 49.9 29.2 82.3 78.5 94 143 5.2 28.8 5.7 55.2 1.9 90-1 8.6-6.3 34.5-9.5 46-4.6 16.4-12.3 36.3-19.9 51.6l-6.8 13.6 10.8 3.1c28.6 8.3 55 23.8 77.8 45.6 43 41.3 69.6 100 76.8 169.1 2.2 20.9 1.5 53.8-1.6 73.8-7 46.5-23.1 84.8-49.7 118.6-10 12.6-37 39.5-50.8 50.4-38.9 31-89.7 58.4-154 83-47.2 18-105.2 36.7-159 51.2-11.5 3.1-35.3 9.7-52.7 14.6-76 21.4-104.7 26.5-146.7 25.7-18.1-.3-21.1-.6-24.6-2.3-3.3-1.7-4.3-2.9-5.6-7-2.5-7.6-2.9-11.8-3.4-40-.2-14.3-.7-28.7-1-32-.2-3.3-1.8-20.4-3.4-38-1.7-17.6-3.9-42.1-5.1-54.5-1.1-12.4-2.2-24.5-2.5-27s-2.5-26.8-5-54c-2.4-27.2-5.1-56.9-6-66-1.9-20.6-2.1-22.5-4.5-49.5-1.1-12.1-2.2-24.3-2.5-27-.7-7-3.1-33.8-5.5-61.5-1.1-12.9-2.3-25.5-2.5-28-.3-2.5-1.4-15.1-2.5-28s-2.2-25.8-2.5-28.5c-1.7-18.2-2.6-28.8-3.1-34-.2-3.3-.7-8-.9-10.5-.3-2.5-1.2-12.6-2-22.5-1.5-17.9-2.1-24.5-3-34-.3-2.8-1.4-15.8-2.5-29-1.9-22.8-2.5-30.3-3.5-40.5-2.4-26-7.4-90.9-8-103-1.9-44.1-4.3-62.7-10.6-81.1-2.2-6.5-7.5-17.8-11-23.6l-2-3.2 3.3-1.5c73.9-32.1 129.1-52.2 184.4-67 51.7-14 105.5-22.8 143.4-23.5 5.7-.1 10.6-.4 10.8-.6.5-.5 26.4.2 38.2 1m2176.5 1363.2c1.4 2.1 2.5 4.2 2.5 4.8s-1.7 1.7-3.7 2.5c-2.1.8-4.1 1.6-4.4 1.8-.4.2-1-2.3-1.4-5.4-.5-4.3-.3-5.9.7-6.5 2.4-1.5 3.7-1 6.3 2.8m834.5 330.9 30.3 31.6 5.1-.6c2.8-.3 8.9-.8 13.6-1.2 4.7-.3 21.6-1.6 37.5-2.9 16-1.2 29.2-2.1 29.4-1.9s-8.7 17.2-19.8 37.8c-11 20.6-20.1 38-20.1 38.7s7.2 18.8 16.1 40.2c8.8 21.4 15.8 39.1 15.5 39.4s-8.1-.8-17.3-2.5-28.2-5.2-42-7.7l-25.3-4.7-15.2 13c-8.4 7.2-23.2 19.8-32.8 28s-17.8 14.7-18.1 14.3c-.4-.3-3-18.2-5.8-39.6-2.9-21.5-5.4-40.4-5.7-42.2-.5-2.5-1.7-3.9-5.3-6.1-2.5-1.7-18.8-11.7-36.1-22.3-17.4-10.7-31.8-19.7-32-20.2-.3-.4 16.8-9 37.9-19.2 21.1-10.1 38.7-18.9 39.1-19.5.3-.5 5.1-19.7 10.6-42.5 5.4-22.8 9.9-41.5 10-41.5s13.7 14.2 30.4 31.6M3162.6 3762c18.4 15 33.4 27.3 33.2 27.5s-18.3 6.2-40.3 13.5-40.5 13.7-41.1 14.4c-.6.6-7.8 18.6-15.9 39.9-8.2 21.3-15.2 39-15.5 39.2-.4.2-12-15.1-25.9-34-13.8-19-25.3-34.5-25.4-34.6-.1 0-19.2-1.1-42.5-2.4-23.3-1.2-42.5-2.5-42.8-2.8-.4-.3 10.5-16 24.2-34.9 15-20.8 24.7-35.1 24.6-36.3-.1-1.1-5.1-20-11.1-42-5.9-22-10.7-40.1-10.6-40.2.1-.2 4.2 1 9.1 2.6 31.7 10.5 71.6 23.1 72.7 23.1.7 0 17.4-10.5 37.2-23.4l36-23.4.3 43.3.2 43.3zm-2843-19.3 27.2 48.7 55.1 9.7c30.3 5.3 55.3 9.8 55.5 10 .3.2-16.6 18.8-37.5 41.4-26.2 28.4-37.8 41.7-37.9 43.3 0 1.2 3.4 26.3 7.5 55.8 4.2 29.5 7.5 53.8 7.3 53.9-.2.2-21.2-9.3-46.8-21.1-25.6-11.9-48.6-22.4-51.1-23.5l-4.6-2-50.3 24.5c-27.7 13.5-50.5 24.4-50.7 24.2s2.6-25.4 6.2-56l6.6-55.6-38.8-40c-21.3-22.1-38.9-40.4-39-40.8-.2-.4 24.6-5.7 54.9-11.7l55.2-11 26.5-49.8c14.5-27.3 26.6-49.5 26.9-49.2s12.8 22.5 27.8 49.2m586.9 8.3c13 13.5 26.5 27.3 29.9 30.6l6.1 6.1 14-1.2c7.7-.7 24.8-2.3 38-3.4 13.2-1.2 26.4-2.4 29.4-2.7l5.4-.6-6.8 12.8c-27.2 52.1-33.5 64.2-33.5 64.7 0 .3 7.2 17.6 16.1 38.4s16.4 38.7 16.7 39.7c.4 1.7.1 1.8-2.9 1.3-1.9-.3-21.1-3.6-42.6-7.3l-39.3-6.6-8.2 7c-4.6 3.9-19.3 16.7-32.8 28.5s-24.6 21.3-24.8 21.2c-.2-.2-4.7-30.3-10.6-70.9l-2.1-14.9-36.5-21.8c-20.1-12.1-36.5-22.3-36.5-22.9 0-.5 17.2-9.5 38.1-19.9l38.1-18.9 2.2-8.8c3-12.9 17.1-74.3 17.1-75 0-1.5 3.3 1.7 25.5 24.6m2829.4 87.5c14.9 25.8 27.7 47.4 28.4 48.1.6.6 25.5 5.1 55.2 9.9s54.3 9.1 54.8 9.5c.6.5-13.4 16.4-67 75.7l-7.4 8.2 8.4 55.3c4.7 30.4 8.3 55.5 8.1 55.7-.1.2-23-9.8-50.8-22.3-27.8-12.4-51.1-22.6-51.7-22.6s-23.6 11.3-51 25c-45.1 22.6-49.9 24.8-49.9 22.8.1-1.3 2.7-26.5 5.8-56l5.8-53.7-39.8-40.5c-37.7-38.3-39.7-40.5-37.1-41 1.6-.3 26.4-5.5 55.2-11.6 30.1-6.3 52.8-11.5 53.3-12.2.4-.7 12.1-23.3 25.9-50.1 13.8-26.9 25.5-48.5 26-48 .4.4 13 21.9 27.8 47.8"/><path d="M1704.5 1884.4c-32.4 6.2-56.7 19.4-81.5 44.5-35.7 35.9-61.4 84.6-69.6 131.4-3.1 17.9-1.3 46.9 4.1 65.1 10.7 36.7 40.5 65.3 78.2 75.3 12.4 3.2 34.5 4.1 46.3 1.8 47.1-9.2 86.6-47.4 108.3-104.5 8.3-21.6 14.5-50.2 16.6-75.5 1.2-14.8.5-41.6-1.4-56.4-5.6-42.8-26-70.7-58.7-80.2-9.3-2.7-31.8-3.5-42.3-1.5M753.2 1867.7c-1.4 2.3-1.7 5.4-1.8 20.3-.2 17.4.3 25.7 3.1 52.8.8 7.8 1.5 14.9 1.5 15.7 0 1.2.8 1.1 4.6-.5 15.8-6.8 29.6-18.6 33.3-28.5 2.9-7.8 3.1-24.3.3-33.2-5.1-16.3-17.7-26.9-34-28.7-4.8-.5-5.3-.3-7 2.1M801 2227c-9.3 1.1-15.3 5.6-16.5 12.4-1.2 6-.7 25.8 1 44.1.2 2.2.7 8.9 1 15 .3 6 .7 13.5 1 16.5.2 3 .7 10.2 1 16 .5 10.2 1.5 22.3 1.8 22.7.5.4 23.3-7 29.7-9.7 25.7-10.9 42.4-27.6 48.6-48.5 2.5-8.5 2.3-24.8-.4-33.2-6.6-20.5-24.1-32.8-49.7-34.8-4.4-.4-8.9-.8-10-.9s-4.5.1-7.5.4M2196.4 133.4c-3.7 4.9-7.4 11.3-7.4 12.8 0 3 4 5.8 8.5 5.8 5.2 0 8.5-2.3 8.5-5.9 0-3.7-8.2-14.5-9.6-12.7M1781.3 139c-1.8 2.7-3.3 5.8-3.3 6.8 0 4.3 7.2 6.8 12.1 4.2 3.3-1.8 2.5-6.8-1.9-11.8l-3.7-4.2zM1916.7 138.8c-2 2.2-2.2 8.1-.4 10.6.7.9 3.1 2 5.4 2.3 3.5.5 4.5.2 6.7-2 3.4-3.4 3.3-4.9-.5-9.2-3.6-4-8.4-4.8-11.2-1.7M2055.2 139.5c-2.7 2.2-2.9 2.9-2.2 6 1.1 4.8 2.7 6.5 6.2 6.5 3.2 0 7.5-3.8 8.4-7.7 1.7-6.5-6.6-9.7-12.4-4.8M2329.7 138.2c-5 3.7.4 14.3 6.6 13.2 5.2-.9 6.7-2.2 6.7-5.8 0-5.9-8.8-10.8-13.3-7.4M2468.1 141.2l-4.2 3.3 3.3 2.7c1.8 1.5 4.3 2.8 5.6 2.8 3 0 6.2-3.4 6.2-6.8 0-6-4.5-6.8-10.9-2M1645.6 142.1c-2.6 2-2.6 2.1-.9 5 2.1 3.5 2.3 3.5 5.3.4 2.2-2.3 2.2-2.5.6-5-2-3-1.7-3-5-.4M2605.1 143l-4.5 2.9 2.8 1.1c7 2.6 12.1.2 9.1-4.4-1-1.4-2-2.6-2.4-2.6-.3 0-2.6 1.3-5 3M2124.7 200c-2.1.4-4.8 1.6-5.9 2.7-2.3 2.4-3.9 8.7-3.2 12.9 1.4 8.4 4.9 11.4 13.4 11.4 9.4 0 14-4.5 14-13.7 0-10.4-6.7-15.3-18.3-13.3M1847.4 201.9c-9.2 5.6-9.9 16-1.5 22 4.5 3.2 8.2 3.6 13.5 1.3 7.9-3.5 10.7-11.2 6.6-18-4.1-6.7-12.4-9.1-18.6-5.3M1982.9 201.5c-1.4.8-3.2 2.9-4 4.7-1.7 4-1.7 11.5 0 14.6 4.5 8.4 21.1 8.2 24.6-.2 3-7 1.3-15.5-3.7-19-2.8-2-13.3-2.1-16.9-.1M2259.5 201c-4 1.6-6.8 5.8-7.3 10.8-.8 9.1 4.8 15.2 14.1 15.2 8.9 0 14.7-5.4 14.7-13.8 0-5.7-2.1-9.6-6.4-11.6-3.6-1.7-11.7-2-15.1-.6M2398.4 201.4c-6.6 2.9-9.4 11.8-5.9 18.6 2.2 4.2 8.7 7.3 13.3 6.5 12.7-2.2 15.3-19.4 3.9-24.8-4.2-2-7.1-2.1-11.3-.3M1710.5 202.9c-3.8 2.3-7 9-6.1 12.7.9 3.5 6.5 9.1 10 10 1.4.3 4 .1 5.6-.6 4-1.7 9-7.5 9-10.5 0-4.3-9.8-13.5-14.2-13.5-.7 0-2.7.8-4.3 1.9M2534.5 204.2c-2 1.8-3.9 4.7-4.4 6.5-2 7.1 6.6 16.4 13.8 14.8 3.2-.7 10-7 10.2-9.4.4-4.5-2.1-8.1-8.3-12.4-5.3-3.5-7.1-3.4-11.3.5M1572.7 207.8c-2.4 2.6-2.2 8.7.3 11.2 4.3 4.3 13 1.5 13-4.1 0-6.6-9.3-11.5-13.3-7.1M2674.6 208.1c-3 2.4-3.5 7.2-1 10.7 4.7 6.7 16.5-3.5 11.9-10.4-2-3.1-7.2-3.2-10.9-.3M1438.3 210.2c-2.9 1.4-2.9 2 0 5.3l2.3 2.7 2.4-2c2.3-1.9 2.4-2 .7-4.6-1.9-2.9-2.2-2.9-5.4-1.4M2812.1 210.7l-2.2 1.8 3.1 3c3.2 3.1 5.1 2.9 7.4-.8 2.6-4.2-4.1-7.4-8.3-4M2057.4 264c-7.5 1.6-14.7 8.5-15.9 15.2-1.4 7.2 3.1 13.9 13.4 20.3l4.4 2.7 4.1-2.3c9.4-5.1 15.1-11.1 15.9-16.5 1.4-9.7-11.9-21.5-21.9-19.4M2193.7 264.4c-8.2 2.4-14 9.6-14 17.3 0 8.6 9.9 19.5 17.7 19.5 7.2 0 19.6-11.9 19.6-18.8 0-1.9-.6-4.7-1.4-6.3-2.1-3.9-10-10.9-13.3-11.6-1.5-.4-3.2-.8-3.8-.9-.5-.2-2.7.2-4.8.8M1914.9 266.7c-6.9 3.6-9.9 7.9-9.9 14.5q0 11.85 12.9 17.7l4.5 1.9 4-2c6.7-3.4 10.4-6.7 12.5-11.1 1.7-3.6 1.9-4.9 1-8.7-1.3-5.9-5.2-10.8-10.3-13.1-5.6-2.5-8.3-2.4-14.7.8M2328 266.2c-2.8 1.5-5.8 4.3-7.8 7.4-4.4 6.4-4.1 11.8.9 17.1 4.2 4.4 11.7 9.3 14.2 9.3 2.6 0 9.6-4.3 13.6-8.4 9-9.2 1.9-25.3-11.9-27.2-3.6-.4-5.4-.1-9 1.8M1777.5 267.4c-5.9 2.6-9.2 9.6-8.1 17.2 1.2 8.7 6 12.4 16.1 12.4 10.2 0 14.7-4.5 14.8-15 0-7-2.4-11.8-7.3-14.2-4.1-2.1-11.3-2.3-15.5-.4M2464.4 267.4c-3.8 1.7-7.4 8.6-7.4 14.2 0 2.1 1.1 6.3 2.5 9.1l2.4 5.3h22.8l1.7-4.3c4.2-10.4 2.6-18.6-4.4-23.5-3.9-2.6-12.5-3-17.6-.8M1643.8 268c-2 .4-4.8 1.4-6.2 2.3-5.4 3.6-5.7 16.3-.6 22 2.4 2.7 3.5 3.1 9.1 3.4 7.1.4 10.1-.7 13.1-4.8 4.1-5.5 3.1-17.4-1.8-20.5-3.2-2.2-8.9-3.1-13.6-2.4M2606.8 268c-8.7 1.5-13.2 11.4-9.4 20.5 2.3 5.4 6.8 7.7 14.5 7.2 5.6-.3 6.7-.7 9.1-3.4 5.2-5.8 4.8-16.6-.8-21.7-2.6-2.3-8.4-3.4-13.4-2.6M1505 270.7c-4.1 2.1-8 7.5-8 11.1 0 5.4 7.6 13.2 12.9 13.2 5.9 0 12.3-6.6 12.5-12.9.2-9-9.6-15.4-17.4-11.4M2743 270.9c-4.2 2.2-8 7.4-8 11 0 5.7 7.3 13.1 13 13.1 6.3 0 13.8-9 12.5-15-.9-4-4.2-8-8.1-9.6-4.3-1.8-5.2-1.8-9.4.5M1366.8 275.7c-2.4 2.8-2.8 6.3-1.3 9.9 1 2.5 2.1 3.4 4.7 3.9 7.2 1.4 11.4-3.2 8.8-9.6-2.3-5.6-9-7.8-12.2-4.2M2880.5 276.4c-3 3-2.6 6.2 1.7 12.3l3 4.5 2.9-3.4c5.7-6.7 6.3-12.9 1.3-14.8-4-1.6-6.3-1.2-8.9 1.4M1989.5 329.6c-.5.1-2.7.5-4.8.9-8.8 1.5-14.3 10.6-13.5 22.5.9 12.7 7.2 18.4 20.3 18.5 12.3 0 19.9-6.5 20.9-18 .8-10.1-2.9-17.7-10.4-21.5-3.3-1.6-10.3-3-12.5-2.4M2126.5 329.6c-.5.1-2.7.5-4.7.9-7.9 1.3-13.7 9.6-13.8 19.5 0 8.1 1.5 12.3 6 16.3 4.7 4.3 10.6 6.1 18.1 5.4 10.3-.9 15.2-5.3 17.1-15.4 2.1-11.4-2.6-22.7-10.5-25.2-3.4-1.1-10.6-2-12.2-1.5M2262 330.1c-5.7 1-8.4 2.5-11.7 6.2-8.2 9.3-5.6 27 4.7 32.7 6.4 3.6 16.6 3.6 23 0 6.5-3.7 9.4-9.4 9.4-18.5 0-4.5-.6-8.1-1.7-10.1-2.4-4.7-8.2-9.2-12.4-9.9-6.7-1.1-7.7-1.1-11.3-.4M1710.3 332.1c-5.5 2.7-11.9 9.8-13.2 14.6-1.8 6.8 2.3 15.6 9.7 20.7 7.6 5.2 14 4.7 20.9-1.7 10.2-9.4 10.9-18.3 2.2-28.2-3.4-3.9-9.8-7.4-13.4-7.5-1.1 0-3.9.9-6.2 2.1M1845.5 331.7c-15.8 8.2-16.6 28.9-1.6 37.2 12.6 6.9 28.9-1.4 30.8-15.7 1.1-8.4-4.1-17.7-12.2-21.3-4.9-2.3-13-2.4-17-.2M2394.9 332.3c-6.2 3.3-10.1 9.2-10.7 16.2-1.7 20.2 21.1 30.7 34.7 16 7.2-7.8 7.9-17.6 1.8-25.8-6.3-8.3-17-11-25.8-6.4M2537.6 331.5c-4.7 1.6-11 7.6-13.8 12.9-2.6 5.1-1.9 10.5 1.9 16 7 10 17 12.9 25.1 7.3 9-6.3 12.5-16.3 8.4-24.3-2.5-5-9.2-11.1-12.9-12-1.6-.3-3.3-.7-3.8-.9-.6-.1-2.8.3-4.9 1M1570 336.2c-5 3.4-7.2 7.1-7.8 12.7-1.5 15.7 15.7 24.6 27.9 14.4 7-5.9 8.2-15.2 2.7-22.3-5.4-7-16.2-9.2-22.8-4.8M2671.5 335.4c-6.7 2.5-7.3 4.1-7.2 16.4l.2 10.7 4 1.9c5.6 2.8 13.5 3.2 19 1.1 7.4-2.8 7.7-3.3 7.4-15.7l-.2-11-4.6-2c-6.2-2.6-13.6-3.2-18.6-1.4M1433.3 337.5c-4.3 1.9-6.7 6.7-6.6 13.7.1 9.6 4.5 14.1 14.1 14.1 9.8.1 15.2-5 15.2-14.2 0-9.5-5.4-15.1-14.5-15.1-2.7.1-6.4.7-8.2 1.5M2809.2 337.7c-4.9 2.4-6.5 6.3-6 14.4.3 5.4.8 7.3 2.7 9.2 3.9 4.2 12.3 5.2 19.4 2.2 4.3-1.8 6.5-13.9 3.8-20.7-2.3-6.1-12.6-8.7-19.9-5.1M1300.5 340.6c-4.4 2.3-7.4 6.4-7.5 10.3 0 2.6.9 4.2 3.9 7.2 3.8 3.9 7.4 4.9 11.5 3.3 1.6-.6 8.6-9.8 8.6-11.3 0-1.8-9.7-11.1-11.6-11.1-1 0-3.2.7-4.9 1.6M2950 341.3c-1.9 1.2-4.2 3.6-5.2 5.3-1.7 3-1.7 3.1.5 7.5 2.8 5.6 8.2 8.8 12.3 7.4 1.6-.6 4.5-3.2 6.5-5.9l3.7-4.9-3.5-4.9c-5.4-7.4-8.6-8.5-14.3-4.5M1163.2 346.6l-3.2 3.8 2.7 2.8c3.2 3.3 4.4 3.5 6.8.8 2-2.2 1.5-5.2-1.3-8.9l-1.9-2.3zM3088.5 348.4c-1.8 2.7-1.2 4.8 2.3 7.9 1.9 1.8 2 1.7 4.2-1.8 2.1-3.3 2.1-3.7.6-6-2.1-3.2-5.1-3.2-7.1-.1M2051.3 397.6c-14.3 5.2-19 25.2-8.8 37.1 10.1 11.9 31.9 9.6 38.3-3.9 5.6-11.6 2-25.3-8.2-31.3-5.6-3.3-15.2-4.2-21.3-1.9M2191.2 397c-12.8 3-20.2 19.7-14.3 32.5 3.8 8.5 11 12.9 20.7 12.9 13.7-.1 23.4-9.7 23.4-23.1 0-15.6-14-26.1-29.8-22.3M1780.9 398.1c-11.6 1.7-17.2 8.9-17.2 21.9.1 13.8 7.5 21 21.5 21 13.8-.1 21.8-8.1 21.8-22 0-2.5-.5-6.2-1.1-8.3-1.1-4.2-6-10.3-8.9-11.2-4.4-1.4-11.8-2-16.1-1.4M1912.5 398.8c-4.7 2.2-10.1 8-11.2 12-.5 1.5-.8 5.6-.8 9.2 0 12.5 7.6 20.8 19.9 21.7 14.6 1.2 24.5-7.6 24.6-21.8 0-14.2-7.2-21.8-21.4-22.6-5.5-.3-8 .1-11.1 1.5M2324.4 399.5c-7.7 3.8-11.4 10.2-11.4 19.4 0 7.4 1.9 12.2 6.4 16.7 8.3 8.3 22.2 8.7 31.3.9 9.4-8 9.8-24.1.8-33-6.8-6.8-18.1-8.5-27.1-4M2467.1 398.1c-10.5 2-16.3 10.8-15.4 23.4.6 7.3 1.9 10.8 5.6 14.2 4.1 3.8 8.4 5.3 15.9 5.3 14.1 0 20.7-7.1 20.8-22 0-10.1-2.6-15.6-9-18.7-5.2-2.5-11.6-3.3-17.9-2.2M1640.7 399c-8.5 1.6-13.7 9.1-13.7 19.6 0 14.2 6.8 21.4 20.5 21.4 15 0 23.3-10.5 20.1-25.7-2.7-13.1-11.8-18.3-26.9-15.3M2602.7 399.4c-8.2 3-12.7 10.2-12.7 20.1 0 13.2 7.4 20.5 20.5 20.5 10.4 0 17.5-4.8 20.1-13.8 3-10.1-.6-20.7-8.2-24.9-5.3-3-14.6-3.8-19.7-1.9M1503.5 400.7c-7.6 4-13.8 12.5-13.7 18.9 0 5 1.9 8.9 6.4 13 5.3 5.1 9.4 6.7 15.4 6.2 6.3-.5 11.1-3.5 14.8-9.2 5.2-8 4.4-15.6-2.5-23.1-6.7-7.2-13.9-9.3-20.4-5.8M1364.1 405.8c-5.6 2.8-7.6 6.4-7.6 13.7 0 6.9 1.5 9.9 6.9 13.9 3.9 2.9 14.3 2.9 18.3 0 3.9-2.9 6.3-8.1 6.3-13.7 0-10.3-5.1-15.7-15-15.7-3.3 0-6.9.7-8.9 1.8M2873.6 406.2c-5 15.7-4.2 22.9 3.1 27.1 3.7 2.1 13.2 2.6 17.5.9 6.7-2.8 9.3-15.9 4.7-24.2l-2.4-4.5-11.3-.3c-8.5-.2-11.3.1-11.6 1M1228.2 408c-4.9 3-7.4 7.6-6.8 12.7.7 5.6 2.3 8.1 6.8 10.4 4.7 2.4 9.4 2.4 13.5-.1 4.5-2.7 6.6-6.4 6.6-11.5 0-10.4-11.2-16.9-20.1-11.5M3016.6 407.9c-9 6-8.6 19 .8 23.5 4.2 2 6.7 2 11 .2 7-2.9 10.2-10.7 7-17.3-3.7-7.4-12.6-10.5-18.8-6.4M3156.4 413.7c-3 5.3-3.4 10.1-.8 12 3.7 2.7 8.5 1 11-3.8 1.4-2.8 1.4-3.3-.2-5.7-2.1-3.5-5.5-7.2-6.5-7.2-.4 0-1.9 2.1-3.5 4.7M1091.6 413.6c-1 .9-1.6 3.3-1.6 5.9 0 5.6 1.9 7.5 7.4 7.5 7.7 0 10.2-6.5 4.7-12.1-3.3-3.3-8-3.9-10.5-1.3M1850.3 462c-7.6 1.7-16.9 9.5-21 17.9-6.9 13.9 7.5 34.1 24.5 34.3 13.2.1 26.4-13 26.4-26.3 0-13.6-17.3-28.5-29.9-25.9M1983.3 463.1c-10.5 4.1-18.7 15.3-18.6 25.4.1 13.1 13.9 26.5 27.3 26.5 8.4 0 19-7.3 23.4-16.2 6.1-12.2.8-27-12.3-34.1-6.8-3.8-13.2-4.3-19.8-1.6M2121.7 462.4c-11.3 4.2-19.7 15.1-19.7 25.7 0 8.6 7 19.8 15.4 24.2 5.8 3 17.4 3.1 23.1 0 13.1-7 18.8-21.7 13.1-33.8-2.4-5.3-9.2-12.2-14.6-15-4.5-2.3-12.7-2.8-17.3-1.1M2261 461.9c-11.1 3.6-20.9 15.6-21 25.7 0 9.1 6.8 20.2 15 24.4 13 6.6 28.8 1 35.1-12.4 6.6-14 1.3-28.2-13.2-35.6-4.5-2.4-12.1-3.4-15.9-2.1M2399.9 462.4c-10.6 2.7-20.8 13.4-22.2 23.2-.9 6.7 4.3 17.7 10.8 23.2 9.3 7.6 24.9 6.6 33.7-2.2 10.4-10.3 10.2-25.4-.5-36.4-7-7.3-14-9.7-21.8-7.8M1710.6 463.7c-5.8 1.7-14.5 9.9-17.1 15.9-6.2 14.7 6.4 33.5 22.4 33.4 12-.1 26.1-13.4 26.1-24.8 0-4.8-4.1-12.1-9.9-17.5-7.9-7.4-13.9-9.3-21.5-7M2531.3 466c-5.7 3.3-11.5 10.1-13.4 15.7-1.4 4.3-.7 12.9 1.4 16.9 4.7 9 15.6 15.2 24.8 14.1 11.5-1.4 22.9-13.5 22.9-24.2 0-5.8-1.9-9.4-8.4-16.3-9.3-9.9-17.6-11.8-27.3-6.2M1570.8 467.6c-5.8 1.8-11.3 7-12.7 12.1-4.6 16.6 5 31.3 20.4 31.3 20.1 0 30.8-25.2 16.3-38.7-5.4-5.1-15.9-7.1-24-4.7M1430.5 469.9c-4.9 2.2-7.3 4.8-9.1 9.8-3.6 10.1.1 22.9 7.7 26.8 4.7 2.5 11.9 3.4 17.3 2.4 10-1.9 15.7-9.3 15.7-20.6q0-13.35-9-18c-5.7-3-16.6-3.2-22.6-.4M2806.5 469.4c-7.1 3.1-11.2 11.9-10.1 21.4.7 6.3 2.3 9.7 6.3 13.4 3.8 3.6 7.6 4.9 14.4 4.9 13.4.1 22-9.9 20.6-24-1.2-11.1-8.6-17.1-21.3-17.1-3.8.1-8.3.7-9.9 1.4M1295.9 471.9c-5.1 3.2-10.5 9.9-11.4 14.2-1.4 6.3 8.2 18.6 16.3 20.9 4.7 1.2 10.5-1.3 16.1-7q11.7-12 0-24c-7.3-7.5-13.7-8.8-21-4.1M2950.1 470.1c-8 3.2-15.9 13.9-14.6 19.8.9 4.1 5.7 10.5 10.7 14.1 7.8 5.7 16.7 2.9 24-7.5 4.9-6.9 4.3-12.5-2.2-19.9-5.7-6.4-12.2-8.8-17.9-6.5M1158 475.8c-4.9 2.4-6.1 5.4-5.8 13.5.5 9 3.1 11.9 11.5 12.5 11.8.8 17.1-4.4 16-15.6-.7-6.2-2.7-9.9-6.3-11.2-4-1.6-11.6-1.2-15.4.8M3084 475.8c-5 2.4-7.3 7.3-6.6 14.2.4 4.5 1 6 3.5 8.2 5.1 4.6 16.1 5 21.4.8 4.9-3.9 5.9-13.9 2.1-19.8-3.3-5-13.8-6.8-20.4-3.4M1024.4 481.2c-6.5 8.8-4.8 14.8 4.3 14.8 5.5 0 8.8-2.9 7.9-7.1-.5-2.9-6.6-12.8-7.8-12.9-.3 0-2.3 2.3-4.4 5.2M3224.1 481.7c-3.3 2.8-3.7 7.5-.9 10.7 2.7 3.1 7.4 4.7 10.5 3.5 4-1.5 5-10.4 1.6-14.1-2.1-2.3-8.4-2.3-11.2-.1M1643.3 531.1c-12.4 2.2-22.3 13.7-22.3 26 0 9.6 7.6 20.8 16.8 24.6 4.8 2 14.7 2 19.4 0 5.6-2.4 12.3-9.1 14.8-14.9 2.7-6.4 2.4-15.1-.8-21.4-2.1-4-8.1-10.2-12.2-12.4-3.3-1.7-11-2.7-15.7-1.9M1775 531.8c-9.5 3.6-18 15.6-18 25.3 0 9.9 6.9 19.8 17.1 24.4 5.4 2.4 7.1 2.7 12.9 2.3 15.8-1.2 26.7-13.4 25.4-28.6-1.2-14.8-11-24.2-25.8-24.8-5-.3-8.4.1-11.6 1.4M1912.9 531.3c-11.9 4.4-17.9 13.1-17.9 25.7 0 7.6 2.4 14.1 6.9 18.8 5.2 5.4 10.3 7.5 18.8 8 9.8.6 16.3-1.7 22.3-7.7 12.7-12.7 9.7-33.6-5.9-42.4-4.4-2.5-6.7-3.1-13-3.4-4.8-.2-9 .2-11.2 1M2048.7 531.4c-5.7 2.1-10.3 6.1-12.8 11.3-2 4-2.4 6.3-2.4 14.3s.4 10.3 2.4 14.3c4.1 8.4 12.5 12.9 24.2 13 9 .1 14.7-2 20.1-7.4s7.2-10.3 7.1-19.9c0-8.5-1.5-13.6-5.5-18.4-4.8-5.9-11.6-8.6-21.3-8.5-4.4 0-9.7.6-11.8 1.3M2186.4 531.6c-5.7 2-11.5 7.2-14.3 13-3 5.9-3.4 17.6-.9 23.5 4.2 9.8 14 15.9 25.6 16.1 15.1.3 25.4-7.4 28.2-20.9 3-14.1-3.8-27.5-16.1-31.8-5.2-1.9-17.1-1.8-22.5.1M2324.5 531.5c-18.9 7-22.8 35.1-6.7 47.2 5.6 4.2 11.1 5.6 19.7 5.1 11.2-.8 19.6-6.3 23.9-15.8 2.4-5.3 2.7-14.5.7-20.4-1.7-4.9-8.3-12.1-13.6-14.9-5.2-2.7-18.2-3.3-24-1.2M2463.2 531.9c-11.1 3.8-17.8 14.6-16.9 27.1.2 3.6 1.2 8.1 2.2 10 8.3 16.5 31 20.1 43.7 7 10.4-10.8 10.4-27.5-.2-38-7.6-7.7-17.9-9.9-28.8-6.1M1503 533.3c-5 1.6-14.3 11.2-16.2 16.7-2.9 8.7-.6 16.8 6.9 24.4 10.5 10.6 23.3 10 33.8-1.6 10-11.1 9.3-23.2-1.8-33.6-7.5-6.8-14.2-8.6-22.7-5.9M1362.7 537.4c-7.8 2.9-11.6 9.2-11.7 19.2 0 7.7 1.4 12 5.3 16.2 3.8 3.9 8 5.2 17.1 5.2 13.7 0 19.6-5.5 20.4-19 .6-9.9-1.7-15.6-7.9-19.7-3.6-2.4-5.4-2.8-11.8-3.1-4.7-.1-9.1.3-11.4 1.2M2874.2 538.1c-7.1 3.6-10.1 9.8-9.7 20 .5 13.7 6.9 19.8 20.6 19.9 15.2 0 21.2-5.8 21.3-20.5.1-9.7-1.9-14.5-7.7-18.3-3.4-2.3-5.4-2.7-12.1-3-6.7-.2-8.8.1-12.4 1.9M1226.5 538.9c-15.7 7.2-15.2 29.9.7 36.6 8.6 3.6 18.7.5 24.3-7.4 2.6-3.7 3-5.1 3-11.1s-.4-7.4-3-11.1c-5.7-8.1-16.2-11.1-25-7M3016 538.5c-12.7 5.7-16.3 21-7.4 31.4 9 10.4 23.1 8.8 31.9-3.8 5.9-8.3 3.1-18.2-7.2-25.5-5.1-3.5-12.1-4.4-17.3-2.1M1088.5 543.6c-2.1.8-4.2 1.9-4.5 2.4-.4.6-.7 5.7-.9 11.5-.2 12.2-.5 11.9 11.7 13.7 6.8.9 8.3.8 11.4-.6 5.9-2.8 8.6-13.1 5.7-21.5-2.2-6.3-13.7-9-23.4-5.5M3156.5 542.8c-5.5.8-6.7 1.5-8.5 4.5-1.4 2.3-2 5-2 9.4 0 11.6 2.1 13.5 15.5 13.6 9.3.1 12.1-1.1 13.3-5.6 1.4-5.1-.7-17.5-3.3-19.7-1.4-1.1-12-2.7-15-2.2M3291.5 550c-3.3 3.9-6 7.3-6 7.7 0 .5 2.6 3.2 5.7 6.2l5.7 5.3 8.1-5.3 8.1-5.3-7.8-7.8-7.8-7.8s-2.7 3.2-6 7M954.5 549.1c-5.6 5.2-6.5 8.9-3.3 13.3 4.3 6.1 9 10.9 9.6 10 .4-.6 2.2-3.1 4-5.7 5.2-7.4 6.3-10.6 4.7-14.3-1.5-3.6-6-7.4-8.7-7.4-1 0-3.8 1.8-6.3 4.1M1981.7 597.4c-7.5 2.1-12.7 6.3-16.2 13.1-2.7 5.2-3 6.8-3 14.9 0 10.7 1.4 15.4 6.3 20.8 6.2 6.9 10.1 8.3 22.7 8.3 9.3 0 11.6-.3 15-2.1 5.5-3 9.4-7 11.9-12.4 3-6.4 3-21.5 0-28-2.6-5.7-7.7-10.8-13-13.2-5.6-2.4-17.6-3.2-23.7-1.4M2116.6 598c-6.3 2.5-11.9 7.9-14.8 14.4-3.2 7.1-3.1 19.9.1 27.1 4 9 9.6 13.2 20.5 15.5 18.8 3.9 34.9-7.4 36.4-25.5 1.1-13.8-4.1-24.8-14-29.8-7.7-4-20.8-4.8-28.2-1.7M2256.8 597.3c-7.7 2.2-12.4 6.2-16 13.4-2.8 5.6-3.1 7.3-3.1 15.1 0 13.1 4.3 21.4 13.8 26.5 3.4 1.9 5.6 2.2 15 2.2 12.7 0 16.5-1.4 22.8-8.4 4.5-5 6.1-10.5 6-20.6-.1-13.5-4.3-21.4-13.9-26.1-6.6-3.2-17.3-4.1-24.6-2.1M1710.5 598.1c-6.3 1.1-9.2 2.6-14 7-7.7 7.1-10.4 19-7 30.5 1.9 6.4 6.5 11.8 12.9 15.2 4.4 2.3 6.3 2.7 13.6 2.7s9.3-.4 14.2-2.8c12-5.9 17.3-20.7 12.5-35.2-4.3-12.9-17.4-19.9-32.2-17.4M1840.5 599.3c-6.2 3-12 9.3-13.7 14.9-.7 2.4-1.2 8.1-1.3 12.8 0 7.7.3 9 3.1 14 7.1 12.7 22.5 17 38.8 11 10.1-3.8 14.8-12 14.9-25.9 0-13.1-4.4-21.4-13.8-26.4-3-1.6-6.3-2.2-13.5-2.4-8.4-.4-10.1-.1-14.5 2M2392.6 598.6c-8.9 3.2-14.5 10.7-16.6 22.2-3.5 19.6 11.6 35.9 31.2 33.8 7.6-.8 12.4-2.9 17.1-7.4 5.8-5.6 8-10.5 8.5-19.3 1.1-19.1-10.1-31-29.1-30.8-4 0-9 .7-11.1 1.5M1572.3 598.9c-10.9 2.8-19.4 12.5-20.9 23.8-2 15.6 11.7 30.7 27.7 30.5 23.2-.2 35.6-28 20.5-45.9-5.5-6.5-18.8-10.6-27.3-8.4M1434.1 601c-13.7 4.6-21.9 17.8-18.7 30.1 3.6 13.8 17.9 23.6 30.2 20.9 6.2-1.4 10.4-4 15.3-9.6 9.6-10.9 9.1-24.4-1.2-34.7-7.3-7.3-16.7-9.8-25.6-6.7M2813 600c-8.6 1.6-16.2 8-20.6 17.4-4.2 9-2.4 16.4 6.1 25.5 8.8 9.4 18.4 11.7 28.1 6.8 5.4-2.8 11.8-8.7 14-13 5.5-10.5-.2-27.8-11-33.4-4.6-2.4-12.6-4-16.6-3.3M1293.5 604.9c-11.2 5.2-16.2 19.9-10.6 31.5 4.7 9.7 17.1 13.9 29.9 10.1 8.2-2.5 11.6-7.5 12.7-19 .9-9.6-4.5-19.9-12.2-23.1-4.7-2-15-1.7-19.8.5M2945 604.6c-8.4 3.6-13.4 11.5-13.4 21.4 0 11.4 5.7 18.5 16.8 21 10.9 2.4 21.2-1.3 25.4-9 2.1-4 2.3-5.5 2-13.2-.4-7.8-.8-9.3-3.4-13-4-5.9-10.1-8.8-17.9-8.8-3.3.1-7.6.8-9.5 1.6M1157.5 606.4c-7.3 3.2-11.6 10.4-11.6 19.5-.1 7.2 1.8 11.7 6.4 15.8 4.2 3.7 8.4 4.7 16.6 4.1 11.9-.8 18.7-9 17.9-21.3-.5-7.9-4.1-13.7-10.7-17.2-5.1-2.6-13.7-3.1-18.6-.9M3083.5 606.9c-17 7.9-16.3 32.4 1.1 38.1 2 .7 6.3 1 9.5.8 10.2-.7 17.5-7.9 18.6-18.2 1.8-15.3-15.1-27.2-29.2-20.7M1022.5 611.4c-8.7 2.7-8.5 2.3-8.5 15v11.4l4.7 1.6c6.3 2.2 14.8 2 20.1-.4l4.2-1.9v-22.2l-4.3-1.9c-5.7-2.6-11.3-3.1-16.2-1.6M3223.8 611.4c-6.3 1.7-7.4 2.8-8.8 8.7-3.9 16.1 5.9 24.4 22.8 19.4l5.2-1.6v-23l-4.2-1.8c-6.2-2.7-9.7-3-15-1.7M882.9 617.9c-5.2 5.2-5.4 10.3-.7 15.7 4.1 4.7 7.1 5.8 10.6 4 3.7-1.9 8.9-7.5 10.1-10.9 2.2-5.7-4.5-12.7-12.3-12.7-3.1 0-4.5.7-7.7 3.9M3358 620.1l-6.2 5.1 3.4 3.5c5 5.4 10.8 9.3 13.6 9.3 1.5 0 3.9-1.5 6.3-3.9 4.7-4.7 4.9-7.4.9-12.9-5.7-7.9-9.5-8.2-18-1.1M2051.5 662.5c-9.7 3.6-20.3 14.8-23.1 24.3-4.2 14.1 5.6 32.7 20.2 38.2 14.8 5.6 29.2.9 38.4-12.6 9.3-13.4 7.9-27.2-3.9-39.7-9.5-10-21.6-13.9-31.6-10.2M2189.9 662.3c-9.8 3.7-20.4 14.1-23.9 23.4-3.9 10.3-.6 21.6 9 31.3 14.6 14.5 32.4 14.1 46.5-1.2 9.6-10.3 11.8-22 6.5-33.3-3.1-6.4-12.1-15.4-18.5-18.5-5.9-2.9-14.5-3.6-19.6-1.7M1913.8 663.5c-9.2 3.4-17.4 11.3-21.6 20.3-6.4 14 2 32.2 18.6 40.4 11.9 5.9 23.3 3.4 34-7.3 6.5-6.5 9.5-12.7 10-20.6.6-8.8-1.8-15.1-8.3-22.1-7.3-7.9-13.9-11.4-22.4-11.8-4.1-.3-8 .2-10.3 1.1M2325 664.2c-7.7 2.9-18.1 13.5-20.5 20.8-3.7 11.1-1.2 21.5 7.3 30.3 15.1 15.8 32.4 16 46.7.5 13.1-14.1 12.5-30.1-1.6-43.9-9.6-9.5-20.4-12.1-31.9-7.7M1773.2 665.8c-10.3 3.7-16.1 10.9-18.3 22.8-2 10.8 1.3 21.6 8.8 28.5 6.6 6 12.3 8.2 21.5 8.3 6.6 0 8.5-.5 14.1-3.3 13.8-6.7 19.9-21.9 15.2-37.8-1.8-6.1-8.9-14.4-14.9-17.5-5.9-3.1-19.2-3.5-26.4-1M1635.6 666.6c-10.3 3.7-15.7 12.3-16.4 26.1-.9 17.8 5.7 27.4 20.7 30.1 11 2 22.9-.4 28.4-5.6 5.2-4.9 7-9.8 7.5-20.4.4-7.7.1-10.7-1.4-15-2.4-6.8-8.5-13-14.9-15.1-6-2.1-18.5-2.1-23.9-.1M1500.7 667.4c-8.6 3.1-15.5 10.4-17.8 19-2.5 9.2.6 22.2 6.8 28.8 8.1 8.6 26.2 9.8 37.1 2.4 15.2-10.2 15.3-35.6.2-46.1-7.8-5.4-18.1-7-26.3-4.1M1362.3 669.5c-5.8 3-12.2 9.3-15.3 15.5-6.1 12 1.2 28.1 15.7 34.7 4.6 2.1 6.6 2.5 11.2 2 9.7-.8 17.8-6.1 22.3-14.4 5.7-10.6 4.4-21.1-3.9-30.3-8.8-9.8-19.8-12.5-30-7.5M2875.2 669.6c-13.8 6.9-20 23.3-13.6 36.1 3 6.1 8.9 11.8 15.2 14.5 11.4 5.1 27.6-2.1 33.3-14.6 2.8-6.3 2.6-15.9-.7-22.4-6.9-13.9-21.7-19.8-34.2-13.6M1228.3 671.3c-13.8 5.3-21.5 19.6-16.6 30.9 4.1 9.2 14.2 16.8 22.4 16.8 9 0 19-6.5 23.3-15.2s3.1-15.8-4.1-23.8c-2.5-2.8-6.3-6-8.5-7.1-4.9-2.5-12.3-3.2-16.5-1.6M3016.1 672c-6.4 2.1-11.6 6.9-14.7 13.5-4.2 8.8-2.3 18.7 5.1 26 9.8 9.8 24.4 9.5 34.2-.7 10.7-11.1 7.5-29.6-6.3-37-6.6-3.4-11.9-4-18.3-1.8M1087.5 675.9c-12.3 5.6-15.5 24.2-5.8 34.3 6.9 7.3 21.9 7.6 29.8.7 10.3-9.1 8.1-29.5-3.8-35-5.5-2.4-14.8-2.5-20.2 0M3150 676.7c-7 3.6-10.1 9.1-10.1 18-.1 10 4.9 17.3 13.5 19.8 8.9 2.7 15.5 1.4 21.7-4.2 8.1-7.4 8.2-24.3.1-31.6-5.8-5.3-17.1-6.1-25.2-2M952.2 679.1c-9.1 4.6-12.6 16.3-7.2 24.1 7.6 11.2 21.4 11.2 29.1 0 5.4-7.9 1.6-20.1-7.4-24.3-5.5-2.4-9.2-2.4-14.5.2M3292 679c-5.6 2.6-7.7 4.5-10.1 9.2-2.4 4.8-2.4 7.9.1 12.8 2.5 4.8 10.7 10 16 10 10.5-.1 20.3-10.6 17.9-19.4-1.2-4.2-5.9-10.1-9.8-12.1-5-2.5-9.3-2.7-14.1-.5M1711.1 730.1c-9.2 1.8-19.1 10.2-24.3 20.6-9.8 20 5.3 44.1 28.8 46 5.2.5 7.1.1 11.7-2 7.8-3.5 15.1-10.7 18.9-18.4 6.1-12.5 3.6-24.7-7.6-35.9-8.5-8.4-18.3-12.1-27.5-10.3M1844.9 730.9c-18.2 7.1-28.9 25.3-23.9 40.8 4.1 12.6 17 23.8 29.7 25.9 4.8.7 13.8-1.6 19.2-5 5.6-3.6 13-12.1 15.8-18.3 5.3-11.5 2.4-22.4-9.1-33.9-10.8-10.7-20.9-13.7-31.7-9.5M1981 730.6c-6.6 2.4-13.4 7.7-17.3 13.7-4.6 6.9-6 11.6-5.9 19.8 0 9.2 3.6 17.1 10.8 23.9 7.7 7.3 13 9.5 22.9 9.5 10.2 0 17.1-3.1 24.4-11 7-7.7 9.4-14.6 8.9-25-.7-13-7.3-23.2-19-29.1-6.7-3.5-18-4.3-24.8-1.8M2120 729.9c-9.1 3-18.4 11.3-22.2 19.8-3.3 7.4-3.2 20 .4 27.5 3.5 7.6 9.8 14.2 16.7 17.5 4.8 2.4 6.8 2.8 14.1 2.8s9.3-.4 14.1-2.8c6.7-3.2 14.2-10.9 17.2-17.5 3.3-7.2 3.1-20.7-.4-28.2-3.2-6.7-9.6-13.3-16.4-16.8-3.9-2-6.8-2.6-13-2.8-4.4-.2-9.1 0-10.5.5M2255 731.2c-6.7 2.6-16.5 12-20 19.3-3.4 7-3.5 18.9-.1 25.8 3.7 7.5 10.4 14.2 17.9 17.9 5.8 2.8 7.7 3.3 14.2 3.3 6.3 0 8.4-.5 13.4-3 6.7-3.4 14-10.9 17.6-18.1 2.1-4.1 2.5-6.3 2.5-13.4 0-7.5-.3-9.1-3-13.8-4-7.3-13.1-15.5-20-18.1-7.2-2.7-15.3-2.6-22.5.1M1573.2 733.1c-18.6 3.6-30.4 22.7-24.7 39.9 2.5 7.4 11 15.9 19 18.9 12 4.5 26.7 1.3 34.5-7.5 7.3-8.3 9.8-20.4 6.4-31-4.3-13.8-20.6-23.2-35.2-20.3M1436.5 735.1c-9.6 1.2-18.1 7.4-21.7 15.7-2.8 6.2-2.8 19.2-.1 25.2 2.7 6.1 9.7 12.3 16.3 14.5 7.6 2.5 18.2 1.7 24.3-1.8 18.2-10.7 19.9-36.4 3.2-48.5-6.4-4.7-13.4-6.3-22-5.1M1293.5 737.6c-5.8 2.1-11.2 6.8-14.3 12.8-3.5 6.7-3.8 17.7-.6 24.6 8 17.4 31 21.3 44.8 7.5 5.2-5.2 7.6-11.5 7.6-19.6 0-11-8.8-23.1-18.8-25.9-5.1-1.4-13.9-1.1-18.7.6M2944.1 737.7c-6.1 2.2-13.3 9.6-15.4 15.8-1.9 5.6-2.1 14.5-.4 19.2 5.2 13.9 20.7 21.4 34.8 16.8 3.7-1.3 6.9-3.3 10.5-6.9 14-14 9.7-36.3-8.6-44.5-5.5-2.5-14.5-2.6-20.9-.4M1161 738.9c-7.8 2.5-17.8 11.9-20 18.7-4.1 12.2 8.7 28.9 23.4 30.7 12.9 1.6 26.9-11.2 26.8-24.6 0-12.6-10.5-24.1-23-25.2-2.6-.3-5.8-.1-7.2.4M3087.3 739.1c-5.9 1.1-9.6 3.2-13.7 8.1-7.4 8.6-8.3 20.6-2.3 29.6 5.7 8.3 16 12.7 26 10.8 8.8-1.6 17.8-11.7 19.3-21.4 2.3-15.4-13.3-29.9-29.3-27.1M3220.9 743c-4.6 1.4-7.8 4.1-10 8.6-1.8 3.9-2.1 5.8-1.7 13.5.5 9.8 1.7 12.5 7.7 16.6 4.2 2.9 12.6 3.9 19.1 2.3 6.5-1.5 12.3-6.8 13.9-12.5 3.6-13.1-1.9-25.5-12.7-28.5-4.3-1.1-12.5-1.2-16.3 0M3498.2 755.4c-4.2 4.4-6.2 7.2-6.2 8.9 0 2.9 4.9 7.6 11 10.7l4 2 6-6.2c3.2-3.5 5.9-6.8 6-7.4 0-1.2-12.7-14.4-13.9-14.4-.4 0-3.6 2.9-6.9 6.4M1912.9 798.6c-10.3 3.1-20.2 12.7-23.5 22.7-1.1 3.3-1.5 7.3-1.3 12.5.7 13.7 8.9 26.2 20.9 31.4 6.7 3 20.7 2.9 27.7-.1 6.3-2.8 14.9-11.5 18.4-18.6 2-4.2 2.4-6.5 2.4-14 0-7.6-.4-9.8-2.6-14.5-7.5-15.8-26-24.4-42-19.4M2048.4 798.4c-9.2 3-16.3 9.8-21.2 20.4-6.3 13.7-.9 33.8 11.2 42.2 6.4 4.3 13.1 6.2 22.1 6.2 22.4 0 37.1-16.2 35.1-38.7-1.2-13.5-8.8-24.2-20.2-28.5-7-2.6-21.4-3.5-27-1.6M2187 798.3c-9.4 2.7-17.2 9.6-21.9 19.6-2.2 4.7-2.6 7-2.6 14.1 0 7.6.4 9.3 3.3 15.2 4.5 9.1 11.8 15.7 20.6 18.6 7.5 2.5 11.2 2.7 18.8 1.1 17.4-3.7 27-16.2 27.2-35.4.1-8.3-.2-9.6-3.2-15.7-3.6-7.4-8.7-12.4-16.1-15.9-5.7-2.7-19.3-3.5-26.1-1.6M1639.3 799.5c-5.9 1.8-12.2 5.7-16.5 10.2-13.2 13.8-12.3 33.2 2.1 46.6 14.8 13.8 32.6 13.3 46.6-1.4 6.3-6.5 9-12 10-19.5 2-15-10.1-31.7-26.1-35.9-7-1.8-10.5-1.8-16.1 0M1770.3 801c-7.3 3.7-13.4 10.1-17.2 18-2.1 4.5-2.6 6.9-2.6 13.5 0 6.9.4 8.7 2.9 13.1 6 10.9 14.7 18.1 24.9 20.8 14.1 3.7 30.5-5.1 37.9-20.2 2.8-5.7 3.3-7.7 3.3-14.2s-.5-8.5-3.3-14.2c-3.5-7.2-10.3-14.1-16.9-17.4-2.7-1.3-6.6-2-13.3-2.2-9-.3-9.8-.2-15.7 2.8M1500.9 800.8c-10.4 4.2-20.2 14.6-22.9 24-2.8 10.1 1 21.4 10 30.2 9.6 9.4 21.6 12.7 31.4 8.6 5.9-2.5 13.1-8.2 17.1-13.5q14.7-20.25-3.6-39.6c-9.4-9.9-22-13.7-32-9.7M1229.5 804.7c-8.9 1.8-15.5 6.9-19.1 14.8-3.3 7.1-3.3 18 0 25 2.8 5.9 8.6 11.8 13.9 14 5.7 2.4 15.4 2.1 21.6-.6 21-9 21.6-42 1-50.9-5-2.1-13-3.2-17.4-2.3M3015.8 805.4c-12.7 3.4-21.6 15.6-20.6 28.5.5 7.1 3.1 12.4 8.6 17.9 11.6 11.7 28.7 11.2 39.7-1 10.1-11.2 9.8-28.3-.6-38.7-6.4-6.4-17.6-9.2-27.1-6.7M3151.3 808.6c-9.7 4.8-18.2 17.6-16.8 25.2 2.1 11.4 16.5 25.3 26.2 25.2 4.8-.1 11.3-3.8 17.2-9.8 6.5-6.7 9.2-11.6 9.3-17 .1-11.1-15.2-26.2-26.7-26.2-2.4 0-6.2 1.1-9.2 2.6M813.8 818.2c-11.9 8-13.3 16.7-4.2 25.5 8.1 7.8 16.3 8 24.5.6 9-8.2 9.1-15.5.4-23.1-3.9-3.5-10.6-7.2-12.9-7.2-.8 0-4.3 1.9-7.8 4.2M3428.2 817.1c-11.2 5.6-13 19.6-3.6 27.8 7.1 6.3 16.1 6.2 22.5-.1 6-6 7.4-13 4-19.6-4.7-9.2-14-12.5-22.9-8.1M682 820.2c-3.5 1.3-5.9 3.7-8.1 8-2.6 5.2-2.4 6.4 1.7 10.1 7.1 6.3 11.2 7.2 15.8 3.6 6.5-5.1 7-12.2 1.3-17.7-4.1-3.9-7.5-5.2-10.7-4M3566.5 824.3c-4.3 4.3-5.2 7.9-3.1 12.3 1.6 3.6 6.8 7.4 9.9 7.4 5.1 0 11.7-6.7 11.7-11.8 0-3.9-2.9-8.3-6.5-9.8-5.4-2.2-8.3-1.8-12 1.9M1843.7 866.1c-9 2.1-17.4 9.2-22 18.4-3.2 6.6-3.8 9.6-3.8 17.5 0 13.4 7.4 25 19.6 31.1 18.1 8.9 40.6 1.6 49.2-16 2.5-5 2.8-6.6 2.7-15.6 0-12.2-2.4-19.3-8.7-25.8-5.2-5.3-11.3-8.3-19.7-9.6-7.6-1.3-12-1.2-17.3 0M1570 867.4c-6.1 1.6-10.8 4.6-16 10.2-12.1 13.1-12.9 30.7-2 44.3 4.1 5.3 12.5 10.8 19 12.4 14.8 3.8 31.9-4.2 38.7-18.2 2.5-5 2.8-6.7 2.7-15.1 0-10.1-1.2-14.1-6.1-21.2-6.6-9.6-24.1-15.6-36.3-12.4M1705 867.6c-15.2 4.1-23.4 15.6-23.4 32.9 0 11.9 2.4 18.6 9.4 25.7 4.9 4.8 6.8 6 13 7.9 12.6 3.8 27.5 1.4 35.8-5.7 8.1-6.9 13-22.4 11.1-34.6-1.8-11.3-10.2-21.9-20.4-25.7-6.7-2.5-17.3-2.7-25.5-.5M2946.2 871.5c-15.4 4.3-21.7 13.2-21.7 30.5 0 6.8.5 9.4 2.4 13.2 2.9 6.1 9.9 12.2 16.3 14.4 7 2.3 19.7 1.6 25.6-1.5 18.3-9.4 21.7-34.7 6.5-49.3-7.5-7.3-18.9-10.2-29.1-7.3M3083.4 874.1c-6.5 1.9-12.7 7.1-15.9 13.3-2.6 5.2-3 7-3 14 .1 7 .5 8.8 3 13.5 10.5 19.2 39.6 18.8 49.1-.6 3.7-7.5 4-18.3.8-25.4-5.6-12.1-20.7-18.7-34-14.8M881.5 881.5c-14.2 5-16.8 26.8-4.5 36.7 4.2 3.3 12.9 5.4 18.1 4.4 8.8-1.6 16-10.1 16.7-19.5 1-14.2-6.7-23.1-19.8-23.1-3.6.1-8.3.7-10.5 1.5M3357.6 881.4c-8.3 3.1-12.8 11.3-12 21.9 1.1 12.9 11.8 21.1 25.3 19.1 12.2-1.8 17.9-10.1 16.9-24.6-.6-8-3.3-12.8-8.6-15.4-4.9-2.4-16.4-2.9-21.6-1M752.5 883.6c-.5.1-2.2.5-3.7.8-3.7.8-8.5 5.1-11 9.9-2.4 4.9-2 10 1.2 15.2 5.8 9.3 15 11.7 23.2 6 5-3.6 9-10.2 9-15 0-4.1-3.2-9.7-7.5-12.9-3.1-2.4-9.2-4.5-11.2-4M3497.5 885.6c-6.7 3.4-9.5 7.9-9.5 14.9 0 8.6 5.1 15.4 13.2 17.6 7.9 2.1 17.2-4 19.9-13 3.9-13.1-11.5-25.8-23.6-19.5M3635.2 895c-3.4 2.2-6.2 4.3-6.2 4.8 0 .4 2.3 3.1 5.1 6 6.4 6.6 8.8 6.7 14.6 1 5.3-5.2 5.7-8.6 1.4-12.9-4.1-4-7.5-3.8-14.9 1.1M1910.7 933.4c-11.3 4.7-19.2 12-24.4 22.6-2.3 4.6-2.7 6.9-2.8 13.5 0 6.8.4 8.9 2.8 13.8 4.4 8.9 12.5 17 21.4 21.4 6.5 3.2 8.5 3.7 14.7 3.8 12.2 0 22.9-5.5 30.8-16 11.5-15.1 10.1-34.9-3.4-49.1-7.6-8-15.1-11.6-25.3-12.1-6.8-.3-8.9 0-13.8 2.1M1773.6 933.6c-11.3 3.6-20.4 12.6-23.7 23.6-4.4 14.3-1 29.7 8.4 39.2 10.7 10.7 25.8 14 39.9 8.6 10.4-3.9 20.5-14.3 23.8-24.3 3.8-11.7-2-31.2-11.7-39.8-6.3-5.5-13.4-8.1-23.2-8.5-5.9-.3-10.1.1-13.5 1.2M1638.3 934.4c-10.4 3.4-19.4 11.4-24.1 21.4-2.3 4.8-2.7 7.1-2.7 14.2 0 10.9 2.9 17.6 11.2 25.9 8.1 8 14.5 10.4 26.8 9.9 7.6-.3 9.8-.8 14.3-3.3 6.6-3.6 13.7-11.2 17.1-18.5 2.2-4.7 2.6-6.9 2.6-14.5-.1-10.7-2-15.7-9.7-24.1-9.2-10-24.2-14.7-35.5-11M950.3 946c-5.2 2.3-12.5 9.4-15.2 14.9-4.4 8.4-1.6 18.7 7.2 26.8 6.6 6.1 10.3 7.7 17.2 7.7 13.9 0 25.1-10.3 26.3-24.2.6-7-1.8-13-7.4-18.6-8.4-8.4-18.8-10.9-28.1-6.6M3290.8 945.3c-10.6 3.4-18.1 13.5-18.1 24.6 0 7.2 2.6 12.4 9.3 18.5 9.4 8.4 20.1 9.3 30.2 2.6 17-11.3 15.2-35.2-3.4-44.4-5.7-2.8-11.7-3.3-18-1.3M817.9 949.1c-5.2.8-9.6 2.8-12.1 5.6-6.6 7.2-6.3 22.9.4 30 9.9 10.3 30.1 7.2 35.3-5.5 3-7.1 1.3-19.4-3.3-24.5-4-4.4-12.5-6.8-20.3-5.6M681 953.6c-7 2.3-9 3.8-10 7.3-1.7 6.6-2 13.5-.7 17 2.5 7.1 14.4 10.2 23.3 6.2 3.1-1.4 4.5-2.8 5.7-6 2.2-5.4 2.2-12.7-.1-17-2.8-5.7-12.1-9.4-18.2-7.5M1019.2 1011.8c-11.4 4.1-18.4 13.7-18.5 25.5-.2 21.4 16 33.3 37.5 27.6 14.6-3.8 22.9-23.9 15.9-38.3-3-6-8.3-11.5-13.6-14.1-5.7-2.7-14.8-3-21.3-.7M881.5 1014.5c-2.2.8-6.1 3.6-8.7 6.3-7.6 7.9-9.8 19.6-5.3 28.2 6.9 13.4 23.3 19.5 34.5 12.8 9.1-5.4 15-14 15-22 0-10.3-7.2-21.5-16.2-25.3-4.6-1.9-14-1.9-19.3 0M3774.3 1032.7c-.8.3-1.3 2.4-1.3 5.3 0 3.9.4 5.2 2.2 6.4 5.3 3.7 11.8.5 11.8-5.8 0-4.7-2.2-6.6-7.3-6.5-2.3 0-4.8.3-5.4.6M1087.9 1077.3c-8.8 3.3-16.5 10.3-20.2 18.6-3.1 6.6-3 17 .2 23.1 11.4 21.8 35.1 26.8 51 10.9 6.4-6.4 9.6-13.8 9.5-21.9-.2-13.7-5.1-22.5-15.4-27.8-7.8-3.9-18.9-5.2-25.1-2.9M947.3 1082c-9.4 4.7-14.7 12.3-16 22.8-1.3 11.2 6.1 23.5 16.9 28.2 4.4 1.9 6.5 2.2 13.3 1.8 16.5-.9 25.8-10.8 25.9-27.3.1-16.3-10.2-27.3-26.4-28.2-6.9-.4-8-.2-13.7 2.7M3703.3 1094.5c-4.7 2-6.6 6.5-6.1 14.2.3 5.2.9 6.8 2.9 8.9 5 5 16.7 5 21.7.1 3.3-3.3 4.2-12.3 1.8-18-2.5-6.1-12.4-8.7-20.3-5.2M406 1104c-1.1 1.1-2 2.7-2 3.5 0 2.1 3.6 5.5 5.8 5.5.9 0 3.1-1.1 4.7-2.4l3-2.4-2.9-3.1c-3.4-3.6-5.8-3.9-8.6-1.1M3843.3 1104.4l-3.2 2.3 3.2 3.1c4 3.9 5.3 4 8.8.6l2.8-2.7-2.2-2.8c-2.5-3.5-5.1-3.6-9.4-.5M745.7 1153.4c-9.2 3.4-17.7 13.9-17.7 22 0 12 13 24.6 25.4 24.6 16.4 0 27.9-15.1 23.7-30.8-1.4-5.2-7-11.6-12.5-14.4-5.1-2.6-13.9-3.3-18.9-1.4M610.8 1156.2c-5 1.3-11.2 6.9-13.8 12.4-4 8.2-.8 17.9 8.1 24.4 7.4 5.3 14.4 5 22.7-1 8.7-6.3 11-16.9 5.6-25.6-5-8.2-14.5-12.5-22.6-10.2M3637.2 1156.4c-7.5 2.6-15.2 12.5-15.2 19.7 0 3.9 5.1 13 9.1 16.2 7.5 5.9 15.5 5.5 23.1-1.3 8-7 10-14.7 6-22.7-4.8-9.3-15-14.6-23-11.9M471.7 1163.8c-3.2 2-6.7 8.6-6.7 12.6 0 13.1 16.5 18.4 24.4 7.9 6.3-8.5-.3-22.3-10.7-22.3-2.3 0-5.5.8-7 1.8M3775.4 1163c-2.7 1.1-7.2 6.5-8 9.6-2.3 9.1 5.2 18.3 13.9 17.1 9.2-1.2 14.7-12.7 9.8-20.5-3.7-5.8-10.2-8.4-15.7-6.2M815.5 1217.9c-7.3 1.8-13.8 6.8-17.2 13.4-2.3 4.3-2.8 6.5-2.8 12.7 0 12.2 5.6 21.5 16.1 26.6 4.7 2.3 6.4 2.6 11.7 2.2 3.4-.3 8.1-1.5 10.3-2.6 5.8-3 12.8-11.1 14.4-16.7 1.7-6.1.9-16.9-1.8-22.1-5.4-10.7-18.5-16.4-30.7-13.5M676.8 1223.1c-2 .6-5.4 2.6-7.6 4.5-11.7 9.9-8.4 32.2 5.6 38.1 5.7 2.4 15.4 2 20.9-.9 7.2-3.6 10.6-9.2 11.1-17.8.6-10.9-2.8-17.9-10.7-22-4.6-2.3-14.3-3.3-19.3-1.9M540.5 1226.8c-4.7 2.9-10.3 9.7-11.6 14.1-1.7 5.7.2 11.4 5.5 16.7 8 8.1 16.4 8 25.4-.1 8.4-7.6 9.2-14.6 2.5-22.5-8.2-9.5-15.2-12.2-21.8-8.2M3703.5 1228.2c-6.2 4.1-11.5 11.7-11.5 16.5 0 9.3 9.5 18.3 19.3 18.3 8.8 0 18.6-9.6 18.7-18.1 0-7.3-10.1-18.2-18-19.5-2.9-.5-4.4 0-8.5 2.8M402.2 1236.9c-6.9 5.1-6.6 7 2.5 17.8l4.4 5.1 5.8-6.2c3.2-3.5 6.2-7.3 6.6-8.5 1.4-4.4-5.9-11.1-12.1-11.1-1.8 0-4.7 1.2-7.2 2.9M3845 1236.8c-4.7 2.4-11 6.6-11 7.3 0 .9 10.7 9.8 13.2 10.9 4.8 2.2 10.4-2.2 10.8-8.5.4-5.4 0-6.6-2.5-9-2.9-3-5.8-3.1-10.5-.7M1017.2 1282.1c-7.1 2.8-16.3 11.4-19.9 18.7-7.4 15.3 0 34 16.9 42.9 4.7 2.4 6.4 2.8 14.3 2.8 8.4 0 9.4-.2 15.3-3.4 12-6.5 18.5-16.7 18.6-29.1.1-9.8-3.1-16.6-11.4-24.3-10.1-9.4-22.1-12-33.8-7.6M879.4 1285.8c-10.1 3.6-14.2 8.1-17 19.2-3.3 13.1.7 26.5 9.9 32.7 6.1 4.1 10.4 5.3 19.3 5.3 18.3 0 28.6-10.1 28.7-28.5.1-14.5-4.2-22.7-14.1-27.3-7.6-3.4-19.4-4.1-26.8-1.4M747.1 1287.1c-4.7 1.4-10.1 5-13.9 9.3-5.3 6.1-6.6 9.4-6.7 17.1 0 5.9.5 7.8 3 12.3 5.4 9.8 13.3 14.6 24 14.6 11 0 19.3-5.2 24.1-15 5.4-11.1 3-22.8-6.6-31.8-6.9-6.5-15.6-8.8-23.9-6.5M608.9 1293c-9.4 1.7-14.2 8-14.7 19.5-.3 5.9 0 7.7 2.1 11.5 3.1 5.9 9.4 10.7 15.3 11.6 6.1.9 14.6-1.1 18.5-4.3 11.1-9.4 9.7-30.7-2.4-36.9-3.3-1.8-12.8-2.5-18.8-1.4M3635.1 1293.2c-5.4 1.2-12.5 7.9-13.4 12.7-2 10 .5 20.5 6 25 3.8 3.1 10.9 5.2 15.3 4.6 1.4-.2 4.2-.7 6.3-1 4.7-.7 10.4-5.6 12.8-11 3.6-7.9 1.7-20.9-3.7-25.7-4.8-4.2-15.6-6.4-23.3-4.6M474.4 1298c-6.9 1.5-12.4 8.5-12.4 15.8.1 7.8 7 15 15.3 15.9 5.6.6 12.4-2.9 14.9-7.7 2.3-4.4 2.3-12.4 0-17-2.8-5.7-10.3-8.6-17.8-7M3771.4 1299.6c-5.1 1.8-5.4 2.6-5.4 17.3v11.4l11.8-.6c6.4-.4 12.2-.7 12.9-.7 1.7 0 4.6-9.8 4.6-15.3-.1-5.5-2.1-9-6.6-11.7-3.8-2.4-11.3-2.5-17.3-.4M3913.1 1307.6c-3.6 5.7-3.9 8.6-1.1 11.4s5.7 2.5 9.1-.9c4-4 3.7-6.9-1-11.5l-3.9-3.9zM335.9 1308.9c-3.4 3.5-3.8 7.2-.9 10.1 2.1 2.1 4.6 2.4 9.9 1.4 3-.6 3.1-.8 3.1-6 0-4.3-.4-5.6-2.2-6.8-3.4-2.4-6.6-1.9-9.9 1.3M947.4 1351.9c-12.4 6.3-21.4 19.2-21.4 30.7 0 16.8 18.6 34.4 35.1 33.2 10.6-.8 22.2-8.6 28.5-19.4 2.6-4.4 2.9-5.8 2.9-13.4 0-10.4-2.4-16-10-23.5-6.8-6.9-13.2-9.9-22-10.3-6.2-.3-7.7 0-13.1 2.7M812 1355.5c-11 3.1-17.1 11.3-17.9 23.9-1.1 20.4 8.4 30.9 27.9 30.9 12.6 0 20.7-4 25.1-12.5 1.7-3.2 2.2-5.7 3.3-13.7.5-3.9-1.3-13-3.3-16.9-2.5-4.8-6.7-8.7-11.5-10.7-5.7-2.4-16.9-2.8-23.6-1M676.7 1357.7c-6.7 2.3-13.9 9-16.7 15.5-5.9 13.8 2.8 29.8 18.8 34.4 4.7 1.4 6.4 1.5 10.2.5 8.4-2.2 16.7-9.3 20.6-17.6 4.3-9 2.3-16.7-6.3-25.3-8.3-8.3-17.2-10.8-26.6-7.5M535.9 1364.3c-11.9 6.3-12.7 26.7-1.3 35.4 6.3 4.7 20.3 4.3 26.9-.9 8.2-6.4 8.7-25.1.9-32-6-5.3-18.9-6.5-26.5-2.5M3701 1363.6c-7.5 3.3-10.3 8.4-10.3 18.9 0 11.3 3.8 17.2 12.6 19.6 5.3 1.4 15.3.7 19.4-1.5 6.8-3.5 10.2-13.3 8.3-23.6-1.3-6.9-3.4-9.9-9-12.8-5.3-2.6-15.5-3-21-.6M401 1369.8c-7.8 3.9-8.1 21.1-.3 25.3 3.2 1.7 14.2 1.8 17.4.1 3.6-1.9 5.1-4.8 5.6-11.1.7-7.6-1.4-12.7-6.1-14.6-4.8-2-12.3-1.9-16.6.3M3842.3 1369.1c-6.5 1.9-9.8 10.7-7.2 19 1.9 5.9 5.2 8.1 12.5 8.2s11.6-2 13.5-6.5c1.9-4.4 1.6-13.1-.6-16.4-3-4.7-10.6-6.5-18.2-4.3M3983.5 1376.5c-.3.8-.7 2.2-1 3.1s.5 2.9 1.6 4.6c2.2 3 2.2 3 4.2 1 2.5-2.5 1.7-6.3-1.8-8.6-2.3-1.5-2.6-1.5-3-.1M268.6 1379.1c-3.2 2.6-3.2 3.2.1 7.8l2.7 3.7 2.8-3.2c3.2-3.7 3.6-6.4 1-8.7-2.4-2.2-3.4-2.1-6.6.4M3773.2 1433.1c-2.3 1.2-6 4.1-8.2 6.6-6.7 7.7-6.6 15.5.3 23 9.6 10.4 19.1 10.8 28.4 1.1 8.1-8.4 7.6-17.4-1.4-26.4-3.8-3.9-8.8-6.4-12.5-6.4-1.3 0-4.2 1-6.6 2.1M3912.3 1439.8c-5.1 6-8.3 11.1-8.3 13.4 0 2.2 4.6 7.5 8.1 9.3 1.5.8 4.1 1.5 5.7 1.5 4.9 0 13.2-7.7 13.2-12.3 0-.9-3.3-5.1-7.2-9.3l-7.3-7.5zM3842 1504.1c-12.7 5.3-13.9 23.8-1.9 29.9 4.9 2.5 12.3 2.6 16.9.1 5-2.6 7.3-7.2 7.3-14 0-10.1-5.3-16.2-14.7-16.8-2.8-.1-6.2.2-7.6.8M267.6 1513.7c-2 3.2-3.6 6.8-3.6 8 0 3.5 3.4 6.3 7.8 6.3 8.8 0 10.7-5.9 4.6-14.7-2-2.9-4-5.3-4.4-5.3-.5 0-2.5 2.6-4.4 5.7M3980.5 1514.4c-2.1 2.1-2.3 2.9-1.5 5.8 2.5 8.9 13 10.6 14.6 2.3.9-4.9-.1-8-3.1-9.3-4-1.8-7.4-1.4-10 1.2M333.4 1575c-5.6 2.2-8.3 10.8-6.1 19.5 1.7 6.8 4.8 8.9 13 8.8 10.7-.1 14-3.4 14-13.8 0-7.9-1.7-12.1-5.4-14-3-1.6-12.1-1.9-15.5-.5M3908.9 1576.3c-4.3 2.9-6.1 6.7-6.1 12.7 0 5.9 2.3 10.5 6.4 12.6s13.1 2.1 16.4-.1c8.8-5.7 8.4-21.3-.6-25.7-5-2.6-11.9-2.3-16.1.5M200.2 1587.3c-2.9 3-2.8 3.4.9 4.2 2.2.5 3.6.3 4.7-.9 1.4-1.4 1.4-1.7-.3-3.6-2.3-2.5-2.7-2.5-5.3.3M4050.1 1587.4l-2.2 2.3 3.7 1.8c3.6 1.7 3.7 1.7 5.8-.5l2.1-2.1-2.4-2c-3-2.5-4.3-2.4-7 .5M403.5 1638.9c-4.4 2-11 8.7-12.5 12.7-3.5 9 1.8 19.5 11.9 23.9 4.9 2.2 9 1.8 15-1.1 9.8-4.9 13.8-15.3 9.2-24.2-3.4-6.6-12.1-13.2-17.3-13.2-1.3 0-4.1.9-6.3 1.9M265.9 1647.4c-9.2 6.3-8 17.1 2.5 21.1 3.9 1.5 4.6 1.5 7.9.1 4.3-1.8 7.7-6.8 7.7-11.5 0-2.6-.9-4.3-4.4-7.7-5.1-5.2-8.3-5.6-13.7-2M331.2 1713c-8.8 5.4-8 23.9 1.2 27 5.7 1.8 12.4 1.4 17.9-1.1l5-2.4-.6-10.9c-.4-6-1-11.2-1.4-11.6-1.6-1.4-9.2-3-13.9-3-3.1 0-6.1.7-8.2 2M200.2 1719.6c-4.9 6.7-4.3 13.4 1.3 13.4 2.8 0 7.1-3.3 7.8-5.9.4-1.5-4.6-12.2-5.6-12.1-.1.1-1.7 2.1-3.5 4.6M270 1782c-7 1.3-10.5 4.8-11.5 11.7-1.1 7.1 4.5 14 12.1 14.9 10.6 1.3 18.1-10.6 13-20.5-2.4-4.6-8-7.1-13.6-6.1M337.5 1846.1c-7.7 2.2-16.2 13.2-15.1 19.4 1.3 6.7 9.3 15 16.1 16.5 9.2 2.1 22.5-12 20.1-21.3-.3-1.3-2.4-4.5-4.7-7.1-5.9-6.7-11.1-9.1-16.4-7.5M3911.5 1847.4c-4 1.8-8 6.2-10 11-2.3 5.4-1.3 11.7 2.6 16 10.5 12 29.9 5.5 29.9-10.1 0-7.8-3.4-13.1-10.5-16.4-4.7-2.2-7.9-2.3-12-.5M198.5 1859.6c-6.9 7.5 1.9 16.6 9.9 10.3 3.5-2.7 3.4-6.3-.3-10-3.6-3.6-6.5-3.7-9.6-.3M4048.5 1859.3c-1.9 3-1.2 6.7 2 9.4 3 2.7 7.7 3 9.9.7.9-.9 1.6-3.2 1.6-5.4 0-6.4-.6-7-6.6-7-4.5 0-5.6.4-6.9 2.3M3839.5 1913.9c-10.5 4.7-14.5 17.7-8.9 28.9 6.1 12.3 22.9 14.8 32.9 4.8 6.3-6.4 8-16.8 3.9-24.7-4.7-9.2-18.1-13.5-27.9-9M267.9 1918.9c-4.7 1.5-6.6 3-8.3 6.5-3.2 6.7-1.3 15.6 4 19.1 3.9 2.6 13 2.7 16.8.2 7.4-4.9 7.3-20.2-.1-24-3.8-2-9.2-2.8-12.4-1.8M3978.9 1920.5c-4.1 2.2-6.3 6.4-6.3 12.2-.1 8.6 5.5 13.9 14.4 13.5 5.3-.2 8.8-2.5 11.2-7.3 3.5-6.7 1-15.5-5.2-18.6-3.3-1.7-10.9-1.6-14.1.2M332.8 1984.9c-7.7 4.9-12.3 13.5-10.6 19.8 1.2 4.4 10.1 13.9 14.5 15.4 5.1 1.6 10.1-.1 15.8-5.6 8.1-8 9.2-14.1 3.7-21.9-4.2-6-9.4-9.8-14.4-10.3-3.5-.4-5.1.1-9 2.6M3910.1 1985.2c-11.7 5.8-14.3 19.4-5.2 28.2 8.3 8 17.7 8 25.2-.1 9-9.7 6-22.6-6.6-28.4-5.2-2.4-8.1-2.4-13.4.3M197.7 1994.1c-4.9 2.8-3.9 9 2.7 16.2l3.4 3.9 3.6-5.4c4.5-6.6 4.6-9.8.5-13.2-3.2-2.7-7.1-3.3-10.2-1.5M4048.6 1996.2c-3.6 5.1-.9 12.8 4.5 12.8 3.4 0 8.9-4.7 8.9-7.5 0-.9-1.3-3-2.9-4.6-3.7-3.6-8.3-3.9-10.5-.7M400.2 2050.3c-6.9 2.2-11.4 10.6-11.4 21.3-.1 22.7 35 26.7 40.7 4.6 2.7-10.3-1.8-21.2-10.7-25.8-3.1-1.6-13.7-1.7-18.6-.1M3839.5 2050.9c-7.5 3.5-11.5 10.2-11.5 19.3.1 13.3 10 22 23.3 20.5 6.8-.9 12.4-4.3 15.5-9.7 3.7-6.3 3.7-15.8-.2-22.3-4.9-8.5-17.7-12.2-27.1-7.8M266.4 2056.7c-1.2.2-3.4 1.8-5 3.4-2.7 2.8-2.9 3.6-2.9 10.4 0 6.3.3 7.7 2.3 9.8 3.9 4.2 14 5.5 19.5 2.5 5.3-2.8 7.6-14.8 4-20.9-2.9-4.9-9.6-6.8-17.9-5.2M3979 2057.8c-6.2 3.3-8.6 11.4-5.6 18.5 2.1 5.1 5 7 11.3 7.5 9.8.8 15.3-4 15.3-13.5 0-11.3-10.9-17.8-21-12.5M131.2 2068.9l-2.4 1.7 2.7 1.8c2.5 1.7 2.9 1.7 4.3.2 1.5-1.5 1.5-1.8-.3-3.6-1.9-1.8-2.1-1.8-4.3-.1M334.5 2121.7c-7 3.7-12.6 11.3-12.7 17.3-.1 7.4 11.1 19 18.4 19 6.8 0 16.7-8.5 19-16.2 1.4-4.6-.1-8.5-5.1-14.1-6.4-7.1-13.5-9.3-19.6-6M3913.1 2121.1c-6.9 2.7-14.1 11.6-14.1 17.3 0 7.2 7.7 16.6 15.5 18.7 4.6 1.3 10.7-1.3 15.6-6.8 5.3-5.8 6.5-10.3 4.5-15.8-2-5.1-7.7-11.2-12.2-13.1-3.8-1.6-5.9-1.7-9.3-.3M196 2134.6c-2.5 1.9-4.6 3.9-4.7 4.2-.1.4 2.1 2.4 4.9 4.4 7.9 5.7 13.5 4.9 15.2-2.4.7-2.9-.8-7.8-2.7-9-3-1.9-8.2-.7-12.7 2.8M4051 2131.7c-4 1.4-5.3 7.9-2.4 12.1 1.3 1.9 2.4 2.2 7.5 2.2h5.9v-5.9c0-5.1-.3-6.2-2.2-7.5-2.2-1.6-5.9-1.9-8.8-.9M3980 2333.8c-4.9 2.4-8.4 9.4-7 14.1 1.1 3.9 4.3 7.7 8.2 9.7 11 5.7 23.1-9.4 15.8-19.6-4.2-5.9-10.6-7.5-17-4.2M3913 2399c-8.5 1.5-11 4.9-11 14.5 0 12.1 3.7 15.9 15.3 15.9 8.5.1 12.1-1.7 14.3-6.9 1.7-4.1 1.7-11.7.1-16.5-2-5.6-9.8-8.6-18.7-7M4051.1 2409.5c-1.7 2-3.1 4.4-3.1 5.5 0 2.6 2.7 5 5.6 5 2.6 0 7.4-4 7.4-6.2-.1-1.2-5.4-7.8-6.4-7.8-.2 0-1.8 1.6-3.5 3.5M199.6 2410.1c-1.4 1.1-2.6 2.9-2.6 4 0 2.1 5.7 9.9 7.1 9.9.9 0 3.2-4.1 4.9-8.4.7-1.9.4-3-1.1-5-2.5-3.1-4.8-3.3-8.3-.5M405.8 2463.3c-4.7 1.1-11.3 6.8-13.9 12-6.1 11.8 3.7 26.7 17.6 26.7 6 0 11.5-2.9 15.8-8.2 3.9-4.8 4.8-12.7 2.2-17.9-4.6-9.2-13.9-14.6-21.7-12.6M3838.9 2466.3c-5.8 4.4-10.2 12.8-9.6 18.3.9 8.5 9 16.3 17.6 17.2 6.3.6 10.8-1.6 16.5-7.9 7-7.8 7.2-13.5.9-20.9-9.2-10.8-17.3-12.9-25.4-6.7M270 2470.7c-3.8 1.5-7.4 5-9.2 9-1.9 4.3-1.9 4.3.2 7.1 3.4 4.4 9.1 8.2 12.3 8.2 2 0 4-1.1 6.2-3.3 5.8-5.8 5.8-11.2.2-17.2-3.2-3.4-6.9-4.9-9.7-3.8M3979.8 2474.3c-3.1 2.6-4.8 5.7-4.8 8.9 0 3.6 3.7 8.8 7.5 10.4 3 1.2 4 1.2 6.8 0 5.2-2.2 8.2-6.1 8.2-10.8 0-3.3-.6-4.5-3.8-7.4-4.5-4.2-9.7-4.6-13.9-1.1M3496.2 2523c-7.9 1.7-14.6 7.2-18.1 15-1.6 3.4-2.1 6.6-2.1 13.1 0 14.3 3.8 21.7 13.7 26.6 5.1 2.5 6.9 2.8 15.3 2.8 8.1 0 10.2-.4 14.4-2.5 9.7-4.9 13.9-12.9 14-26.5.1-7.9-.3-9.7-2.7-14.7-3-6.1-7.4-10.1-13.5-12.2-5.3-1.9-15.8-2.7-21-1.6M3770.7 2532.4c-7.9 2.9-11.9 9.3-12 19-.1 13 8.7 21.7 21.8 21.6 12.8-.2 19.5-7.6 19.5-21.5 0-13.7-5.3-19.5-18.4-20.2-4.5-.2-8.5.2-10.9 1.1M333.3 2538.4c-4.9 2.2-6.8 6-6.7 13.2.1 10.3 3.5 13.6 13.9 13.6 10.1 0 13.5-3.1 13.8-12.9.2-7-1.5-11.6-5.1-13.3-4.3-1.9-12.3-2.2-15.9-.6M3913.6 2538.1c-6.3 1-9.7 4.2-10.5 10.1-.9 5.9.2 10.6 3.3 13.7 2.2 2.2 3.6 2.6 9.9 2.9 11.1.5 15.7-3.3 15.7-12.9 0-10.6-6.8-15.7-18.4-13.8M4052.2 2547.9c-2.7 3.7-2.7 4.3-.4 6.4 2.5 2.3 4.8 2.1 6.6-.5 1.4-2 1.4-2.5-.4-5.2-2.5-4.1-3.2-4.2-5.8-.7M199.9 2549.6l-2.4 2.6 2.4 1.9c3 2.5 3.5 2.4 5.5-.6 1.8-2.8 1.5-3.9-1.3-5.5-1.4-.7-2.4-.4-4.2 1.6M3425.3 2590.6c-6 2.2-13.7 9.5-16.8 15.9-3.7 7.5-3.8 18.9-.3 26.7 5.5 11.9 15 18.3 27.3 18.3 5.9 0 8.1-.5 13.8-3.3 11.8-5.8 17.3-15.9 16.5-30.1-.7-12.1-6.6-20.9-17.8-26.6-4.8-2.5-17.1-3-22.7-.9M3566.5 2593.9c-20.1 5.3-27.5 31.2-13 45.6 15.4 15.4 43.3 6.8 47.6-14.7 3-14.8-9.6-30-25.8-31.3-3.2-.2-7.1-.1-8.8.4M3699 2601.2c-5.7 3-7.7 5.9-9.1 13.2-1.3 7.1.1 16.8 2.9 20.6 3.8 5 7.9 6.5 18.2 6.5 10.6 0 14.3-1.3 17.9-6.4 3.1-4.3 4.4-12.6 3.2-20-1.9-11.5-7.8-16-21.1-16.1-5.9 0-8.5.5-12 2.2M404.5 2603.4c-4.2 1.9-10.5 8.3-12.2 12.4-1.9 4.6-1.1 8.8 2.8 14 4.3 5.9 10.9 9.6 15.6 8.9 8.1-1.4 16.8-10.7 16.8-18.2 0-3-.8-5.4-2.8-8.3-5.6-7.9-14-11.7-20.2-8.8M3841.5 2604.8c-4 2.5-8.3 7.7-9.1 10.8-1.8 7.3 2 16.2 9 20.5 3.9 2.5 12 2.2 15.9-.7 4.3-3.2 7-9 6.9-14.9 0-6-1.7-9.7-6.1-13.9-4-3.9-12-4.7-16.6-1.8M266 2615c-4.1 4.1-1.4 13 4.1 13 7.5 0 13-9.7 7.7-13.4-3.2-2.3-9.4-2-11.8.4M3980.6 2614.9c-2.4 2.7-2.3 6.2.2 9.9 1.9 2.5 2.7 2.9 5.9 2.5 4.2-.5 7.3-2.7 7.3-5.4 0-2.8-5.1-7.8-8.5-8.5-2.3-.4-3.5 0-4.9 1.5M3495 2662.5c-5.7 1.8-12.4 7.5-15.2 12.9-3 5.8-3.7 18-1.3 24.3 6.5 16.9 27.3 22.7 43.2 12 13.7-9.2 14.5-32.3 1.5-43.7-7.3-6.5-18.1-8.6-28.2-5.5M3635.9 2665.5c-5.8 1.9-14 9.1-16.8 14.8-4.2 8.7-2.1 16.6 6.8 25.5 6.4 6.5 13.1 9.6 18.5 8.7 7.6-1.2 16.1-7.8 20.1-15.5 9-17.4-9.8-39.3-28.6-33.5M3774.4 2670.4c-7.6 3.4-14.4 12.3-14.4 18.7 0 9.1 10.9 19.9 20 19.9 6.7 0 16.5-7.9 18.9-15.3 4.1-12.3-13-28.5-24.5-23.3M3911.2 2680.5c-4 4.1-7.2 8.3-7.2 9.4 0 2.8 4.1 8.3 7.9 10.5l3.4 1.9 4.4-2.3c4.6-2.4 10.3-8.2 10.3-10.4 0-1.5-4-7.5-8.6-13l-3.1-3.7zM336.3 2677.5c-4 1.7-8.1 6.2-8.8 9.7-1.1 4.7 2.8 11.3 8 13.8 3.8 1.9 5 2 7.9 1 4.5-1.5 8.3-5.4 9.6-9.8.8-3 .6-4.4-1-7.7-3.4-6.8-9.6-9.6-15.7-7M3565.1 2733.2c-5.6 2.8-13.3 10.4-16 16-4.4 9.2-1.4 19.8 8.1 28.3 11.2 10.1 22.8 9.4 34.2-2.1 8.5-8.5 10.9-16.8 7.1-24.7-2.6-5.6-10.1-13.4-15.9-16.8-6.2-3.5-11.4-3.7-17.5-.7M3704.5 2738.5c-8.2 2.4-12.8 7.9-13.8 16.3-1.5 14.2 6.7 24.1 20.1 24.2 12.8 0 20.4-7.7 20.5-20.6 0-8.7-3.2-15.1-9.3-18-5.6-2.8-12.3-3.5-17.5-1.9M404 2744.1c-4.6 1-7.7 4.8-8.5 10.4-1 6 .1 10.9 2.9 14.2 2.1 2.5 3.2 2.8 9.7 3.1 4.7.2 8.3-.2 9.9-1 7.4-3.9 8-20.5.8-25.1-2.8-1.9-10-2.6-14.8-1.6M3841.4 2744.9c-7.8 3.4-9.7 16.4-3.5 23.3 2.3 2.6 3.7 3.2 8.4 3.6 9.7.8 15-2.9 16.3-11.3.7-5.3-.8-10.4-4.2-13.6-1.9-1.8-3.8-2.4-8.7-2.6-3.4-.2-7.2.1-8.3.6M267.7 2755.8c-2.2 2.5-2.2 2.5 1.9 4.7l3.6 1.9 2-2.4c2-2.4 2-2.4-.2-4.2-2.8-2.3-5.3-2.3-7.3 0M3983.9 2755.6c-3 3.6 3.2 7.1 6.5 3.5 1.7-1.8 1.6-2-.6-3.5-2.8-2-4.2-2-5.9 0M3498.8 2800.5c-16 4.1-25.4 21.6-19.3 36 2.2 5.4 10 13 15.7 15.5 12.5 5.4 26.9-1 34.4-15 2.8-5.2 2.6-15.2-.4-21-6.3-12.1-18.8-18.5-30.4-15.5M605.5 2806.4c-4 1.7-9 7.5-10.5 12.1-2 6.1-.9 16.5 2.2 21.2 4.9 7.5 16.1 11.1 25.7 8.3 11.7-3.3 17.8-15.9 14-29.3-1.3-4.7-6.3-10.6-10.6-12.3-4.1-1.8-16.9-1.7-20.8 0M3632.6 2806.6c-8.5 3.1-11 7.6-11.1 19.9 0 11.4 2 15.9 8.8 19.3 6.6 3.4 16.6 3.5 22.7.1 6.4-3.5 10.3-9.5 10.8-16.8.5-7.2-1-12.1-5.1-16.8-6-6.8-16.7-9.2-26.1-5.7M3778 2810.7c-1.4.2-4.7 1.1-7.3 1.9l-4.8 1.6.3 12.6.3 12.6 5 1.3c6 1.5 15.9 1.7 18.5.3 1.1-.6 2.3-3 2.9-6 3.7-17.1-1.9-26.1-14.9-24.3M465.1 2816.9c-2.6 6.2-2.7 14.1-.2 19.7 1.6 3.5 2.5 4.3 6.5 5.4 5.3 1.4 11.4 1 16.9-1.3l3.7-1.6V2812h-24.8zM335.2 2820.6c-1.6 1.1-2.2 2.5-2.2 5.3 0 7.6 6.4 10.9 11.6 6.1 3.4-3.3 3.2-7.2-.7-10.4-3.5-3-5.6-3.2-8.7-1M3911.5 2822.7c-2.2 1.4-4.2 2.8-4.4 3-.5.4 5.4 5.7 8.1 7.3 1.4.8 2.5.4 5.5-2.4l3.7-3.4-2.7-3.6c-3.3-4.3-5-4.5-10.2-.9M3564.6 2874.5c-5.1 1.8-10.2 6.9-12.2 12.2-2 5.1-1.4 15.4 1 20.1 6.7 12.9 27.5 15.1 37 4 6.1-7.1 7.1-18.7 2.3-27.3-5-8.8-17.5-12.8-28.1-9M544.6 2875.7c-6.7 1.7-14.8 10.7-16.2 17.9-1.6 8.9 7.4 19.6 17.5 20.8 4.3.5 11.9-3.3 15.9-7.9 6.1-6.9 6.7-11.9 2.2-18.7-3.4-5.1-8.2-9.1-13.5-11.4-1.9-.7-3.6-1.3-3.7-1.3-.2.1-1.2.4-2.2.6M3705.5 2877.6c-3.9 2-10.3 8.1-12.1 11.6-6.3 12 9.4 28.4 22.7 23.9 6.7-2.3 13.9-11 13.9-16.8 0-6-5.2-13.4-13-18.6-3.1-2.1-7.6-2.2-11.5-.1M405.4 2885.7c-3.5 1.8-6.3 4.2-7.6 6.6-1.1 2.1 1.9 7.7 7.7 14.2l3.6 4 5.9-6.3c7.1-7.6 7.9-9.6 5.3-13-4.4-5.9-10.1-8-14.9-5.5M3842.7 2888.3c-5.5 5.9-6.1 10.5-1.8 14.8 4 3.9 10.9 4.1 14.6.4 1.4-1.3 2.6-3.3 2.6-4.5.1-1.1.2-2.6.3-3.3.4-2.5-1.7-6.8-3.7-7.9-1.2-.6-3.7-1.5-5.6-1.9-3-.7-3.8-.4-6.4 2.4M3637.6 2945.3c-5.5 1.4-13.1 9.1-14.6 14.8-1.7 6.3 0 11.2 6.4 17.5 8.1 8.2 14.5 8.8 23.4 2.4 12.6-9.1 12-23-1.4-32.2-4.6-3.2-8.4-3.8-13.8-2.5M471.2 2953c-3.5 2.2-6.2 7.2-6.2 11.6 0 7.1 6.1 12.7 13.6 12.7 10.3 0 16.7-11.3 11.4-20-3.7-6.2-12.4-8.2-18.8-4.3M3773.3 2953c-7.5 4.5-8.4 14.8-1.9 20.7 3.1 2.8 4.3 3.3 8.7 3.3 4.6 0 5.5-.4 9-3.9 3.3-3.3 3.9-4.5 3.9-8.2 0-10.8-10.8-17.4-19.7-11.9M3154.7 3002.2c-23.9 5-32.9 35.7-15.5 53.1 6.8 6.8 12.4 9.2 21.8 9.2 8.7 0 13.4-2 20.6-8.7 10.3-9.5 12.8-23.4 6.6-36.1-6.6-13.3-20-20.3-33.5-17.5M3703.5 3019.9c-4.7 2-6 4.9-6 13.2 0 7.2.2 8.1 2.8 10.6 2.4 2.4 3.6 2.8 10.1 3.1 7 .4 7.5.3 10.7-2.6 3.1-2.7 3.3-3.5 3.7-9.8.3-8.2-.9-11.2-5.8-13.6-3.6-1.9-12-2.3-15.5-.9M3844.1 3029.9l-4.2 2.8 3.8 3.2c2 1.7 4.1 3.1 4.5 3.1.3 0 2-1.2 3.7-2.6 2.9-2.4 3-2.6 1.4-5-2.8-4.3-4.5-4.6-9.2-1.5M404.3 3030.9l-3.3 2.7 2.9 2.1c4.6 3.5 7.2 3.4 9.6-.3 1.6-2.5 1.6-2.7-.6-5-2.9-3.1-4.6-3-8.6.5M3221 3074.9c-11.7 3.6-19.1 14-19.2 27-.1 11.2 5 19.9 14.6 24.9 4.3 2.2 6.4 2.7 13.1 2.7s8.8-.5 13-2.7c6.2-3.3 9.8-7 12.4-12.9 4-8.9 3-20.8-2.4-28.7-2.9-4.2-9.3-8.8-14.4-10.2-4.1-1.1-13.4-1.2-17.1-.1M3360.9 3077.3c-11.8 4.4-19.2 13.9-19.3 24.7 0 9.3 6.3 18.8 15.6 23.4 9.8 4.9 18.9 2.5 28.1-7.3 5.6-6 7.9-10.8 7.9-16.6 0-14.8-19.1-29.1-32.3-24.2M3632.3 3090c-3.8 2.3-4.8 5.2-4.6 13.4.2 9.8 6 14.4 16.7 13.2 9-1 11.8-4.6 11.9-15.3 0-10.3-3.3-13.3-14.6-13.3-4.4 0-7.1.6-9.4 2M472 3097.6c-2.5 6.5 0 11.4 5.7 11.4 2.3 0 3.9-.9 5.7-3.1 3-3.5 3.2-5.6 1-8.7-1.2-1.8-2.5-2.2-6.5-2.2-4.4 0-5.1.3-5.9 2.6M3775.8 3095.7c-2.6.4-2.8.8-2.8 5.3 0 3.1.6 5.4 1.6 6.4 2.2 2.2 8.7 2.1 10.7-.2 2.3-2.5 2.1-7.8-.3-10.2-1.9-1.9-3.5-2.2-9.2-1.3M2878.3 3137.5c-15 4.6-26.7 19.2-26.6 33.1.2 15 13.4 30.4 28.5 33.3 9.7 1.8 20.7-2 28.7-9.8 10.3-10.1 13.4-23.6 7.9-35.2-4.7-10.2-13.8-18.3-23.8-21.3-6.3-1.9-9-1.9-14.7-.1M951.3 3146c-5.5 2.4-13.9 10.8-16.3 16.3-2.6 5.6-2.5 12.2.1 17.2 5.1 9.7 16.2 17.5 24.9 17.5 12.2 0 26.2-13.7 26.3-25.9.1-5.7-2.9-11.7-9-18.2-8-8.6-17.1-11-26-6.9M3292.2 3145.1c-8.1 3.2-18.2 14.8-19.6 22.4-.5 2.3-.1 5.7.9 9.2 1.3 4.5 2.9 6.8 7.8 11.8 9.1 9 16.9 10.7 26.5 5.9 9.1-4.5 16.2-14.7 16.2-23.4 0-15.1-19.4-30.9-31.8-25.9M3429.9 3150.4c-9.4 2.5-13.7 7.7-14.6 17.7-1.4 15.5 7.8 25 23 23.7 8.2-.7 12.7-3.5 15.9-9.9 4.7-9.5 4.4-17.4-1.2-24.1-5.4-6.6-14.8-9.6-23.1-7.4M677.3 3155.9c-9.4 4.4-11.4 20.4-3.3 27.6 3.2 2.9 15.2 3.3 19.9.7 5.1-2.8 7.3-7.5 6.8-14.5-.5-9-5.6-14.4-14.2-15.3-3.7-.3-6.1 0-9.2 1.5M3708.4 3163.7c-1.7 1-4.6 2.9-6.3 4.3l-3.1 2.6 4.8 3.7c6.8 5.2 10.3 5.7 13.1 2 2.9-3.5 2.4-9.9-.9-12.5-2.8-2.2-3.8-2.2-7.6-.1M3079.4 3214.4c-21.1 9.8-19.9 42.7 2 51.1 7.1 2.7 19 1.7 25.3-2.1 14.7-9.1 17.7-29.8 6.1-43-7.4-8.4-22.5-11.1-33.4-6M1020.3 3215c-9 4.1-18.3 16.4-18.3 24.3 0 11.5 15.1 26.7 26.5 26.7 5.3 0 12.1-3.5 17.8-9.2 11.6-11.6 11.4-23.2-.5-35.1-5.6-5.6-11.7-8.7-17.3-8.7-2.2 0-5.9.9-8.2 2M881.5 3219.5c-9.3 3.3-14.6 15.5-11.4 26.8 2.3 8.3 11.1 14.6 20.4 14.7 17 0 24.5-11 20.4-29.8-1.2-5.9-5.2-10.4-10.7-12-5.2-1.6-13.8-1.4-18.7.3M3358.5 3219.2c-8.7 3.1-12.8 9.5-12.7 20 .1 14.2 7.7 21.8 21.7 21.8 10.5 0 17.7-4.9 19.4-13.2 3.1-14.3-1.2-25.8-10.7-28.6-4.8-1.5-13.6-1.4-17.7 0M3501.1 3223.1c-1.8.4-5.1 1.5-7.2 2.4l-3.9 1.8v26.700000000000003h27.1l1.6-3.8c.8-2 1.8-6.6 2.1-10.1.6-7.1-.9-11.2-5.3-14.4-3.1-2.2-10-3.5-14.4-2.6M610.6 3231.8c-2.7 2-5.4 4.5-6 5.5-1.6 2.5.8 6.3 6.6 10.5l4.8 3.4 5.1-3.8c5.5-4 7.5-7.4 5.9-10.4-.8-1.5-10.1-9-11.1-9-.2 0-2.6 1.7-5.3 3.8M2327.7 3274c-9.8 2.5-19.4 9.8-23.9 18.2-2 3.8-2.3 5.7-2.3 15.8 0 10.2.3 12 2.5 16.3 3.2 6.3 10.6 13.2 17.8 16.5 8.3 3.8 18.4 3.8 26.9-.2 7.4-3.4 15.9-11.8 19.3-19.1 3.5-7.5 3.4-19-.2-26.7-3.4-7.4-11.3-15.2-18.3-18.3-6.1-2.8-16.2-3.9-21.8-2.5M1639.9 3275.4c-13.3 3.5-24.4 15.9-26.4 29.4-.8 5.6 1.7 15.2 5.4 20.5 4.1 6.1 11.4 12.5 16.9 14.9 7.3 3.3 17.1 3 24.5-.7 7.3-3.6 14.9-11.2 18.4-18.4 4-8 3.9-18.2-.2-26.4-7.2-14.5-24.2-23-38.6-19.3M2464.4 3274.9c-14.3 3.7-24.7 15.7-26 30.2-1.4 14.7 6.9 29 20.4 35.2 7.3 3.3 20.8 3.1 28.3-.4 7.8-3.7 13.3-9 16.9-16.3 7-14.4 3.9-30.2-8-41-6.2-5.5-12.1-7.9-21-8.2-4.1-.2-8.9 0-10.6.5M1502.5 3276.3c-14.6 4.9-26.4 20.5-25.2 33.8 1.4 15.6 18 31.5 32.8 31.3 7.7-.1 15.7-4 22.4-10.8 14.3-14.7 14-31.4-1-45.5-9-8.5-19.9-11.8-29-8.8M2876.3 3280c-12.8 2.7-19.3 12.3-19.3 28.6 0 18.2 10.9 29.4 28.5 29.4 15.4 0 26-8.8 28.3-23.6 2.6-16.1-3.1-28.8-14.8-32.9-5.5-1.9-17.1-2.7-22.7-1.5M3154.5 3283.2c-8.3 3.1-17.3 12.7-19.6 21-1.9 7.4 3.3 17.9 12.6 25 7 5.3 12 6.5 18.4 4.3 9.5-3.1 21.1-16.6 21.1-24.5 0-11.1-13.8-25.9-24.8-26.6-2.6-.2-6 .2-7.7.8M949.5 3288.9c-4.8 2.2-6.9 4.4-9 9.6-1.9 4.4-2.1 14.7-.5 19.1 2.8 7.2 10 11.6 19.5 11.7 8.7.1 16.4-4.4 20.3-11.8 3.1-6.1 1.2-19.4-3.6-24.9-4.9-5.5-18.7-7.4-26.7-3.7M818.1 3291.6c-15.8 8.9-18.7 18.3-8.5 28.1 7.5 7.2 15.3 8 23.2 2.3 6.4-4.6 8.8-10.9 6.9-18-1.2-4.7-5-8.6-11.8-12l-5.6-2.9zM3429.5 3292.8c-15 7.2-14.5 25.3.9 31.7 9.5 4 20.2-2.9 22.1-14.3 1.9-12-12-22.6-23-17.4M3566.5 3300.3c-1.9 1.9-3.7 4.7-4.1 6.2-1.6 6.4 6.7 14.7 13.1 13.1 4-1 9.5-6.8 9.5-10 0-3.1-4.9-8.8-9.4-11-4.7-2.2-5.3-2.1-9.1 1.7M2256.5 3344.8c-10.7 3.8-19.5 12.4-22.9 22.5-5.8 17.2 5.4 36.9 24.2 42.3 15 4.4 32.8-3.9 39.9-18.5 2.4-4.8 2.8-6.8 2.8-14.1 0-7.1-.4-9.3-2.5-13.4-8.2-16.1-26.3-24.3-41.5-18.8M2397 3343.9c-21 6.9-32.2 28.8-23.7 46.3 3.4 6.9 10.9 14.1 18.5 17.6 15.5 7.2 35.2-.8 43-17.5 3.5-7.7 3.7-18.4.4-25.6-3.1-6.8-12.2-16-18.5-18.7-5.5-2.4-15.6-3.5-19.7-2.1M1706.7 3345.4c-11.7 4.2-20.6 15-22.5 27.1-2.2 14 5 26.9 19 34.2 7.5 3.8 17.9 3.9 25.8.2 7-3.3 14.1-10.3 17.7-17.7 2.2-4.6 2.8-7 2.7-12.2-.1-8.4-2.7-14.3-9.6-21.6-9.5-10.1-22.1-13.9-33.1-10M2531 3345.7c-6.8 2.5-17.2 13.3-19.9 20.6-5.2 14.1 0 28.8 13.5 37.9 9.9 6.7 20.7 7.3 32 1.6 5.7-2.8 12.9-10.5 15.7-16.6 3-6.6 3-17.9 0-24.5-2.8-6.1-11.4-14.6-17.8-17.7s-16.9-3.7-23.5-1.3M1572 3345.9c-7.4 2.4-15.1 8.4-19.9 15.5-6.3 9.1-6.9 18.4-2.1 28.3 5.4 10.9 15.4 17.5 27.5 18.1 12.8.7 23.1-5.3 29.2-17 3.7-7 3.9-18.7.6-26-2.9-6.3-9.7-13.4-15.7-16.5-5.4-2.7-15.1-3.9-19.6-2.4M1434.1 3349.2c-13.8 2.1-21.1 11.5-21.1 27.2 0 13.3 4.3 21.6 13.4 26.1 15.8 7.7 34.5 2.3 40.6-11.7 2.8-6.3 3.3-17.6 1.1-25-3.7-12.7-17-19.2-34-16.6M2949.9 3350.1c-12.4 1.9-21.5 11.9-22.6 24.9-1.9 20.9 20.2 35.8 39.2 26.6 16.5-8.1 20.4-28.6 7.9-42.5-6.8-7.6-14.9-10.5-24.5-9M3084.3 3352.9c-5.1 2.4-11.5 8.7-14.5 14.3-3 5.8-3 14.7-.1 20.3 8.3 15.6 25.7 19.2 38.3 7.8 11.3-10.1 11.2-25.1-.1-36.4-4.8-4.8-11-7.9-15.9-7.9-1.9 0-5.4.9-7.7 1.9M1018.5 3357.4c-8 3-12.2 11-11.2 21.7.6 6.7 3.6 13 7.5 15.8 8.3 5.9 24 4.5 30.5-2.7 2.8-3.1 4.6-9 4.7-15.3 0-9.4-2.9-15.2-9.4-18.6-4.2-2.2-17.2-2.7-22.1-.9M883 3361.9c-8.1 5.4-12 14.3-8.9 20.4 1.7 3.2 8 9.6 11.1 11.3 5.8 3 11.7 1.3 17.9-5.3 4.6-4.8 5.9-7.3 5.9-11.6 0-4.6-5.2-12.1-10.4-15.2-5.7-3.3-10.2-3.2-15.6.4M3359.9 3362c-4.7 2.5-8.5 7.1-10 12-1 3.4-.9 4.6.6 8 3.5 7.7 12.8 13.7 19.2 12.5 9.7-1.8 17.2-16 12.9-24.3-4.7-8.9-14.6-12.5-22.7-8.2M3499.4 3366.7c-6.7 7.7-7.4 9.1-6.2 12.5s9.2 9.8 12.2 9.8c3.1 0 8.4-3.6 10.5-7.2 1.8-2.9 1.9-3.3.4-6.2-1.9-3.7-10.3-14.6-11.3-14.6-.3 0-2.8 2.6-5.6 5.7M746 3367.6c-5.4 5.1-6.7 10.1-3.6 14.6 6.3 9.2 16.2 9.5 21.6.5 2.4-3.8 2.5-6.8.6-10.5-2.3-4.4-6.1-7.3-10.4-7.9-3.6-.5-4.4-.2-8.2 3.3M2193.3 3413.1c-6.3 1.1-12.1 4.6-18.3 10.8-7.6 7.6-10.5 13.7-10.5 22.1 0 7.8 3.2 14.4 10.5 21.8 14.4 14.6 30.6 14.7 45.1.3 14.1-14.1 14.4-29 .9-43.4-8.6-9.2-18.2-13.2-27.7-11.6M2329 3413.9c-14 4.6-26.1 19.2-26.3 31.7-.2 10.7 9.9 24.6 22 30.4 13.5 6.5 30.6-.9 39.4-17.2 2.8-5.3 3.4-7.3 3.4-12.8 0-11.8-7.8-23.6-19.6-29.6-5.6-2.8-14.4-4-18.9-2.5M2467.4 3415c-9.3 2-18.8 10-23.4 19.7-4.9 10.3-1.8 23.7 7.4 32.7 7 6.7 12.6 9.1 21.6 9.1s14.8-2.4 21.5-9.1c12.5-12.6 12.9-29 1-42.3-6.8-7.5-19.2-11.9-28.1-10.1M1638.5 3417.9c-13.1 3.7-19.5 12.4-19.5 26.6 0 13.5 4 22.4 11.9 26.5 5.3 2.7 15.7 4 22.9 3 16-2.2 23.1-12.6 22-31.6-.7-11.8-5.3-19.2-14.3-23-4.5-1.9-18.4-2.8-23-1.5M2601.7 3418c-8.3 2.1-14.4 6.7-18 13.5-1.9 3.4-2.2 5.6-2.2 14.5s.3 11.1 2.2 14.7c4.9 9 14.5 13.7 27.9 13.6 12.4-.1 20.1-4.1 24.7-12.8 3-5.7 3.7-21.7 1.2-28.3-2.2-6-6.8-10.9-12.4-13.4-5-2.3-17.6-3.2-23.4-1.8M1501.5 3419.5c-2.7.8-5.3 1.4-5.6 1.5-.3 0-2.7 1.8-5.2 4-5.9 5.2-8.7 12.3-8.7 22.2 0 5.7.5 7.9 2.7 11.9 4.6 8.5 14.2 14.3 23.8 14.2 17.9 0 29.9-11 29.9-27.1-.1-9-1.8-13.6-7.2-19.4-3.6-3.8-5.8-5.2-10.9-6.8-7.5-2.3-11.8-2.4-18.8-.5M1364.9 3420.4c-11.9 4.2-20 14.4-20.1 25-.2 17.2 19.1 31.4 35.2 26.1 6.8-2.3 15.1-9.9 18-16.7 8.2-19.1-13.3-41.5-33.1-34.4M2878.1 3420.1c-16.3 4.8-23.8 23.6-15.5 38.9 4.7 8.7 12.6 13.3 22.9 13.3 15.1.1 26.5-11.2 26.5-26.2 0-18.1-16.7-30.9-33.9-26M1226.5 3423.1c-8.4 4.2-16.5 15.3-16.5 22.6 0 10.2 11.9 23.3 22.5 24.8 11.4 1.8 27.6-13.3 27.5-25.6-.1-6.7-8.2-17.3-16.2-21.3-6.2-3.1-11.8-3.3-17.3-.5M3152.7 3426.4c-8.9 2.5-12.8 8.4-12.8 19.3 0 13.5 7.1 20.5 20.6 20.5 13.3 0 20.5-6.9 20.5-19.7 0-10.3-2.6-15.7-9.2-19.1-4-2.1-13.5-2.6-19.1-1M955.7 3428.5c-11.3 4-16.1 16.1-10.3 26 7.6 12.8 22.7 12.4 28.7-1 3.4-7.4 2.4-13.6-3.2-20-4.8-5.4-9.6-7-15.2-5M817.4 3434.7c-8 9.2-8.8 10.8-7.5 14.2 1.5 3.5 6.8 8.6 9.9 9.6 5.3 1.6 15.2-5.5 15.2-10.9 0-2.4-3.8-8.6-9.2-14.9l-3.3-3.9zM3428.9 3436.8c-5 4.7-6.1 10-3 14.9 4.3 6.8 10.6 8.3 16.4 3.9 4.4-3.4 6.1-6.7 5.3-10.2-1-3.7-9.7-12.4-12.5-12.4-1.2 0-4 1.7-6.2 3.8M2114.3 3488c-12 6-17.4 18.7-14.3 33.5 2.1 10.1 5.9 15.8 13.5 19.8 5.5 3 25.1 3.2 30.5.3 10.2-5.4 14.5-13.6 14.5-27.6 0-7.4-.4-9.2-3-14.5-5.2-10.4-13.2-14.5-28.4-14.5-5.5 0-7.9.5-12.8 3M2257.5 3485.9c-13.2 3.3-19.7 12.8-19.7 29.2 0 10.7 2.6 17.3 8.5 22.5 10.2 8.6 31 8.6 40.6-.2 6-5.4 8.5-12.1 8.4-22.9 0-15-5.7-24-17.4-27.8-5.2-1.7-15-2.1-20.4-.8M1709.3 3487c-25.3 5.3-29.1 42.7-5.4 53.3 6.5 2.9 18.9 2.9 25.2 0 9.4-4.2 14.9-13.2 15.1-24.5.3-17-9.2-28.1-25.2-29.3-3-.2-7.4 0-9.7.5M2391 3488.1c-11.1 5-16.3 15.6-15.3 31.3.9 13.5 12.4 23.7 26.9 23.7 20.6 0 31.5-11.3 30.2-31.5-.8-12.1-7.1-20.8-17.7-24.4-5.7-2-18.9-1.5-24.1.9M2534 3487.3c-13.1 3.7-20.2 13.3-20.3 27.2 0 16.7 10.9 27.7 27.8 27.9 9.1.1 15.1-2.2 20.4-7.9 5.7-6.2 7.4-10.6 7.5-19.5.1-9.4-2.8-16.4-9-21.9-6.6-5.8-17.7-8.3-26.4-5.8M1570.2 3488.4c-6 2-12.2 7.4-15.7 13.7-2.5 4.6-3 6.5-3 12.4.1 5.8.6 7.9 3 12.4 13.4 24.6 49.3 17.5 51.3-10.2.8-11.2-4.3-20.9-13.7-26.1-6.4-3.4-15.3-4.3-21.9-2.2M2670.9 3488.4c-6.2 2.2-10.2 5-13.6 9.4-4.1 5.4-5.6 11-5.1 18.7 1.7 24.9 31.8 34.5 48.2 15.3 9.3-10.8 8.5-26.2-1.8-36.4-7.5-7.6-18.5-10.3-27.7-7M1434.9 3489.3c-17.6 6.5-24.5 21.7-16.6 36.8 10.6 20.6 37.3 19.6 46.8-1.6 2.9-6.3 3.1-14.6.5-19.7-5.7-11.5-20.8-19.1-30.7-15.5M1298.5 3491.9c-14.6 3.6-22.1 19.9-15.4 33.7 4.8 10 21 14 32.9 8.1 13.4-6.6 12.6-33-1.2-39.5-4.9-2.3-11.9-3.3-16.3-2.3M2950 3492c-11.8 2.4-18.4 10.6-18.4 23.1 0 13.6 8.5 21.3 23.5 21.1 7.6 0 11.9-1.5 15.6-5.5 3.8-4 5.3-8.4 5.3-15.6 0-7.6-1.5-12.5-5.1-16.5-5-5.7-12.8-8.2-20.9-6.6M1157.5 3495.3c-7.2 3.4-11.5 10.5-11.5 19.4.1 13.7 8.4 21.3 22.3 20 15-1.4 22.9-15.8 16.2-29.4-3.7-7.4-8.9-10.7-17.4-11-4.1-.2-7.7.2-9.6 1M3217.4 3502.2c-1.4 2.2-3 11.3-2.8 15.1.8 10.3 10.2 14.5 23.9 10.7l4.5-1.3V3501h-12.4c-8.6 0-12.7.4-13.2 1.2M888.9 3504.1c-4.3 2.2-8.6 7-9.5 10.6-1.3 5.1 5.8 12.3 12.2 12.3 4.2 0 9.8-4.7 11.4-9.6 1-3 .9-3.9-1.3-7.7-2.1-3.5-4.7-5.7-8.7-7.3-.3-.1-2.1.6-4.1 1.7M1778.7 3556.4c-5.7 2.1-11 5.9-15.1 10.9-9.4 11.4-8.6 23.9 2.2 34.7 9.5 9.5 20.5 11.4 31.8 5.7 6.2-3.2 9.7-6.9 12.5-13.2 6-13.3-.1-29.5-13.4-35.9-6.7-3.2-13.1-4-18-2.2M2051.9 3555.9c-11.4 3.5-18.9 14.2-18.9 27.1 0 16.5 9.1 26.8 24.6 27.8 9.9.6 15.3-1 21.4-6.5 6.1-5.4 8.4-11.7 8.3-22.1-.1-12.7-6.5-22-17.5-25.6-5.2-1.7-13.5-2-17.9-.7M2188.7 3556.4c-6.5 2.4-12.9 8.2-16.5 15.1-7.1 13.7.3 32.3 15.1 38 6.2 2.4 18.4 1.7 24.3-1.3 9-4.6 13.7-12.9 13.8-24.2 0-8.9-2.5-15.4-8.2-21.3-6.6-6.7-19.3-9.5-28.5-6.3M2325.6 3557c-12.2 4.9-19.6 17.9-17.5 30.9 1.5 10 6.6 16.7 15.7 20.9 10.3 4.7 25.1 1.7 32.4-6.7 6.9-7.8 9.2-19.8 5.4-28.5-6.1-14.4-22.6-22-36-16.6M2466.2 3556.4c-9.2 3-16.9 11-19.3 20-3.8 14.1 5.4 30.3 19.2 33.6 20.7 5 38.5-13.7 32.5-34.2-1.8-6.4-8.7-14.8-14.6-17.8-5.1-2.6-12.6-3.3-17.8-1.6M1638.5 3558.4c-10.7 4.9-18.6 17.9-17.1 28.3 1.7 12.3 13.9 23.3 25.9 23.3 7 0 11.8-2 17.7-7.6 12.3-11.5 11.8-27-1.4-39.2-8.2-7.5-16.1-9.1-25.1-4.8M2603.1 3557.6c-8.7 3.7-18.4 15.2-19.7 23.2-.9 5.7 1.8 12.8 7.1 18.9 11.8 13.4 27.8 13.7 39.6.6 4.9-5.5 6.9-10.5 6.9-17.5 0-6.2-2.2-11.1-7.8-17.1-8-8.5-18-11.7-26.1-8.1M1500.4 3561.4c-9.5 4.4-16.6 16.5-14.9 25.4 2.2 11.8 13.2 21.2 24.9 21.2 6.1 0 14-4.3 18.6-10.2 10-12.6 5.1-29.8-10.4-36.9-5.6-2.5-12-2.4-18.2.5M2740.7 3560.4c-5.2 1.9-10.3 6-13.5 10.9-2.4 3.7-2.7 5.2-2.7 12.2 0 8.5.9 10.7 6.4 16.8 5.8 6.4 16.1 9.1 23.9 6.3 14.4-5.2 21.2-20.7 14.8-33.5-5.7-11.1-18-16.6-28.9-12.7M1363.9 3563c-7.7 2.3-12.9 10.4-12.9 19.9 0 12.9 8.5 22.1 20.3 22.1 15.8 0 22.7-6.9 22.7-22.6 0-8.8-3-14.1-10-17.7-4.2-2.1-6.7-2.7-11.4-2.6-3.4 0-7.3.4-8.7.9M2875.5 3563.9c-2.3 1-5.3 3.2-6.7 4.9-7.2 8.6-4.8 28.5 4 33.6 4.2 2.3 15.2 3.2 20.9 1.7 9.2-2.5 12.7-8.4 12.7-21.2-.1-10.2-3-15.6-10.3-18.8-6.3-2.7-15-2.8-20.6-.2M1231.5 3564c-11.8 2.5-19.5 15-15.5 25.4 2.5 6.7 12.8 14.6 19 14.6 6.8 0 16.5-7.9 19-15.5 4.3-12.9-9-27.3-22.5-24.5M1089.3 3569.4c-4.4 2-6.7 6.8-6.6 14.1 0 11.5 4.1 15 16.4 14.3 6.5-.3 7.4-.7 9.9-3.5 5.4-6 4.9-17.2-.9-22.7-2.4-2.3-4-2.9-9.3-3.2-4.2-.3-7.4 0-9.5 1M3153 3569.7c-4.4 2.3-7 7.3-7 13.6 0 10.9 4.7 15.2 16.2 14.5 6.1-.3 7.2-.7 10.1-3.6 3-3 3.2-3.7 3.2-10.1 0-11-3.4-15-13.4-15.8-4.1-.3-6.5 0-9.1 1.4M952.4 3575.4c-3.8 3.2-3.8 8 0 13.5 2.5 3.5 3.4 4.1 6.5 4.1 5 0 9.7-3.1 10.6-6.9.8-3.9-1-9.7-3.8-11.6-3.4-2.4-10.1-1.9-13.3.9M3294.3 3573.6c-.6.3-2.6 2.8-4.4 5.6l-3.3 5.1 4.7 4.3c6.2 5.9 8.7 5.8 14.4-.2 2.4-2.6 4.3-5 4.3-5.5 0-.4-2.1-2.8-4.6-5.3-4.4-4.4-7.4-5.5-11.1-4M1984.8 3626.3c-11.6 3.8-21.2 16.7-20.2 27.4 1 12.4 14.4 25.2 26.1 25.3 11.3 0 23.8-9.5 26.3-20.1 2.3-9.6-.3-19-7.2-25.6-6.4-6.2-17.8-9.4-25-7M2122.3 3626.4c-9.3 3-15.7 9.2-18.7 17.9-3.3 9.7-1 18.5 6.7 26.1 11.5 11.3 25.5 11.4 37 .2 11.4-11 11.5-24.9.4-36.4-7.6-7.8-16.7-10.6-25.4-7.8M2259.3 3626.6c-5.7 2.1-13.9 9.6-16.9 15.5-3.1 6.2-3.2 13.6-.3 19.5 4.5 9.3 15.8 17.4 24.5 17.4 5.3 0 15.3-5 19.5-9.7 9.6-11 9.5-23.3-.3-33.9-8.2-8.9-17.7-12-26.5-8.8M2395.4 3628c-9.2 4.6-17.7 16.1-17.7 24.1 0 5.7 4.6 14.1 10.6 19.4 11.2 9.8 23.1 9.3 33.6-1.5 10.9-11.3 10.6-25.7-.9-36.4-8.3-7.7-17.3-9.7-25.6-5.6M1707.6 3629.5c-13.4 5.1-19.7 20.6-13.5 33.1 9.6 19.1 36.8 17.3 46-3 3.4-7.4 1.7-15.2-4.9-22.7-6.4-7.3-19-10.7-27.6-7.4M2533.2 3629.9c-6.5 2.3-10.7 6.1-13.8 12.6-8.9 18.7 9.4 38.4 29.8 32.3 5.1-1.5 13.6-9.1 15.9-14.3 5.1-11.1-.7-23.5-13.6-29.7-6.9-3.2-10.9-3.5-18.3-.9M1568.5 3631.9c-8.2 3.7-12.1 11.6-11.2 22.7.9 11.4 6.4 17.6 17.1 19.4 15 2.4 26.8-7.2 26.8-21.9 0-9.2-5.1-17.1-13.4-20.5-5.1-2.2-14.3-2-19.3.3M2669.5 3631.5c-10.1 3.5-14.9 16.2-11 29.2 2.8 9.4 10.4 13.8 22.9 13.1 9.1-.4 14.3-3.4 17.6-10.3 3.2-6.5 3.1-16.5-.2-23.2-1.9-3.9-3.4-5.3-7.8-7.6-6.2-3.1-14.7-3.6-21.5-1.2M1432.5 3632.4c-11 4.1-15.8 18.6-10 30.2 3.4 6.8 7.8 9.5 16.4 10.2 15.8 1.1 23.8-6.8 22.9-22.6-.6-12.1-6.9-18.3-19.3-18.9-3.6-.2-7.6.3-10 1.1M2808.8 3632.2c-15 4-17 31-2.9 38.5 4.9 2.5 14.7 3.2 19.8 1.2 12.9-4.8 16.5-24.9 6.4-35-5.4-5.5-14-7.2-23.3-4.7M1299.4 3633.5c-7.3 3-14.6 12.6-14.6 19 0 9.5 14.3 21.4 22.3 18.6 8.2-2.9 16.7-14.1 15.6-20.7-1.7-10.2-15.5-20.2-23.3-16.9M1158.9 3638.8c-4.3 2.2-6.9 7.3-6.9 13.7 0 6.2 1.5 9.3 6 12.3 4.7 3.2 13.7 2.8 17.5-.8 6.3-5.9 5.8-20.2-.9-24.5-3.6-2.4-11.6-2.8-15.7-.7M3223.5 3647.1c-2.7 1.7-5.4 3.5-5.8 3.9s1.6 2.6 4.6 4.8c8.8 6.8 14.7 5.2 14.7-4.1 0-3.6-.5-4.9-2.2-6.1-3.2-2.3-5.7-2-11.3 1.5M2049.5 3700c-8 3.9-12.5 11.6-12.5 21.2 0 12.6 7.9 21.2 20.6 22.5 10.5 1.1 20.4-4.2 23.9-12.9 1.9-4.8 2.3-14.9.7-18.9-1.7-4.3-7.3-10.1-11.7-12-5.5-2.5-15.7-2.5-21 .1M2187.5 3699.8c-4.9 2.3-9.9 7.8-11.5 12.7-.7 2.1-1 6.7-.8 10.5.5 9 3.9 14.3 11.8 18.3 4.9 2.5 6.3 2.8 12.3 2.4 9.2-.6 15-4.2 19-11.7 2.6-4.9 2.8-6.3 2.4-12.1-.5-8.4-3.7-14.3-9.6-18.3-5.8-3.9-17.3-4.8-23.6-1.8M2332.5 3698.5c-.5.2-2.7.6-4.8 1-7.9 1.3-14.6 10.5-14.7 20 0 14.9 8.3 23.7 22.3 23.7 12.6 0 21.1-7.4 22.4-19.4 1-10.1-3.1-18.6-10.7-22.4-4.1-2-12.1-3.6-14.5-2.9M1776.5 3700.3c-7.7 3.1-11.9 8.8-12.8 17.7-1.7 15.7 8.6 26 24.3 24.3 5.8-.5 12.5-3.8 14.9-7.1 5.9-8.4 5.2-24-1.4-30.7-5.1-5-17.5-7.1-25-4.2M2463.5 3700.9c-4.7 2.2-8.9 6.4-10.5 10.6-2 5.2-1.3 16.2 1.2 21.4 7 14.1 34.2 12.1 38.7-2.8 2.9-9.8.4-21.1-5.8-26.4-5.8-4.9-16.4-6.1-23.6-2.8M1506.4 3701.1c-3.8 1.1-11.5 7.7-14.5 12.5-3.9 6.4-2.4 13.8 4.3 20 7.9 7.5 16.1 8.7 23.9 3.4 8.2-5.4 11.5-16 7.5-23.7-4.4-8.7-14.1-14.2-21.2-12.2M1637.5 3701.4c-3.9 1.7-8 6.5-9.5 11.2-.7 2-1 6.6-.8 10.4.4 7.9 3.4 12.7 9.8 16 15.6 8 33.3-3.2 31.3-19.7-1.1-9.1-5-15.4-11-17.9-4.1-1.8-15.8-1.7-19.8 0M2600.2 3702.1c-8.7 4.4-12.5 15.6-9 27.1 3.6 12.2 23.1 16.6 33.4 7.6 5.2-4.6 6.8-8.3 6.8-15.8 0-12.9-7-20.2-19.8-20.8-5.7-.2-7.9.1-11.4 1.9M2745.5 3700.8c-4.8 1.1-12.7 7.8-15.6 13.4-3.6 7-2.2 13.4 4.3 19.4 6.7 6.4 15.1 8.4 21.5 5 4.1-2 10.1-9 10.9-12.3.3-1.6.7-3.3.9-4s-.2-3.4-1-6.1c-1.7-5.7-9.4-13.7-14.2-14.7-1.5-.4-3.2-.8-3.8-.9-.5-.1-1.9 0-3 .2M1365.7 3706.4c-4.9 1.8-6.7 3.4-8.4 7.3-3.2 7.9 0 18.2 6.7 21.5 4.3 2.2 11.8 2.3 16.6.3 6.7-2.8 9.6-15.3 5.4-23.4-3.2-6.3-11.8-8.7-20.3-5.7M1229.2 3709.1c-9.1 4.6-10.5 14.7-3.1 21.4 3.4 3 4.6 3.5 9 3.5 4.6 0 5.5-.4 9-3.9 3.7-3.7 4.3-5.4 4.1-11.1-.3-4.6-6.2-10.5-11.7-11.5-2-.4-4.4.1-7.3 1.6M2872.4 3712.7c-2.4 8.2-2.3 15.7.3 19.1 3.4 4.6 14.1 6.6 20.7 3.8 7.4-3.1 10.1-14.2 5.8-23.9l-2.1-4.7h-23zM1092.3 3714.5c-1.9 1.3-2.3 2.6-2.3 6.4 0 5.3 1.1 6.8 5.7 7.7 3 .6 7.1-.8 8.5-3 1.5-2.2.7-5.6-1.9-8.5-3.5-3.8-7.1-4.7-10-2.6M1982.7 3770.4c-7.8 2.8-11.7 9.2-11.7 19.1 0 15.8 12 24.7 27.5 20.4 5.2-1.5 11.8-8.3 13.2-13.7 1.3-4.9.8-12.1-1.1-16.6-3.5-8.5-17.3-12.9-27.9-9.2M2120.5 3770.2c-8.2 2.9-12.5 9.6-12.5 19.4.1 13.1 8.2 21.4 21 21.4 11.3 0 18.6-6.2 20.5-17.7 1.7-10.6-3.6-20.8-12-23.2-4.9-1.3-13-1.3-17 .1M2257.4 3770.6c-10 3.6-14.4 15.4-10.3 28.1 1.4 4.3 7.9 9.9 13.1 11.4 9.5 2.5 18.4-.9 24-9.2 3.6-5.4 4.4-9.8 2.9-16.6-2.8-12.4-16-18.5-29.7-13.7M2398.6 3770.2c-8.5 1.8-14.5 9.7-14.6 19.1-.1 19.2 22 28.2 34.9 14.2 7.1-7.7 7.9-17.4 2.1-25.4-5-6.8-13.5-9.8-22.4-7.9M1710.1 3771.7c-4.8 2.4-10 7.9-12.2 12.8-1.5 3.3-1.6 4.9-.8 7.8 1.5 5.5 6.8 11.8 12.6 14.8 4.2 2.2 5.8 2.5 9.2 1.9 8.1-1.5 16-10.3 16.8-18.8.4-3.9 0-5.4-2.4-8.9-6.3-9.3-16-13.3-23.2-9.6M2533.8 3772.9c-4.9 3.1-10.4 9.8-11.4 13.8-1.3 5 .6 9.4 6.5 15.4 6.3 6.2 10.5 8 16 6.8 7.3-1.6 16.3-12.3 16.3-19.4 0-8-9.9-18.3-18.4-19.2-3.6-.4-5.1.1-9 2.6M1573 3773.7c-9 3.7-13.5 14.5-9.4 22.6 4.8 9.4 13.5 13.3 21.1 9.4 4.4-2.3 10-9 11.2-13.4.9-3.2.8-4.4-1.2-8.2-3.3-6.6-8.5-10.4-14.9-10.7-2.9-.2-6-.1-6.8.3M2671 3774.8c-6.8 3.7-10.1 11.4-8.1 19 2.2 7.9 8.6 13.2 16.1 13.2 4.8 0 8.5-1.7 12.1-5.7 3.9-4.2 4.9-6.6 4.9-12.1 0-5.4-2.5-10-7.2-13.5-4-3-13.2-3.4-17.8-.9M1436.7 3776c-6.8 1.2-11 7.4-10.1 15.1.6 5.4 2.5 8.9 5.5 10.4 3.2 1.7 13.5 2 17.3.5 5.8-2.2 8.3-11.9 5.2-19.5-2.3-5.3-9.4-7.9-17.9-6.5M2813.5 3775.8c-7.7 1.3-10.5 5-10.5 13.6 0 10.4 3.4 13.6 14.5 13.6 6 0 6.9-.3 9.6-2.9 2.1-2.1 2.9-4 3-6.8.4-9.6-.9-14.1-4.8-16.2-2.1-1-9-1.9-11.8-1.3M1294.6 3783.5l-6.6 5.6 6.3 5.6c7.2 6.4 9.2 7.4 12.9 6.1 3.3-1.2 8.8-7.2 8.8-9.7 0-4.4-8.9-13.1-13.4-13.1-.8 0-4.4 2.5-8 5.5M1165 3783.7c-.8.4-2.9 1.7-4.7 3l-3.2 2.5 3.3 2.9c4.1 3.5 6.5 3.7 9.4.6 4.7-5 1.2-11.3-4.8-9M1917.5 3841.2c-3.6 2-9.6 8.2-11.7 12.2-3.4 6.7.1 14.7 9 20.6 7.5 5 13.8 3.8 20.5-4 6.4-7.5 6.4-15.4.2-22.8-5.5-6.3-12.9-8.8-18-6M2051.7 3842.9c-9.8 6.3-12.8 15.9-7.4 24 4 5.9 9 9.3 14.7 9.9 5.8.5 10-1.6 15.5-8 6.1-7.2 5.9-13.8-.7-21.3-7.3-8.3-13.9-9.7-22.1-4.6M2186.5 3845.4c-3.8 3.8-5.6 6.4-6.1 9-1.4 7.8 1.6 15 8.7 20.1 2.5 1.9 4.5 2.5 8.3 2.5 7 0 10.7-2.6 16.2-11.1l4.6-7.1-2.2-4.2c-6.1-11-10.7-14.6-18.8-14.6-5.1 0-5.6.2-10.7 5.4M2330.3 3841c-5.8 2.3-13.3 12.7-13.3 18.3 0 6.5 11.7 17.7 18.4 17.7 7.6-.1 16.4-8.9 17.3-17.3 1.3-11.2-12.5-22.7-22.4-18.7M1780.1 3843.3c-7.6 1.9-11.1 6.7-11.1 15 0 7 1.7 10.4 6.6 13.3 3.8 2.2 5.4 2.6 10.2 2.2 3.1-.3 7.4-1.2 9.5-2.1l3.7-1.6v-23.2l-3.7-1.6c-5.3-2.3-11.3-3.1-15.2-2M1642.2 3844.9c-6.1 1.6-9.2 6.5-8.6 13.6.1 1.6.3 4 .3 5.3.3 8.7 19 12.2 25 4.7 4.4-5.7 3.3-17.8-1.9-21.6-2.9-2.2-10.1-3.1-14.8-2M2459.6 3844.8c-.3.3-.6 6.5-.6 13.8 0 12.4.1 13.3 2 13.9 2.2.7 22.7.5 24.8-.3.9-.3 1.2-4 1.2-13.7 0-11.5-.2-13.4-1.7-13.9-2-.8-24.9-.6-25.7.2M2605.2 3844.9c-6.8 1.7-10 8-8.7 16.7 1.3 9 9.8 13.4 19.6 10.3 6.1-2 8.2-5.4 8.2-13.3.1-6.7-1.5-10.6-5-12.5-2.8-1.4-10.4-2.1-14.1-1.2M1506.5 3846.4c-1.6.8-4.3 2.8-6 4.5-2.4 2.6-3 4.1-3 7.6s.6 5 3 7.5c6.3 6.7 12.2 7.1 17.8 1.2 6.7-7 4.3-16.8-5-20.8-3.8-1.6-3.1-1.6-6.8 0M2746.2 3846.1c-6.3 1.3-12.1 9.1-10.8 14.4.9 3.7 6.4 9.4 10 10.3 8 2.2 16.7-7 14.5-15.2-1.7-6.1-8.3-10.7-13.7-9.5M1367 3853c-4.3 4.3-1.1 11.2 5.7 12.6 2.4.5 3.6.1 5.2-1.5 3-3 2.6-5.8-1.3-9.7s-6.7-4.3-9.6-1.4M1850.5 3914.7c-5.5 1.5-10.5 7.6-10.5 12.8 0 5.9 5.8 12.1 12.4 13.2 6.8 1.1 15.6-6.2 15.6-13 0-8.1-9.5-15.1-17.5-13M1984.1 3915.3c-4.4 2.2-6.5 6.2-6.4 12.3.1 9 4.5 13.4 13.6 13.4 6.2 0 10.5-2.3 12.3-6.5 2.9-7.1.7-16.6-4.6-19.2-3.2-1.6-11.8-1.6-14.9 0M2121.2 3915.3c-3.8 2.1-5.4 5.4-5.4 11.2-.1 10.4 3.6 14.5 13.2 14.5 9.4 0 14-4.5 14-13.7 0-5.7-2.8-10.9-6.6-12.3-3.5-1.4-12.4-1.2-15.2.3M2259 3915.8c-6.4 3.1-8.7 11.5-5.2 18.2 4.8 9 19.9 9.4 25.2.7 3.9-6.3 1.9-15-4.3-18.7-4-2.5-11-2.6-15.7-.2M2398.1 3915.7c-9.5 4.7-9.3 19.8.4 23.9 4.5 1.8 6.9 1.8 11.2-.3 9.8-4.6 9.8-18.9 0-23.4-5.1-2.3-7.2-2.3-11.6-.2M1711.2 3917c-3.6 2.2-7.2 7.4-7.2 10.5s3.6 8.3 7.2 10.5c5.3 3.2 8.4 2.6 13.4-2.4 5.1-5 5.5-7.8 2.2-13.8-3.8-6.7-9.6-8.5-15.6-4.8M2539.2 3917.1c-2.1 1.1-5.8 4-8.2 6.5l-4.5 4.6 5 4.3c6.7 5.9 9.5 7.1 13.1 5.3 3.4-1.6 9.4-9.2 9.4-11.9 0-2.3-6.3-9.5-9-10.2-1-.3-3.6.4-5.8 1.4M1572.6 3922.2c-2.2 3.1-2 9.1.2 11.1 2.3 2.1 8.1 2.2 11 .1 1.9-1.3 2.2-2.4 2.2-7.5v-5.9h-5.9c-5.1 0-6.2.3-7.5 2.2M2677.4 3921c-5.2 2-7.2 9.7-3.2 12.4 2.8 2 7.8 2.1 10.3.2 5.1-3.7-1.1-14.8-7.1-12.6M1438.6 3924.1c-1.2 2.9-1.2 3.6.2 5.7l1.5 2.3 2.6-2.5c2.5-2.5 2.5-2.7.9-5.3-2.3-3.9-3.6-3.9-5.2-.2M2813.7 3924.8c-1 1-1.7 2.3-1.7 2.8 0 1.2 5.8 6.9 6.4 6.3.2-.2 1.1-1.8 1.9-3.5 1.4-2.8 1.4-3.3.1-5.3-1.9-2.6-4.5-2.7-6.7-.3M2058.4 3988.4c-4.6 2-6.3 5-5.4 9.2 1.2 5.1 2.7 6.4 7.6 6.4 3.3 0 4.6-.5 5.8-2.2 2.5-3.5 2-9.4-.9-12.3-2.8-2.9-2.9-2.9-7.1-1.1M2192.2 3990.6c-3.6 1.9-6.8 3.6-7 3.8-.7.8 7.3 7.7 10.5 9.2 3.8 1.6 7.6.6 9.2-2.5 1.6-2.8 1.3-8.3-.4-10.8-2.4-3.5-5.1-3.4-12.3.3M1918.1 3990.6c-3.3 2.8-3.9 5.9-2 9.7 1.6 3 2.8 3.7 6.7 3.7 4.1 0 8.2-3.8 8.2-7.5 0-2.8-1.6-6.6-3.4-7.7-2.3-1.5-6.5-.7-9.5 1.8M2329.4 3990.1c-1.1 1.3-1.9 3.5-1.9 5.9 0 5.2 2.7 8 7.5 8 5.6 0 8.3-2.6 8.3-8 0-3.3-.6-4.8-2.3-6.2-3.1-2.5-9.2-2.4-11.6.3M1779.3 3992.6c-2.4 1.4-4.3 2.9-4.3 3.4 0 1.2 7.8 6 10.9 6.6 5.5 1.1 8-4.9 4-10-2.6-3.2-5.2-3.2-10.6 0M2467.8 3992.8c-2.1 1.5-3.8 3-3.8 3.4 0 1.3 8.4 6.8 10.5 6.8 4.9 0 6.3-7 2.2-10.8-3-2.8-4.4-2.7-8.9.6M1643.7 3993.8c-2.2 2.4-2.2 2.7.9 4.7 2.4 1.5 2.7 1.5 5.1 0l2.5-1.7-2.3-2.4c-2.7-2.9-4-3-6.2-.6M2607.6 3993.8c-1.5 1.8-1.5 2.1.6 4.7l2.2 2.8 1.8-2.3c2.2-2.7 2.2-3.4.2-5.4s-2.7-2-4.8.2"/></svg>